<svg width="207" height="59" viewBox="0 0 207 59" fill="none" xmlns="http://www.w3.org/2000/svg">
<path d="M67.0557 21.3969V29.2714H70.2835V10.5896H67.0557V18.3543H58.2884V10.5896H55.0605V29.2728H58.2884V21.3982H67.0557V21.3969ZM83.0661 10.5883V29.2714H86.2939V10.5896H83.0661V10.5883ZM108.67 23.5038L98.8266 10.5883H95.8343V29.2714H99.0101V15.9787L109.141 29.2714H111.846V10.5896H108.672V23.5052L108.67 23.5038ZM121.385 10.5883V29.2714H124.613V10.5896H121.385V10.5883ZM141.922 13.6322H147.749V10.5883H132.841V13.6322H138.668V29.2714H141.922V13.6322ZM155.978 10.5883V29.2714H159.204V10.5896H155.978V10.5883ZM178.247 10.4546H175.254L167.17 29.2714H170.476L172.367 24.7611H181.053L182.916 29.2714H186.329L178.246 10.4546H178.247ZM179.873 21.8495H173.55L176.697 14.376L179.873 21.8495ZM194.112 29.2701H207V26.2804H197.341V10.5869H194.112V29.2701Z" fill="#BEBEBE"/>
<path fill-rule="evenodd" clip-rule="evenodd" d="M16.4478 8.38265V17.2558H26.7618V8.38265H34.8543V34.9577V43.3403H43.2121V0H26.7618H16.4478H0V43.3403H16.4478V58.5455L26.7618 50.3846V26.0846H16.4478V34.9577H8.35655V8.38265H16.4478Z" fill="#BEBEBE"/>
</svg>
