<svg width="203" height="55" viewBox="0 0 203 55" fill="none" xmlns="http://www.w3.org/2000/svg">
<path d="M78.4619 28.3951H90.8957V25.8953H80.9563V22.8882H88.9456V20.3706H80.9563V17.3635H90.8957V14.8638H78.4619V28.3951Z" fill="#BEBEBE"/>
<path d="M99.3345 19.6751L95.2834 14.8638H92.6025V15.5593L97.6839 21.6294L92.6025 27.6996V28.3951H95.2834L99.3155 23.6028L103.348 28.3951H106.049V27.6818L100.947 21.6294L106.049 15.5593V14.8638H103.348L99.3345 19.6751Z" fill="#BEBEBE"/>
<path d="M107.341 17.3635H112.855V28.3951H115.349V17.3635H120.844V14.8638H107.341V17.3635Z" fill="#BEBEBE"/>
<path d="M122.287 28.3951H134.721V25.8953H124.781V22.8882H132.771V20.3706H124.781V17.3635H134.721V14.8638H122.287V28.3951Z" fill="#BEBEBE"/>
<path d="M147.623 24.7497L139.334 14.8638H136.615V28.3951H139.091V18.4914L147.398 28.3951H150.117V14.8638H147.623V24.7497Z" fill="#BEBEBE"/>
<path d="M164.36 15.2211C163.967 14.9833 163.532 14.8638 163.057 14.8638H154.769C154.293 14.8638 153.859 14.9833 153.466 15.2211C153.072 15.4588 152.756 15.7754 152.519 16.1696C152.282 16.5638 152.163 16.9999 152.163 17.4754V20.2575C152.163 20.7457 152.282 21.1882 152.519 21.5824C152.756 21.9765 153.072 22.2931 153.466 22.5309C153.859 22.7687 154.294 22.8882 154.769 22.8882H162.945C163.007 22.8882 163.06 22.9073 163.104 22.9442C163.148 22.9823 163.17 23.0319 163.17 23.0942V25.669C163.17 25.7313 163.149 25.7847 163.104 25.8292C163.06 25.8737 163.008 25.8953 162.945 25.8953H154.861C154.799 25.8953 154.746 25.8737 154.701 25.8292C154.657 25.786 154.635 25.7326 154.635 25.669V24.7484H152.16V25.7821C152.16 26.259 152.279 26.6938 152.517 27.088C152.754 27.4821 153.07 27.7987 153.463 28.0365C153.856 28.2743 154.292 28.3938 154.766 28.3938H163.055C163.529 28.3938 163.965 28.2743 164.358 28.0365C164.751 27.7987 165.067 27.4821 165.304 27.088C165.542 26.6938 165.661 26.2577 165.661 25.7821V23.0001C165.661 22.5118 165.542 22.0694 165.304 21.6752C165.067 21.281 164.751 20.9644 164.358 20.7267C163.965 20.4889 163.529 20.3694 163.055 20.3694H154.86C154.798 20.3694 154.745 20.3503 154.7 20.3134C154.656 20.2753 154.634 20.2257 154.634 20.1634V17.5886C154.634 17.5263 154.656 17.4729 154.7 17.4284C154.743 17.3852 154.797 17.3623 154.86 17.3623H162.943C163.005 17.3623 163.059 17.3839 163.103 17.4284C163.146 17.4729 163.169 17.525 163.169 17.5886V18.5092H165.663V17.4754C165.663 16.9999 165.544 16.5638 165.307 16.1696C165.07 15.7754 164.754 15.4588 164.36 15.2211Z" fill="#BEBEBE"/>
<path d="M169.901 14.8638H167.444V28.3951H169.901V14.8638Z" fill="#BEBEBE"/>
<path d="M180.252 25.388L174.214 14.8638H171.325L179.146 28.3951H181.358L189.179 14.8638H186.309L180.252 25.388Z" fill="#BEBEBE"/>
<path d="M203 17.3635V14.8638H190.566V28.3951H203V25.8953H193.061V22.8882H201.05V20.3706H193.061V17.3635H203Z" fill="#BEBEBE"/>
<path d="M105.698 32.6572C105.475 32.5225 105.228 32.4551 104.959 32.4551H100.253C99.9826 32.4551 99.7364 32.5225 99.5131 32.6572C99.2898 32.792 99.1097 32.9726 98.9752 33.1964C98.8407 33.4201 98.7734 33.6681 98.7734 33.9376V35.5168C98.7734 35.794 98.8407 36.0445 98.9752 36.2696C99.1097 36.4934 99.2898 36.6739 99.5131 36.8087C99.7364 36.9435 99.9838 37.0109 100.253 37.0109H104.895C104.931 37.0109 104.961 37.021 104.985 37.0426C105.011 37.0643 105.022 37.0922 105.022 37.1278V38.5901C105.022 38.6257 105.009 38.6562 104.985 38.6803C104.96 38.7058 104.931 38.7172 104.895 38.7172H100.306C100.271 38.7172 100.24 38.7045 100.216 38.6803C100.191 38.6549 100.179 38.6257 100.179 38.5901V38.0675H98.7734V38.6549C98.7734 38.9257 98.8407 39.1724 98.9752 39.3962C99.1097 39.62 99.2898 39.8005 99.5131 39.9353C99.7364 40.0701 99.9838 40.1375 100.253 40.1375H104.959C105.229 40.1375 105.475 40.0701 105.698 39.9353C105.922 39.8005 106.1 39.62 106.236 39.3962C106.371 39.1724 106.438 38.9245 106.438 38.6549V37.0757C106.438 36.7985 106.371 36.548 106.236 36.323C106.102 36.0992 105.922 35.9199 105.698 35.7839C105.475 35.6491 105.228 35.5817 104.959 35.5817H100.306C100.271 35.5817 100.24 35.5715 100.216 35.5499C100.191 35.5283 100.179 35.5003 100.179 35.4647V34.0025C100.179 33.9669 100.192 33.9364 100.216 33.9122C100.241 33.8881 100.271 33.8753 100.306 33.8753H104.895C104.931 33.8753 104.961 33.8881 104.985 33.9122C105.011 33.9376 105.022 33.9669 105.022 34.0025V34.5251H106.438V33.9376C106.438 33.6668 106.371 33.4201 106.236 33.1964C106.102 32.9726 105.922 32.7933 105.698 32.6572Z" fill="#BEBEBE"/>
<path d="M115.094 33.8726H118.224V40.136H119.641V33.8726H122.76V32.4536H115.094V33.8726Z" fill="#BEBEBE"/>
<path d="M137.665 38.5901C137.665 38.6257 137.651 38.6562 137.622 38.6803C137.594 38.7058 137.561 38.7172 137.525 38.7172H132.948C132.912 38.7172 132.882 38.7045 132.858 38.6803C132.832 38.6549 132.821 38.6257 132.821 38.5901V32.4551H131.415V38.6536C131.415 38.9245 131.482 39.1711 131.617 39.3949C131.751 39.6187 131.931 39.7993 132.155 39.934C132.378 40.0688 132.625 40.1362 132.894 40.1362H137.6C137.87 40.1362 138.117 40.0688 138.34 39.934C138.563 39.7993 138.742 39.6187 138.878 39.3949C139.012 39.1711 139.08 38.9232 139.08 38.6536V32.4551H137.664V38.5901H137.665Z" fill="#BEBEBE"/>
<path d="M155.072 32.6572C154.845 32.5225 154.596 32.4551 154.327 32.4551H148.152V40.1375H154.327C154.598 40.1375 154.845 40.0701 155.072 39.9353C155.299 39.8005 155.481 39.62 155.615 39.3962C155.75 39.1724 155.817 38.9245 155.817 38.6549V33.9389C155.817 33.6681 155.75 33.4214 155.615 33.1976C155.481 32.9738 155.299 32.7946 155.072 32.6585V32.6572ZM154.401 38.5901C154.401 38.6257 154.387 38.6562 154.358 38.6803C154.33 38.7058 154.297 38.7172 154.261 38.7172H149.672C149.637 38.7172 149.606 38.7045 149.582 38.6803C149.557 38.6549 149.545 38.6257 149.545 38.5901V34.0025C149.545 33.9669 149.558 33.9364 149.582 33.9122C149.608 33.8881 149.637 33.8753 149.672 33.8753H154.261C154.297 33.8753 154.329 33.8881 154.358 33.9122C154.386 33.9376 154.401 33.9669 154.401 34.0025V38.5901Z" fill="#BEBEBE"/>
<path d="M166.134 32.4536H164.739V40.136H166.134V32.4536Z" fill="#BEBEBE"/>
<path d="M182.488 33.1964C182.354 32.9726 182.174 32.7933 181.95 32.6572C181.727 32.5225 181.48 32.4551 181.211 32.4551H176.505C176.235 32.4551 175.988 32.5225 175.765 32.6572C175.542 32.792 175.362 32.9726 175.227 33.1964C175.093 33.4201 175.025 33.6681 175.025 33.9376V38.6536C175.025 38.9245 175.093 39.1711 175.227 39.3949C175.362 39.6187 175.542 39.7993 175.765 39.934C175.988 40.0688 176.236 40.1362 176.505 40.1362H181.211C181.481 40.1362 181.727 40.0688 181.95 39.934C182.174 39.7993 182.352 39.6187 182.488 39.3949C182.623 39.1711 182.69 38.9232 182.69 38.6536V33.9376C182.69 33.6668 182.623 33.4201 182.488 33.1964ZM181.274 38.5901C181.274 38.6257 181.26 38.6562 181.231 38.6803C181.203 38.7058 181.17 38.7172 181.134 38.7172H176.557C176.521 38.7172 176.491 38.7045 176.467 38.6803C176.441 38.6549 176.43 38.6257 176.43 38.5901V34.0025C176.43 33.9669 176.443 33.9364 176.467 33.9122C176.492 33.8881 176.521 33.8753 176.557 33.8753H181.134C181.17 33.8753 181.202 33.8881 181.231 33.9122C181.259 33.9376 181.274 33.9669 181.274 34.0025V38.5901Z" fill="#BEBEBE"/>
<path d="M35.1365 39.4254L47.5373 30.2871C49.2514 29.0232 51.6709 30.2502 51.6709 32.3825C51.6709 33.2103 51.2788 33.9872 50.614 34.478L32.0598 48.1631C31.395 48.6539 31.0029 49.4308 31.0029 50.2586V52.3934C31.0029 54.5257 33.4212 55.7527 35.1365 54.4901L58.8799 37.0057C59.546 36.5149 59.9393 35.7368 59.9393 34.909V17.67C59.9393 15.5377 57.5198 14.3107 55.8057 15.5746L32.0623 33.0704C31.3975 33.5612 31.0042 34.3394 31.0042 35.1659V37.3274C31.0042 39.4597 33.4237 40.6867 35.1378 39.4228L35.1365 39.4254Z" fill="#BEBEBE"/>
<path d="M31.0022 20.0897V22.2487C31.0022 24.381 33.423 25.608 35.1371 24.3441L58.8805 6.83554C59.5453 6.34474 59.9374 5.56786 59.9374 4.74011V2.60653C59.9374 0.474227 57.5191 -0.752771 55.8038 0.509829L32.0604 17.9942C31.3943 18.485 31.001 19.2632 31.001 20.0909L31.0022 20.0897Z" fill="#BEBEBE"/>
<path d="M1.05941 37.007L24.8028 54.4914C26.5169 55.754 28.9364 54.527 28.9364 52.3947V50.2598C28.9364 49.4321 28.5443 48.6552 27.8795 48.1644L9.32531 34.4793C8.66049 33.9885 8.26844 33.2116 8.26844 32.3838C8.26844 30.2515 10.688 29.0245 12.402 30.2884L24.8028 39.4267C26.5169 40.6905 28.9364 39.4635 28.9364 37.3312V35.1697C28.9364 34.3419 28.5431 33.5638 27.8782 33.0742L4.13359 15.5746C2.41951 14.3107 0 15.5377 0 17.67V34.909C0 35.7368 0.393313 36.5149 1.05941 37.0057V37.007Z" fill="#BEBEBE"/>
<path d="M1.05687 6.83554L24.8003 24.3441C26.5143 25.608 28.9351 24.381 28.9351 22.2487V20.0897C28.9351 19.2619 28.5418 18.4838 27.8757 17.993L4.13359 0.509829C2.41824 -0.752771 0 0.474227 0 2.60653V4.74011C0 5.56786 0.392044 6.34474 1.05687 6.83554Z" fill="#BEBEBE"/>
</svg>
