<svg width="190" height="51" viewBox="0 0 190 51" fill="none" xmlns="http://www.w3.org/2000/svg">
<path d="M70.1401 38.0104L67.3701 14.6904H70.3101L72.2501 32.0704L77.6401 14.6904H80.5201L72.9001 38.0104H70.1401Z" fill="#BEBEBE"/>
<path d="M86.5098 38.0104L88.9598 14.6904H92.0398L89.5898 38.0104H86.5098Z" fill="#BEBEBE"/>
<path d="M99.1602 38.0104L101.61 14.6904H103.78L108.83 30.4304L110.47 14.6904H113.11L110.66 38.0104H108.62L103.53 21.8404L101.82 38.0104H99.1602Z" fill="#BEBEBE"/>
<path d="M122.52 38.0102L124.71 17.0302H120.42L120.66 14.7002H132.26L132.02 17.0302H127.86L125.65 38.0102H122.51H122.52Z" fill="#BEBEBE"/>
<path d="M135.98 38.0104L143.41 14.6904H146.46L148.99 38.0104H145.98L145.53 32.0904H140.71L138.98 38.0104H135.98ZM141.35 29.8404H145.36L144.48 19.1104L141.36 29.8404H141.35Z" fill="#BEBEBE"/>
<path d="M162.5 38.3002C160.38 38.3002 158.93 37.6402 158.14 36.3002C157.55 35.3102 157.25 33.9702 157.25 32.2802C157.25 31.7002 157.28 31.0802 157.35 30.4102L158.19 22.4802C158.33 21.1502 158.55 20.0102 158.84 19.0702C159.13 18.1302 159.54 17.3002 160.07 16.5802C160.6 15.8602 161.29 15.3302 162.15 14.9802C163.01 14.6302 164.04 14.4502 165.24 14.4502C167.39 14.4502 168.87 14.9902 169.7 16.1002C170.33 16.9502 170.64 18.1702 170.64 19.7602C170.64 20.2302 170.61 20.7302 170.56 21.2802L170.46 22.1402H167.52L167.59 21.3902C167.67 20.7502 167.7 20.1902 167.7 19.6902C167.7 19.4002 167.69 19.1302 167.66 18.8902C167.6 18.2202 167.36 17.7302 166.94 17.4102C166.52 17.0902 165.89 16.9202 165.03 16.9202C164.63 16.9202 164.26 16.9702 163.93 17.0502C163.6 17.1402 163.32 17.2602 163.09 17.4102C162.86 17.5602 162.65 17.7602 162.47 18.0102C162.29 18.2602 162.14 18.5202 162.03 18.7702C161.92 19.0202 161.82 19.3402 161.74 19.7302C161.66 20.1202 161.59 20.4802 161.54 20.8102C161.49 21.1402 161.44 21.5402 161.39 22.0202L160.46 30.7402C160.39 31.3502 160.36 31.9002 160.36 32.4002C160.36 33.3602 160.48 34.0902 160.73 34.6102C161.09 35.4002 161.88 35.7902 163.12 35.7902C164.36 35.7902 165.25 35.3702 165.79 34.5202C166.33 33.6802 166.7 32.3202 166.9 30.4602L167.08 28.7202H164.07L164.32 26.4802H170.17L168.96 38.0102H166.96L166.93 35.3202C166.03 37.3102 164.55 38.3002 162.49 38.3002H162.5Z" fill="#BEBEBE"/>
<path d="M178.12 38.0104L180.57 14.6904H189.54L189.3 17.0204H183.48L182.65 24.8204H187.39L187.17 27.0804H182.43L181.52 35.7304H187.43L187.18 37.9904H178.14L178.12 38.0104Z" fill="#BEBEBE"/>
<path d="M25.3699 49.3701C38.7573 49.3701 49.6099 38.5175 49.6099 25.1301C49.6099 11.7428 38.7573 0.890137 25.3699 0.890137C11.9825 0.890137 1.12988 11.7428 1.12988 25.1301C1.12988 38.5175 11.9825 49.3701 25.3699 49.3701Z" fill="#BEBEBE"/>
<path d="M49.2897 21.3199C49.2897 21.3999 49.2997 21.5099 49.3097 21.6099C49.2597 21.3399 49.2397 21.2099 49.2897 21.3199Z" fill="#BEBEBE"/>
<path d="M49.5096 25.1301C49.4396 24.1501 49.4296 22.5801 49.3096 21.6001C49.5496 22.4501 49.7296 24.8301 49.5096 25.1301Z" fill="#BEBEBE"/>
<path d="M49.6797 21.0703L49.7897 22.3203C49.6097 21.6103 49.7497 21.7203 49.6797 21.0703Z" fill="#BEBEBE"/>
<path d="M49.5104 21.5598L49.4004 21.5098V20.8398L49.5104 21.5598Z" fill="#BEBEBE"/>
<path d="M3.69043 16.1102C3.77043 16.0102 3.85043 15.9602 3.87043 16.0302L3.69043 16.1102Z" fill="#BEBEBE"/>
<path d="M2.37996 18.6099C2.30996 18.8599 2.24996 19.0199 2.20996 19.1699C2.24996 18.9999 2.28996 18.8599 2.37996 18.6099Z" fill="#BEBEBE"/>
<path d="M4.75004 13.8301L4.54004 14.2701C4.60004 14.1201 4.66004 13.9601 4.75004 13.8301Z" fill="#BEBEBE"/>
<path d="M30.9902 1.9502C31.4302 2.1302 31.8402 2.3002 32.1402 2.4302C31.2502 2.2802 31.2202 2.1102 30.9902 1.9502Z" fill="#BEBEBE"/>
<path d="M0.959961 31.7603L1.06996 31.8603C1.06996 32.0003 1.05996 32.0803 0.959961 31.7603Z" fill="#BEBEBE"/>
<path d="M0.969961 18.9499C0.969961 18.9499 1.03996 18.9799 1.04996 19.0399L0.989961 19.1799L0.959961 18.9399L0.969961 18.9499Z" fill="#BEBEBE"/>
<path d="M5.62988 12.0802V12.0502L5.89988 11.7402C5.77988 11.9202 5.69988 12.0302 5.62988 12.0702V12.0802Z" fill="#BEBEBE"/>
<path d="M2.28015 35.73C2.32015 35.92 2.35015 36.1 2.35015 36.28C2.21015 35.9 2.19015 35.7 2.28015 35.73Z" fill="#BEBEBE"/>
<path d="M2.19043 19.2302C2.19043 19.2102 2.21043 19.1802 2.21043 19.1602C2.21043 19.1902 2.20043 19.2002 2.19043 19.2302Z" fill="#BEBEBE"/>
<path d="M2.43012 14.9302C2.32012 15.1302 2.21012 15.3102 2.12012 15.5302C2.19012 15.2502 2.34012 15.0502 2.43012 14.9302Z" fill="#BEBEBE"/>
<path d="M30.9901 1.95004C30.8701 1.90004 30.7501 1.85004 30.6201 1.79004C30.8001 1.84004 30.9101 1.89004 30.9901 1.95004Z" fill="#BEBEBE"/>
<path d="M48.4001 18.1301C48.2901 17.7501 48.2901 17.6501 48.3301 17.5601C48.3801 17.7701 48.4201 17.9601 48.4001 18.1301Z" fill="#BEBEBE"/>
<path d="M49.0596 26.0902V25.9302C49.0696 26.0002 49.0596 26.0502 49.0596 26.0902Z" fill="#BEBEBE"/>
<path d="M43.7999 39.7401C43.7399 39.7901 43.6899 39.8301 43.6299 39.8601C43.6899 39.7501 43.7599 39.7101 43.7999 39.7401Z" fill="#BEBEBE"/>
<path d="M33.36 49.24C34.3 48.77 35.41 48.65 36.23 48.22L35.91 48.27L36.77 47.94L36.7 47.82C37.41 47.55 38.12 47.07 38.74 46.69C39.05 46.5 39.34 46.33 39.59 46.2C39.82 46.05 40.02 45.94 40.16 45.9L39.89 45.83L41.28 45.01L40.45 45.44C41.92 44.4 43.94 42.53 44.18 42.23L44.01 42.3C44.18 42.05 44.37 41.92 44.6 41.71L44.35 41.81C46.12 39.75 46.33 38.99 47.85 36.41C48.18 35.66 47.62 36.8 47.55 36.78C47.66 36.33 48.19 35.43 48.34 35.25C48.06 35.39 47.57 36.54 47.85 35.62C48.23 35.05 47.49 35.96 48.04 34.91C48.05 34.91 48.44 34.57 48.44 34.57C48.63 33.93 48.31 34.37 48.69 33.4C49.2 32.31 48.45 34.87 49.15 33.07C49.33 32.62 49.3 32.07 49.34 31.44C49.37 30.81 49.48 30.09 49.66 29.18C49.77 27.59 49.16 29.94 49.55 27.79L49.18 29.14C49.17 28.77 49.01 28.98 49.2 28.06C49.36 27.78 49.51 27.21 49.55 26.7C49.26 28.71 49.36 24.92 49.02 26.77L49.06 26.08C49.05 26.17 49.02 26.19 49.01 26.14L49.04 25.22C48.96 25.79 48.87 27.12 48.72 26.49L48.74 25.18C48.59 25.53 48.55 25.05 48.44 25.13C48.44 25.13 48.33 26.08 48.21 27.02C48.18 27.49 48.04 27.95 47.97 28.3C47.89 28.65 47.84 28.88 47.84 28.88C47.94 28.75 48.08 28.22 48.13 28.43C48.03 29.44 47.9 29.23 47.79 30.17L48 29.78C47.94 29.85 47.89 29.97 47.93 29.77C47.91 29.43 48.01 29.3 48.08 29.31C48.2 29.67 47.84 30.59 47.68 30.84C47.39 32.04 47.86 31.15 47.83 31.43C47.5 32.01 47.16 33.4 46.82 34.1L47.13 33.69C46.99 34.66 46.4 35.35 46.14 35.84L46.34 35.7C46.08 36.28 45.86 36.76 45.67 37.19C45.47 37.61 45.25 37.97 44.8 38.28L44.94 38.21C44.66 38.68 44.22 39.4 43.81 39.74C43.84 39.78 43.84 39.9 43.72 40.08C43.41 40.21 43.11 40.7 42.59 41.33C42.98 40.96 43.03 41.24 43.46 40.84C42.75 41.92 42.54 41.58 41.76 42.28C41.36 42.78 42.28 42 42.43 41.93C41.8 42.46 41.25 43.1 40.73 43.7C40.17 44.23 39.63 44.69 39.09 44.83L39.57 44.29C38.99 44.6 38.71 44.81 38.8 44.8C38.96 44.66 39.04 44.65 39.12 44.64C38.39 45.32 37.65 45.6 36.95 45.93C36.23 46.22 35.47 46.42 34.61 46.9C34.77 46.91 35.04 46.81 35.08 46.87C34.29 47.35 34.1 46.81 32.8 47.48H33.1C32.66 47.7 32.28 47.68 32.33 47.63C32.37 47.81 31.61 48 30.74 48.23C29.87 48.49 28.85 48.58 28.37 48.93C28 48.91 27.29 48.85 26.6 48.83C25.91 48.82 25.24 48.85 24.93 48.86C24.01 49.04 25.73 49.15 25.39 49.33C24.67 49.3 24.3 49.07 23.23 49.09C23.24 48.88 25.34 48.78 23.38 48.56L23.09 48.66C23.3 48.66 23.58 48.63 23.86 48.66C24.43 48.81 23.51 48.78 23.37 48.83C23.37 48.9 21.26 48.49 21.26 48.49C21.15 48.25 22.39 48.49 22.52 48.46C20.87 48.29 18.78 48.18 17.36 47.45L17.47 47.58C15.66 46.72 16.2 47.56 14.9 46.55C14.11 46.23 15.07 46.89 13.9 46.35C13.58 46.17 13.81 46.2 13.88 46.21C12.57 45.32 13.18 46.03 12.04 45.1L12.18 45.46C11.47 44.94 10.88 44.24 10.25 43.66C9.67 43.02 9.13 42.4 8.54 41.94C8.48 42.13 9.18 42.74 9.36 43.09C9.04 42.68 8.64 42.3 8.26 41.86C7.89 41.42 7.48 40.97 7.08 40.53C6.68 40.08 6.35 39.59 6.01 39.15C5.85 38.92 5.69 38.7 5.54 38.49C5.41 38.26 5.3 38.04 5.19 37.83C5.6 38.22 5.04 36.9 5.76 37.83C5.71 38.23 6.17 38.58 6.53 39.1C6.24 38.08 4.06 35.62 4.35 35.11L4.07 34.94C3.97 34.67 3.79 33.98 4.05 34.4C4.05 34.4 3.98 34.29 3.9 34.12C3.83 33.95 3.73 33.72 3.63 33.49C3.43 33.03 3.23 32.56 3.23 32.56C3.29 32.91 3.37 33.47 3.49 33.99C3.59 34.52 3.83 34.96 4 35.14C4.08 35.75 3.52 34.44 3.55 34.99C3.24 33.62 3.11 34.25 2.65 32.89C2.88 33.15 2.84 32.79 2.77 32.37C2.69 31.95 2.65 31.44 2.71 31.46C2.56 31.02 2.39 30.01 2.42 29.6C2.37 29.2 2.23 28.55 2.08 27.83C1.94 27.11 1.92 26.31 1.92 25.66C1.86 26.15 1.8 26.95 1.63 26.9C1.69 26.24 1.65 25.54 1.45 25.42C1.33 26.58 1.45 26.77 1.59 26.92C1.74 27.07 1.82 27.19 1.88 28.23C1.76 28.76 1.73 29.35 1.92 30.42C1.67 29.97 1.67 30.19 1.48 30.02C1.61 29.31 1.48 28.46 1.33 27.55C1.28 26.64 1.14 25.66 1.27 24.79C1.44 24.06 1.7 24.61 1.84 22.99L1.91 24.39C1.86 22.86 2.06 24.04 2.18 22.79L2.01 23.28C2 22.5 2.12 22.23 2.28 21.82L1.95 22.44C1.98 22.02 2.07 21.25 2.21 21.26C2.17 21.14 2.13 21.1 2.09 21.09C2.14 21.02 2.19 20.82 2.26 20.34C2.19 20.62 2.17 20.83 2.11 20.82C2.53 19 1.95 20.34 2.24 19.21C2.14 19.38 2.16 19.04 2.24 18.62C2.43 18.69 2.62 18.14 2.94 17.57C3.24 16.99 3.55 16.33 3.74 16.09C3.74 16.09 3.77 16 3.85 15.88C3.93 15.75 4.03 15.59 4.13 15.42C4.33 15.09 4.53 14.76 4.53 14.76C4.37 15.03 4.42 14.68 4.59 14.26L4.56 14.33C4.74 13.87 3.91 14.66 4.73 13.4L5.23 12.78C5.15 12.89 5.17 12.75 5.18 12.67L5.68 12.03C6.13 10.83 7.17 10.23 8.05 9.09C7.79 9.42 7.34 9.87 7.44 9.6C7.6 9.36 7.92 9.07 8.1 8.95L8.02 8.98L8.34 8.68C8.52 8.49 8.79 8.27 9.07 8.06C9.62 7.64 10.17 7.22 10.17 7.22C9.93 7.28 8.77 8.31 9.19 7.75C9.39 7.36 10.08 6.92 10.48 6.63C10.48 6.73 9.85 7.4 10.58 6.84C10.64 6.74 11.28 6.13 10.91 6.33C11.32 6.09 11.8 5.76 12.3 5.48C12.81 5.23 13.32 4.99 13.72 4.84C13.93 4.66 13.55 4.84 13.42 4.91L13.38 4.97C12.87 5.22 13.18 4.81 12.27 5.47C12.02 5.27 13.59 4.52 14.45 4.04C14.43 4 12.97 4.64 12.97 4.64C13.23 4.42 13.51 4.2 13.8 3.99C14.1 3.78 14.44 3.62 14.77 3.45C15.45 3.1 16.17 2.77 16.93 2.55C17.68 2.3 18.43 2.07 19.18 1.95C19.92 1.8 20.62 1.62 21.28 1.56C20.52 1.75 19.89 1.86 20.03 2.07C20.83 1.9 21.19 1.92 21.53 1.86C21.88 1.82 22.23 1.76 23.03 1.67H22.89C23.72 1.49 24.87 1.68 25.41 1.43C25.04 1.31 24.22 1.62 24.19 1.34C24.19 1.34 24.7 1.32 25.22 1.3C25.73 1.3 26.25 1.35 26.25 1.35C25.61 1.1 24.19 1.35 23.4 1.35C22.83 1.39 24.54 1.33 24.28 1.52C23.32 1.55 22.74 1.55 22.27 1.56C21.8 1.56 21.44 1.5 20.94 1.44C20.32 1.34 21.75 1.12 22.11 1.06C22.74 1.08 23.51 1.15 24.36 1.16C25.21 1.13 26.13 1.19 27.09 1.18C27.09 1.18 28.17 1.03 28.17 1.06C29.09 1.4 28.64 1.68 30.32 1.92C30.32 1.91 29.85 1.68 29.85 1.68C30.23 1.67 30.47 1.73 30.65 1.77C29.96 1.46 29.18 1.28 28.53 1.04C29.04 0.97 29.75 1.09 30.48 1.33C31.21 1.61 31.97 1.93 32.65 2.16C32.6 2.08 32.11 1.96 31.98 1.84C32.52 1.94 33.02 2.15 33.52 2.36C34.02 2.58 34.52 2.77 34.97 3.04C35.86 3.59 36.72 4.05 37.39 4.53C38.06 4.76 36.26 3.75 36.64 3.76C37.37 4.23 38.3 4.63 38.4 4.9C38.31 4.69 38.75 4.93 39.03 5.13C39.3 5.34 39.46 5.43 38.84 4.85C41.59 6.5 43.94 9.24 45.52 11.99C45.51 11.81 45.57 11.77 45.68 11.86C45.41 11.39 44.98 10.87 44.66 10.35C44.49 10.09 44.34 9.84 44.22 9.62C44.08 9.41 43.96 9.23 43.9 9.08C44.52 9.5 44.8 10.54 45.01 10.64C44.84 10.31 44.41 9.72 44.5 9.63C45.19 10.29 45.33 10.85 45.7 11.39L45.43 11.14C45.95 12.03 45.95 12.36 46.04 12.65C46.1 12.96 46.28 13.21 46.78 14.16C47.27 14.79 46.9 14.09 47.08 13.98C47.23 14.47 48.17 15.87 48.1 16.47C48.1 16.47 47.98 16.16 47.87 15.86C47.82 15.7 47.74 15.56 47.69 15.45C47.64 15.34 47.6 15.27 47.6 15.27C47.94 16.12 48.18 16.96 48.35 17.57C48.37 17.49 48.39 17.43 48.35 17.24C48.57 17.93 48.77 18.85 48.74 19.24L49 19.39C48.79 18.99 48.48 17.74 48.48 17.5C48.75 17.55 48.95 18.87 49.11 19.42C48.97 18.8 48.88 18.32 48.82 17.93C48.73 17.55 48.66 17.24 48.59 16.94C48.43 16.36 48.37 15.78 47.8 14.84L47.9 15.2C47.53 14.62 47.26 13.99 47.01 13.37C46.71 12.78 46.43 12.19 46.11 11.68C46.32 11.94 46.43 11.96 46.37 11.8C44.79 9.68 43.18 7.59 40.76 5.78L40.16 5.06L40.02 5.16C38.79 4.35 39.91 4.76 39.11 4.24C39.42 4.43 39.35 4.42 39.39 4.5C38.03 3.43 38.49 4.13 37.7 3.58C38 3.97 39.25 4.59 38.76 4.57C37.45 3.46 35 2.44 34.91 2C34.14 1.77 33.35 1.46 32.53 1.22C31.69 1.02 30.86 0.73 30.01 0.57C29.16 0.43 28.33 0.22 27.53 0.16C26.73 0.1 25.98 0.02 25.3 0C24.93 0.09 25.53 0.04 25.39 0.11C24.86 0.02 23.96 0.11 23.2 0.19C22.44 0.28 21.83 0.47 21.81 0.35C21.31 0.48 21.12 0.67 20.99 0.74C20.3 0.71 19.51 0.93 18.66 1.1L19.29 1L19.23 1.04L18.34 1.19L18.37 1.17C16.29 1.75 14 2.76 12.24 3.66C13.28 3.19 12.13 4.02 12.62 3.81C12.12 3.93 11.32 4.27 10.54 4.85C10.14 5.13 9.72 5.42 9.31 5.74C8.93 6.09 8.55 6.44 8.19 6.77C8.24 6.81 8.17 6.96 8.38 6.84C8.38 6.84 7.45 7.49 7.47 7.52L7.63 7.47C6.29 8.96 4.63 10.47 4.08 11.73C4.54 11.04 4.6 11.08 4.74 11.08C4.36 11.69 3.99 12.28 3.6 12.9C3.21 13.52 2.9 14.21 2.47 14.95C2.53 14.88 2.57 14.83 2.6 14.84C2.42 15.24 2.15 15.7 1.97 16.12L2.1 16.24C1.92 16.63 1.75 17.09 1.57 17.58C1.41 18.07 1.28 18.59 1.09 19.06C1.15 19.28 0.89 19.86 0.75 20.56C0.59 21.26 0.39 22.06 0.35 22.66C0.27 23.11 0.63 21.7 0.51 22.96C0.14 23.11 0.42 24.6 0.03 24.69C0.03 24.69 0.04 24.97 0.08 25.25C0.13 25.53 0.18 25.81 0.18 25.81L0 26.06C0.42 26.99 -0.14 27.53 0.22 28.93C0.25 28.85 0.24 28.7 0.28 28.77C0.31 29.23 0.45 30.29 0.23 29.49C0.26 29.68 0.3 29.98 0.35 30.31C0.43 30.63 0.52 30.98 0.59 31.27C0.74 31.85 0.86 32.19 0.81 31.6C0.73 31.71 0.54 30.65 0.48 30.2C0.64 30.23 0.87 31.34 1.11 31.57C1.11 31.61 1.11 31.76 1.11 31.87L1.25 32C1.31 32.72 1.59 33.38 1.79 34.01C1.9 34.33 2 34.63 2.08 34.92C2.18 35.21 2.28 35.47 2.33 35.73C2.4 35.76 2.55 35.97 2.75 36.42L2.57 36.53C2.57 36.53 2.74 36.87 2.9 37.21C3.08 37.55 3.29 37.87 3.29 37.87L3.19 37.11C3.63 37.81 3.94 38.44 4.22 39.06C4.5 39.67 4.84 40.22 5.22 40.79C5.46 40.83 5.82 41.39 6.33 41.97C6.82 42.56 7.37 43.27 7.93 43.53C7.93 43.53 7.75 43.33 7.57 43.14C7.39 42.94 7.24 42.72 7.24 42.72C8.83 44.35 9.23 44.44 10.86 45.78C10.1 45.27 9.74 45.03 9.27 44.72C8.84 44.37 8.31 43.98 7.25 43.17C8.28 44.01 9.06 44.86 9.96 45.53C10.4 45.87 10.82 46.25 11.3 46.55C11.78 46.85 12.29 47.13 12.83 47.41C12.73 47.25 12.24 46.89 12.79 47.13C13.08 47.58 14.82 48.15 14.4 48.2C15.11 48.46 15.3 48.36 15.73 48.5C15.73 48.5 16.3 48.78 16.86 49.05C17.15 49.19 17.43 49.33 17.65 49.43C17.86 49.54 18.02 49.58 18.02 49.58L17.96 49.52C20.09 49.86 22.01 50.34 24.01 50.52C24.51 50.57 25.01 50.64 25.51 50.67H27.04C28.07 50.7 29.11 50.49 30.17 50.29L30.07 50.19C30.07 50.19 30.34 50.19 30.62 50.19C30.89 50.16 31.16 50.13 31.16 50.13C30.31 50.24 31.49 49.9 31.53 49.79L32.9 49.56C33.58 49.41 34.25 49.21 34.25 49.21C34.27 49.1 34.05 48.95 33.43 49.22L33.36 49.24ZM2.76 36.48L2.49 35.89C2.42 35.78 2.36 35.66 2.32 35.52L2.49 35.89C2.66 36.18 2.84 36.36 2.76 36.48ZM33.38 1.56C33.64 1.76 32.96 1.43 32.75 1.38L33.72 1.76C33.87 1.76 33.52 1.63 33.38 1.56ZM3.93 35.85L4.2 36.1L4.29 36.54L3.92 35.85H3.93ZM9.16 42.76L8.57 42.12L8.64 42.15L9.22 42.78L9.15 42.76H9.16ZM17.02 48.77C17.02 48.77 16.93 48.72 16.86 48.68C16.91 48.7 16.97 48.73 17.02 48.77C17.65 49.11 17.98 48.97 18.47 49.33C17.72 49.37 17.37 48.97 17.02 48.77ZM4.55 39.15C4.41 38.87 4.35 38.74 4.22 38.56C4.23 38.74 4.45 39.33 4.19 38.96C4.11 38.64 3.58 37.73 3.7 37.65C4.05 38.5 4.7 38.84 4.55 39.15ZM1.26 18.62L1.22 18.84L1.53 18.06L1.26 18.61V18.62ZM2.68 15.02C3.06 14.69 3.48 13.59 3.95 12.92C3.93 12.66 3.32 13.28 2.94 14.17C2.33 15.13 2.97 14.65 2.67 15.02H2.68ZM9.4 44.13L9.31 43.88L9.48 44.01L8.88 43.35C9.82 44.03 10.32 44.73 10.76 45.14C10.34 44.82 9.4 43.73 9.4 44.12V44.13ZM7.28 8.25C7.88 7.68 9.1 6.84 9.07 7.01C8.96 6.81 7.99 7.51 7.74 7.78C7.61 7.95 7.49 8.05 7.28 8.25ZM7.57 8.58C6.71 9.38 6.54 9.34 5.84 9.94C6.14 9.43 6.43 9.18 6.64 9.08C6.84 8.98 6.95 9.01 6.95 9.1C7.57 8.57 7.36 8.59 7.63 8.25L7.58 8.58H7.57ZM6.25 9.06C6.25 9.06 5.96 9.45 5.96 9.46C5.69 9.99 5.83 10.23 5.14 10.72L5.96 9.46C6.02 9.34 6.1 9.2 6.25 9.06ZM14.12 2.86L13.64 3C14.08 2.79 14.15 2.8 14.12 2.86L14.52 2.74C13.6 3.28 14.05 2.97 14.12 2.86ZM7.93 7.36L6.94 8.37C7.08 8.39 7.61 7.68 7.93 7.36ZM13.93 3.18C13.39 3.43 12.12 4.31 12.28 4.17C12.34 4.01 13.54 3.24 13.93 3.18ZM42.43 7.66L41.79 7.06L42.22 7.22L42.43 7.65V7.66ZM33.77 2.35H34L34.47 2.53L33.77 2.35ZM24.54 0.88C24.54 0.88 24.56 0.8 24.48 0.76C24.34 0.76 24.21 0.74 24.15 0.71C24.28 0.71 24.4 0.73 24.48 0.76C24.86 0.78 25.42 0.71 25.68 0.7C25.53 0.59 24.94 0.63 24.72 0.6C25.15 0.46 25.86 0.58 26.38 0.67C26.9 0.75 27.25 0.77 26.99 0.48C27.18 0.52 27.56 0.6 27.88 0.67C28.18 0.77 28.37 0.86 28.15 0.88C27.66 0.78 26.94 0.79 26.25 0.77C25.91 0.77 25.57 0.76 25.27 0.77C24.97 0.8 24.72 0.84 24.53 0.88C24.49 0.91 24.41 0.94 24.24 0.95C24.29 0.93 24.4 0.9 24.53 0.88H24.54ZM12.62 4.62C12.31 4.79 12.17 4.86 12.1 4.88C11.81 5 11.59 5.09 11.62 4.97C12.28 4.62 11.92 4.93 12.1 4.88C12.27 4.8 12.45 4.72 12.62 4.62ZM10.81 5.91L11.8 5.3L11.26 5.55C11.26 5.55 11.64 5.32 12.03 5.13C12.43 4.95 12.83 4.78 12.83 4.78C12.02 5.35 11.03 5.94 10.81 5.91ZM10.55 6.24L10.28 6.28L10.66 6.17L10.56 6.24H10.62C10.62 6.24 10.52 6.3 10.37 6.4C10.22 6.5 10.02 6.64 9.84 6.8C9.47 7.11 9.1 7.42 9.1 7.42C9.1 7.42 9.46 7.11 9.81 6.8C9.98 6.64 10.17 6.49 10.32 6.4C10.46 6.3 10.56 6.23 10.56 6.23L10.55 6.24ZM1.16 23.16C1.38 23.54 1.46 23.12 1.57 22.56C1.71 22.01 1.83 21.32 1.97 21.15C1.83 21.05 1.7 20.27 1.42 22.16C1.52 20.51 1.86 21.2 1.65 20.16C1.54 20.94 1.29 21.87 1.25 22.01L1.37 21.08C1.03 21.57 1.24 22.52 1.15 23.16H1.16ZM2.48 33.05L2.89 34.21L2.53 33.11L2.48 33.06V33.05ZM25.65 49.23C25.57 49.13 27.11 48.85 27.5 49.04C26.72 49.11 25.85 49.14 25.65 49.23ZM37.94 45.72C37.94 45.72 37.64 45.88 37.33 46.04C37.18 46.12 37.03 46.2 36.91 46.26C36.8 46.32 36.71 46.35 36.71 46.35C36.83 46.02 37.76 45.73 38.29 45.37C38.55 45.36 38.07 45.55 37.93 45.73L37.94 45.72ZM44.53 39.78L44.82 39.45L44.35 39.67L44.53 39.78ZM43.92 40.06C43.96 39.92 43.83 40.02 43.68 40.19C43.51 40.34 43.31 40.54 43.25 40.63C43.25 40.63 43.42 40.49 43.6 40.36C43.78 40.23 43.93 40.07 43.93 40.07L43.92 40.06ZM47.57 33.1L47.39 33.63L47.77 33.23L47.57 33.1ZM47.5 34.03C47.3 34.09 47.18 33.98 46.7 35.18C46.83 35.3 46.98 34.98 46.94 35.5C47.16 35.13 47.25 34.78 47.33 34.58C47.18 34.83 47.09 35.17 46.96 35.2C47.12 34.74 47.35 34.3 47.49 34.03C47.56 34.01 47.63 33.96 47.71 33.81C47.66 33.8 47.58 33.88 47.49 34.03H47.5ZM45.47 38.3C45.39 38.46 45.34 38.6 45.32 38.67L45.24 38.71C45.29 38.53 45.38 38.4 45.47 38.3C45.56 38.12 45.65 37.93 45.75 37.72C45.71 37.52 45.17 38.24 44.98 38.39C45.23 38.06 45.54 37.81 45.76 37.29C45.69 37.33 45.7 37.26 45.52 37.56L45.89 36.89C46.52 36.23 46.13 36.98 45.75 37.73C45.76 37.77 45.75 37.84 45.7 37.99C45.65 38.12 45.55 38.2 45.46 38.3H45.47ZM48.49 32.75L48.3 33.14C48.17 33.33 48.17 33.18 48.1 33.24C48.28 32.77 48.6 32.18 48.48 32.75H48.49ZM29.8 49.11C30.08 49.03 29.39 48.97 28.76 49.11L29.07 48.85C29.1 48.97 30.39 48.8 30.52 48.74C30.78 48.87 30.28 48.94 29.8 49.12V49.11ZM4.1 37.03C4.17 36.72 3.36 35.29 3.25 34.93C3.46 35.31 3.79 35.92 4.01 36.4C4.22 36.88 4.39 37.19 4.1 37.02V37.03ZM2.75 34.48C2.6 34.05 2.53 33.94 2.67 33.93C2.65 33.7 2.46 33.39 2.43 33.16C2.84 33.95 2.63 33.97 2.75 34.47C2.79 34.58 2.83 34.71 2.9 34.86C2.81 34.7 2.77 34.58 2.75 34.47V34.48ZM14.68 47.16L15.15 47.6C15.15 47.6 16.02 48 16.03 47.98C16.03 47.98 15.94 47.94 15.81 47.87C15.68 47.79 15.52 47.69 15.35 47.58C15.02 47.37 14.69 47.16 14.69 47.16H14.68ZM24.48 49.94C24.41 49.82 25.5 49.9 25.73 49.91C25.66 49.79 24.93 49.79 24.34 49.73C24.27 49.71 24.14 49.7 23.96 49.69C24.08 49.7 24.2 49.71 24.34 49.73C24.56 49.77 24.4 49.84 24.4 49.89L24.11 49.92L24.92 50L24.48 49.94ZM41.39 44.35C41.81 43.82 41.89 43.8 42.25 43.53C42.18 43.67 41.75 44.08 41.39 44.35ZM19.04 49.27C20.14 49.48 18.58 48.93 19.3 49.04L18.74 48.91C19.69 49 19.35 49.24 20 49.36L19.56 49.28C19.19 49.33 20.2 49.54 20.26 49.67C19.74 49.6 18.6 49.19 19.04 49.28V49.27ZM42.22 43.72C42.93 42.86 43.02 43.24 43.49 42.75C42.97 43.49 42.85 43.18 42.22 43.72ZM26 50.51L25.93 50.54L26.85 50.57L26.92 50.54L26 50.51Z" fill="#BEBEBE"/>
<path d="M42.1904 41.7598C42.3504 41.5598 42.4704 41.4298 42.5704 41.3398C42.4504 41.4798 42.3304 41.6198 42.1904 41.7598Z" fill="#BEBEBE"/>
<path d="M2.79992 31.69C2.79992 31.69 2.71992 31.6 2.66992 31.48C2.68992 31.48 2.72992 31.54 2.79992 31.69Z" fill="#BEBEBE"/>
<path d="M2.39965 29.7003C2.39965 29.7003 2.39965 29.6503 2.38965 29.6203C2.38965 29.6003 2.38965 29.5803 2.38965 29.5503V29.6903L2.39965 29.7003Z" fill="#BEBEBE"/>
<path d="M48.0305 17.5899C48.0105 18.0599 47.8605 17.1999 47.7305 16.8599C47.8505 17.1899 48.0205 17.2799 48.0305 17.5899Z" fill="#BEBEBE"/>
<path d="M47.25 14.8701C47.3 15.0901 47.39 15.3701 47.54 15.7101C47.43 15.5001 47.34 15.2701 47.25 14.8701Z" fill="#BEBEBE"/>
<path d="M48.06 17.0402C47.83 16.5402 47.67 16.0902 47.54 15.7202C47.68 16.0502 47.84 16.3202 48.06 17.0402Z" fill="#BEBEBE"/>
<path d="M42.9404 8.62012C43.1604 9.02012 43.7804 9.62012 43.7804 9.62012C42.4504 8.32012 43.9004 10.0201 43.8904 10.2101C43.1904 9.31012 43.2604 9.24012 42.9404 8.63012V8.62012Z" fill="#BEBEBE"/>
<path d="M41.2002 6.85986C41.3402 6.98986 41.4802 7.10986 41.6002 7.18986C41.4502 7.08986 41.3202 6.97986 41.2002 6.85986Z" fill="#BEBEBE"/>
<path d="M40.6103 6.47984C40.1103 6.06984 40.0003 5.83984 39.8203 5.58984C40.5003 5.99984 40.8003 6.42984 41.2003 6.85984C40.8703 6.53984 40.5203 6.25984 40.6103 6.47984Z" fill="#BEBEBE"/>
<path d="M22.12 1.88995C22.26 1.88995 22.61 1.82995 22.62 1.88995L21.58 2.04995C21.16 2.06995 21.9 1.92995 22.11 1.87995L22.12 1.88995Z" fill="#BEBEBE"/>
<path d="M18.2302 2.39014C17.4302 2.67014 17.9002 2.69014 17.4802 2.80014L17.4502 2.56014L18.2302 2.39014Z" fill="#BEBEBE"/>
<path d="M18.3601 1.1401L18.6201 1.1001C18.5201 1.1201 18.4301 1.1401 18.3301 1.1701L18.3601 1.1501V1.1401Z" fill="#BEBEBE"/>
<path d="M14.5596 4.18016L15.1996 4.16016C14.5396 4.40016 14.4296 4.23016 14.5596 4.18016Z" fill="#BEBEBE"/>
<path d="M11.9103 5.97977L12.3503 5.75977L11.0703 6.60977L11.9103 5.97977Z" fill="#BEBEBE"/>
<path d="M8.86004 8.34994L8.80004 8.47994L8.04004 9.21994C8.04004 9.21994 8.84004 8.32994 8.87004 8.34994H8.86004Z" fill="#BEBEBE"/>
<path d="M12.4604 45.07C12.4604 45.38 11.1204 44.3 10.6904 44.03C11.1404 44 11.7104 44.96 12.4604 45.07Z" fill="#BEBEBE"/>
<path d="M41.1696 42.8398C41.1696 42.8398 40.8596 43.0998 40.5496 43.3698C40.2296 43.6198 39.8896 43.8498 39.8896 43.8498C40.8396 43.0198 40.1796 43.6498 41.1696 42.8498V42.8398Z" fill="#BEBEBE"/>
<path d="M18.2604 47.7201C15.9804 47.4501 13.5904 46.5301 12.5604 45.2801C11.3704 38.1701 11.1504 33.6601 11.1504 28.7201C11.1504 22.1501 11.5304 14.5501 11.5304 3.58008C13.4904 3.58008 19.7804 6.02008 20.1104 7.00008C18.6504 11.0201 18.0504 20.5701 18.0504 29.2601C18.0504 35.8301 18.2704 39.1401 18.8604 42.6201C24.8904 24.2101 35.3104 4.39008 38.6804 4.07008C40.2504 4.34008 42.4304 6.08008 43.0804 7.65008C34.9904 10.4701 22.6104 38.4901 20.9304 47.0701C20.1204 47.5001 19.1904 47.7201 18.2704 47.7201H18.2604Z" fill="white"/>
</svg>
