<svg width="190" height="70" viewBox="0 0 190 70" fill="none" xmlns="http://www.w3.org/2000/svg">
<path fill-rule="evenodd" clip-rule="evenodd" d="M182.901 36.121C177.3 37.2456 171.909 40.4171 167.377 44.3474C167.266 40.8536 166.961 35.3659 166.961 35.3659C166.93 34.8338 166.51 34.4047 165.979 34.3639C165.446 34.323 164.966 34.6824 164.855 35.2043C164.855 35.2043 164.317 37.7546 163.336 39.794C163.043 40.4051 162.713 40.9706 162.333 41.3774C162.118 41.6096 161.911 41.8102 161.65 41.8102C160.938 41.8102 160.719 41.1796 160.642 40.4989C160.522 39.4392 160.797 38.1595 161.253 37.2726C161.524 36.7497 161.318 36.108 160.795 35.8386C160.355 35.6111 159.842 35.7365 159.526 36.0894C159.5 36.1145 159.469 36.1265 159.446 36.1544C158.122 37.7713 156.082 40.0271 153.678 41.4183C152.209 42.268 150.602 42.7993 148.944 42.5504C148.272 42.4501 147.823 41.9012 147.405 41.2808C146.821 40.4153 146.348 39.3649 145.845 38.4947C144.869 36.8054 143.67 35.8136 142.079 36.2835C141.555 36.4377 140.889 37.0172 140.309 37.8558C140.119 38.1325 139.93 38.4353 139.75 38.7455C139.336 37.7248 138.672 36.7209 137.662 36.081C137.281 35.8386 136.806 35.8749 136.462 36.1284C136.41 36.1563 136.353 36.1683 136.304 36.2064C131.354 40.015 127.046 42.4426 123.736 43.532C121.769 44.1802 120.204 44.3688 119.131 43.9824C118.344 43.6992 117.813 43.2757 117.486 42.7658C117.583 42.7157 117.675 42.6479 117.756 42.5634C118.709 41.5817 119.401 41.1842 120.021 40.8091C120.801 40.3373 121.486 39.8924 122.323 38.7863C122.805 38.1483 123.199 36.915 123.048 35.8433C122.925 34.9731 122.482 34.2125 121.624 33.7955C120.921 33.4537 120.078 33.4835 119.205 33.9051C118.522 34.2348 117.802 34.8319 117.153 35.5963C117.077 35.6436 116.997 35.6836 116.933 35.7523C115.764 36.9902 113.613 39.4281 110.932 41.1155C108.476 42.6627 105.549 43.5952 102.568 42.0061C101.988 41.6969 101.56 41.1118 101.211 40.3521C101.093 40.093 100.984 39.8144 100.888 39.5172C101.298 38.8755 101.586 38.3266 101.708 38.0044C105.071 29.1557 107.2 22.2824 108.338 17.1903C109.404 12.4177 109.592 9.14314 109.161 7.22352C108.759 5.43112 107.818 4.58972 106.672 4.41884C106.016 4.32133 105.252 4.58693 104.525 5.38747C103.488 6.5307 102.334 9.01684 101.314 12.2366C99.0361 19.4331 97.2887 30.3714 98.2163 37.2345C98.3074 37.9115 98.4282 38.5504 98.5779 39.1457C98.0388 39.8785 97.3538 40.6623 96.6037 41.2548C95.7997 41.891 94.927 42.3739 94.0849 41.9402C93.8702 41.8306 93.7652 41.604 93.6964 41.3496C93.5802 40.9233 93.5914 40.4125 93.6852 39.8934C93.8144 39.182 94.1128 38.4604 94.5366 37.879C94.6658 37.7295 94.7848 37.5874 94.9047 37.4444C95.3127 37.0441 95.8072 36.7785 96.3899 36.8806C96.969 36.9819 97.522 36.5946 97.6233 36.016C97.7246 35.4374 97.337 34.8849 96.758 34.7836C95.7189 34.6016 94.7755 34.8747 93.9743 35.4458C93.8163 35.5108 93.6676 35.6009 93.5523 35.7421C93.4975 35.8089 93.4343 35.8832 93.3767 35.9519C93.1889 36.1405 93.0151 36.3504 92.8506 36.5714C91.5549 38.0675 89.8001 39.8386 87.7842 41.0059C86.3147 41.8557 84.7077 42.3869 83.0495 42.138C82.3775 42.0377 81.9286 41.4889 81.5104 40.8685C80.9267 40.0029 80.4536 38.9526 79.9508 38.0824C78.9748 36.3931 77.7758 35.4012 76.1846 35.8712C75.6613 36.0253 74.9949 36.6048 74.415 37.4434C74.2244 37.7202 74.0357 38.0229 73.8554 38.3331C73.4418 37.3125 72.7773 36.3086 71.7679 35.6687C71.3403 35.3975 70.805 35.4857 70.4592 35.8284C70.4378 35.8461 70.4118 35.8535 70.3914 35.873C68.9182 37.3404 65.614 41.5214 60.1897 40.1738C59.3207 39.9574 58.3178 39.2544 57.4795 38.3842C56.6513 37.5233 55.9691 36.4915 55.8232 35.5201C55.7479 35.0177 55.3278 34.6388 54.8203 34.6146C54.3128 34.5905 53.8583 34.9276 53.7356 35.4198C53.7356 35.4198 52.9828 38.4585 51.6574 40.4719C51.3562 40.9289 51.03 41.331 50.6638 41.5984C50.3273 41.8446 49.95 41.9328 49.5364 41.7015C49.5197 41.6783 49.4518 41.5845 49.4193 41.5195C49.3208 41.3189 49.2501 41.0672 49.2092 40.7886C49.001 39.3538 49.633 37.2521 52.2234 36.8751C52.8062 36.7906 53.2096 36.2501 53.125 35.6678C53.0404 35.0864 52.4985 34.6833 51.9167 34.7679C51.3219 34.8542 50.7986 35.0028 50.3283 35.1923C50.2548 35.1988 50.1824 35.1923 50.1099 35.2146C46.432 36.3578 41.5208 36.759 34.8752 36.641C35.7303 20.7092 36.0538 5.19059 35.7173 1.955C35.656 1.37084 35.1327 0.94457 34.5472 1.00586C33.9625 1.06623 33.5359 1.59002 33.5963 2.1751C33.9309 5.38655 33.6028 20.7807 32.7487 36.5881C29.5597 36.486 26.0111 36.2844 22.0293 35.9975C18.6461 35.7532 15.789 35.8034 13.3687 36.0569C13.8669 26.1542 15.0278 12.8533 17.6879 4.04179C17.858 3.47899 17.5382 2.88463 16.9759 2.71467C16.4117 2.54472 15.8178 2.86419 15.6477 3.42699C12.9086 12.5013 11.7273 26.2693 11.2273 36.3531C5.5632 37.3357 2.74976 39.5404 1.24498 41.3579C0.869482 41.8102 0.932684 42.4816 1.38626 42.8568C1.8389 43.232 2.51089 43.1679 2.88639 42.7157C4.17553 41.161 6.54377 39.4049 11.1269 38.5272C10.9326 43.0974 10.8815 46.6719 10.8759 48.3083C10.8741 48.8962 11.35 49.3745 11.9383 49.3763C12.5266 49.3791 13.0053 48.9027 13.0072 48.3148C13.0127 46.6469 13.0639 42.9358 13.2683 38.2115C15.6273 37.9412 18.45 37.8725 21.876 38.1205C25.8605 38.4084 29.4212 38.6062 32.6325 38.7065C32.1445 47.2802 31.5032 55.8206 30.7299 62.4543C30.6611 63.0375 31.0803 63.5669 31.6649 63.6347C32.2486 63.7025 32.7784 63.2845 32.8463 62.7004C33.6261 56.0128 34.2692 47.4019 34.7591 38.7575C39.9342 38.8458 44.0963 38.6294 47.4646 38.0267C47.0501 39.0584 46.9665 40.1655 47.1012 41.0951C47.276 42.2931 47.8578 43.1921 48.448 43.5329C49.9937 44.4291 51.3888 43.9685 52.559 42.7584C53.5581 41.7257 54.3621 40.0484 54.9198 38.6155C55.2228 39.0519 55.5694 39.4717 55.9449 39.8618C57.0882 41.0468 58.4926 41.9467 59.6767 42.2402C65.4253 43.6676 69.2454 40.0717 71.2465 38.0415C71.5513 38.4149 71.7772 38.8486 71.937 39.2758C72.3674 40.4227 72.3962 41.5325 72.3962 41.5325C72.4083 42.034 72.7689 42.4584 73.2624 42.5522C73.7551 42.646 74.2467 42.3832 74.4428 41.9216C74.4428 41.9216 75.2738 39.9519 76.1698 38.6535C76.3333 38.4167 76.4969 38.204 76.6586 38.0434C76.7079 37.9932 76.7916 37.9282 76.8194 37.9069C77.075 37.8465 77.2609 37.9979 77.4403 38.1901C77.8669 38.6461 78.2201 39.3343 78.5975 40.0503C79.1551 41.11 79.7472 42.2244 80.4963 43.0091C81.1237 43.6667 81.8598 44.1143 82.7354 44.2462C84.8741 44.5666 86.9607 43.9462 88.854 42.8503C89.7936 42.307 90.6803 41.643 91.5038 40.9372C91.5875 42.2402 92.1414 43.336 93.1108 43.8348C94.6937 44.6492 96.4197 44.1208 97.93 42.9246C98.4607 42.5049 98.9626 42.0052 99.419 41.4842C99.9785 42.6005 100.698 43.4233 101.568 43.8868C104.584 45.4943 107.563 45.1424 110.225 43.9239C111.976 43.1224 113.575 41.9328 114.941 40.7348C114.771 42.9191 115.661 44.9993 118.411 45.9875C119.806 46.489 121.849 46.397 124.404 45.5566C127.748 44.4561 132.082 42.0628 137.034 38.322C137.4 38.7213 137.653 39.2108 137.832 39.69C138.263 40.8369 138.291 41.9467 138.291 41.9467C138.303 42.4482 138.664 42.8726 139.158 42.9664C139.65 43.0602 140.142 42.7974 140.338 42.3358C140.338 42.3358 141.168 40.3661 142.065 39.0677C142.229 38.8309 142.392 38.6182 142.554 38.4576C142.603 38.4074 142.687 38.3424 142.715 38.3211C142.97 38.2607 143.156 38.4121 143.335 38.6043C143.762 39.0603 144.115 39.7485 144.493 40.4645C145.05 41.5242 145.642 42.6386 146.392 43.4233C147.019 44.0809 147.755 44.5285 148.631 44.6594C150.769 44.9798 152.856 44.3595 154.749 43.2636C156.126 42.4677 157.393 41.4183 158.502 40.3447C158.523 40.8053 158.589 41.2465 158.709 41.644C159.118 43.0073 160.053 43.9388 161.65 43.9406C162.761 43.9425 163.827 43.1382 164.648 41.8362C164.811 41.5752 164.967 41.2957 165.116 41.0041C165.21 43.0528 165.29 45.1489 165.289 46.2707C160.689 50.7573 157.221 55.8939 155.716 60.0406C154.998 62.0178 154.722 63.7898 154.912 65.1939C155.137 66.8693 155.98 68.0887 157.473 68.7109C159.481 69.5477 161.552 68.9793 163.294 66.4756C165.384 63.4703 167.049 57.2712 167.402 47.1419C171.918 42.9023 177.5 39.3789 183.324 38.2087C183.9 38.0926 184.274 37.5317 184.159 36.9549C184.043 36.3791 183.481 36.0049 182.904 36.121H182.901ZM100.215 35.9287C99.6095 29.295 101.263 19.4638 103.347 12.8802C104.128 10.4145 104.959 8.41225 105.768 7.24952C105.939 7.00249 106.105 6.80003 106.272 6.65329C106.316 6.61429 106.386 6.56785 106.425 6.54278C106.635 6.60593 106.77 6.8056 106.889 7.07678C107.056 7.45941 107.159 7.95812 107.212 8.57385C107.578 12.7799 105.591 21.5766 100.215 35.9287ZM118.223 37.7174C118.702 36.9837 119.273 36.3624 119.846 35.9872C120.025 35.8712 120.201 35.7801 120.373 35.73C120.489 35.6947 120.597 35.6668 120.694 35.7142C120.942 35.834 120.955 36.12 120.952 36.3792C120.946 36.8091 120.808 37.2568 120.622 37.5047C120.004 38.322 119.491 38.6415 118.917 38.9907C118.396 39.3064 117.833 39.638 117.147 40.2193C117.329 39.3454 117.737 38.4632 118.224 37.7174H118.223ZM161.541 65.2599C160.542 66.6947 159.442 67.2241 158.29 66.7439C157.524 66.4254 157.137 65.767 157.021 64.9079C156.868 63.7777 157.139 62.3577 157.717 60.765C158.959 57.3446 161.614 53.2063 165.163 49.3884C164.695 57.5442 163.34 62.6716 161.541 65.259V65.2599Z" fill="#BEBEBE" stroke="#BEBEBE"/>
<path fill-rule="evenodd" clip-rule="evenodd" d="M188.951 35.9277C188.843 35.5535 188.565 35.1662 187.922 35.1597C187.794 35.1578 187.255 35.299 187.13 35.3334C186.618 35.3501 186.184 35.7429 186.131 36.2658C186.074 36.836 186.49 37.3458 187.06 37.4034C187.166 37.4146 188.404 37.3347 188.679 37.0115C189.109 36.5063 189 36.0949 188.951 35.9277Z" fill="#BEBEBE" stroke="#BEBEBE"/>
</svg>
