<svg width="203" height="23" viewBox="0 0 203 23" fill="none" xmlns="http://www.w3.org/2000/svg">
<path d="M170.818 0L181.979 11.5805L170.797 22.9753H180.816L186.894 16.6804L192.961 22.9753H202.98L191.819 11.5805L186.904 6.56233L180.474 0H170.818ZM193.344 0L187.68 5.77042L187.683 5.77341L192.592 10.7796L203 0H193.344Z" fill="#BEBEBE"/>
<path d="M28.4639 0V7.01036V15.9649C28.4639 19.8488 31.5559 22.9753 35.3972 22.9753H49.7518C53.5931 22.9753 56.6851 19.8488 56.6851 15.9649V0H49.6459V12.3118H49.6429V15.0262C49.6429 16.2376 48.6047 17.2124 47.3151 17.2124H37.8354C36.5457 17.2124 35.5076 16.2376 35.5076 15.0262V0H28.4646H28.4639Z" fill="#BEBEBE"/>
<path d="M150.096 0C146.254 0 143.163 3.12645 143.163 7.01036V15.9657C143.163 19.8496 146.254 22.976 150.096 22.976H165.948C169.789 22.976 172.881 19.8496 172.881 15.9657V7.01036C172.881 3.12645 169.789 0 165.948 0L150.096 0ZM146.837 5.76292H163.511C164.8 5.76292 165.838 6.7384 165.838 7.94912V15.0254C165.838 16.2361 164.8 17.2116 163.511 17.2116H152.534C151.244 17.2116 150.205 16.2369 150.205 15.0254V8.42337L146.837 5.76292Z" fill="#BEBEBE"/>
<path d="M87.415 0V22.9753H94.517L94.3453 5.85583L106.389 22.9753H117.781V0H110.679L110.85 17.1195L98.8755 0H87.415Z" fill="#BEBEBE"/>
<path d="M59.0264 0.0239258V10.3593V15.9896V17.3704V23H65.9671V17.3704H70.9801L77.5268 22.976H87.1738L80.186 17.27C83.4631 16.7088 85.9446 13.8394 85.9446 10.3608V9.65727V9.59733V7.03503C85.9446 3.15113 82.8526 0.024675 79.0113 0.024675H59.0279L59.0264 0.0239258ZM62.6072 5.76288L76.7126 5.78835C78.0022 5.78835 79.0411 6.76307 79.0411 7.97454V9.59733H79.0329C78.9381 10.7256 77.9411 11.609 76.7141 11.609H68.1829L65.9679 11.6187V9.59883V8.41808L62.6072 5.76362V5.76288Z" fill="#BEBEBE"/>
<path d="M0 0.0398117V1.02128V1.9016V22.9357H20.6566C24.9576 22.9357 26.3913 20.6468 26.3913 17.1465V15.281C26.3913 13.4492 25.7069 12.0437 24.3053 11.1281C25.5435 10.2126 26.2271 8.83853 26.2271 7.0719V5.50155C26.2271 1.83867 24.5009 0.0390625 19.9715 0.0390625H0V0.0398117ZM3.28902 5.37044H18.7012C19.9715 5.37044 20.5245 5.82746 20.5245 6.84189V7.55963C20.5245 8.5411 20.0028 9.03108 18.537 9.03108H6.64148V8.0174L3.28977 5.37119L3.28902 5.37044ZM3.33156 13.6357H18.5378C20.0043 13.6357 20.5581 14.1916 20.5581 15.2383V16.0002C20.5581 17.0469 20.0043 17.5046 18.7333 17.5046H6.64148V16.249L3.33231 13.6357H3.33156Z" fill="#BEBEBE"/>
<path d="M119.378 0V22.9753H126.342V15.0187H141.122V9.74872H126.342V8.03528L123.015 5.4063L141.979 5.41005V0.00149842L119.377 0H119.378Z" fill="#BEBEBE"/>
</svg>
