<svg width="500" height="795" viewBox="0 0 500 795" fill="none" xmlns="http://www.w3.org/2000/svg">
<g opacity="0.3">
<path d="M326.341 218.181L326.458 218.111L378.827 187.885V127.294L378.71 127.223L326.341 96.998L326.223 97.0686L273.855 127.294V187.885L273.972 187.956L326.341 218.181ZM378.357 187.627L326.341 217.664L274.301 187.627V127.552L326.341 97.5151L378.357 127.552V187.627Z" fill="#00A6FB"/>
<path d="M221.839 218.181L221.956 218.111L274.325 187.885V127.294L274.208 127.223L221.839 96.998L221.721 97.0686L169.353 127.294V187.885L169.47 187.956L221.839 218.181ZM273.855 187.627L221.839 217.664L169.823 187.627V127.552L221.839 97.5151L273.855 127.552V187.627Z" fill="#00A6FB"/>
<path d="M117.336 218.181L117.453 218.111L169.822 187.885V127.294L169.705 127.223L117.336 96.998L117.218 97.0686L64.8497 127.294V187.885L64.9673 187.956L117.336 218.181ZM169.376 187.627L117.336 217.664L65.3198 187.627V127.552L117.336 97.5151L169.376 127.552V187.627Z" fill="#00A6FB"/>
<path d="M0.000488281 210.237L12.8341 217.641L64.8503 187.603V127.552L12.8341 97.5152L0.000488281 104.919V104.378L12.7166 97.0451L12.8341 96.9746L65.2028 127.223L65.2969 127.27V187.885L12.9281 218.111L12.8341 218.181L0.000488281 210.778V210.237Z" fill="#00A6FB"/>
<path d="M378.615 308.669L378.733 308.598L431.102 278.373V217.782L430.984 217.711L378.615 187.486L378.498 187.556L326.129 217.782V278.373L326.247 278.444L378.615 308.669ZM430.631 278.115L378.615 308.152L326.576 278.115V218.04L378.615 188.003L430.631 218.04V278.115Z" fill="#00A6FB"/>
<path d="M274.09 308.669L274.207 308.598L326.576 278.373V217.782L326.459 217.711L274.09 187.486L273.972 187.556L221.604 217.782V278.373L221.721 278.444L274.09 308.669ZM326.13 278.115L274.09 308.152L222.074 278.115V218.04L274.09 188.003L326.13 218.04V278.115Z" fill="#00A6FB"/>
<path d="M169.587 308.669L169.705 308.598L222.073 278.373V217.782L221.956 217.711L169.587 187.486L169.469 187.556L117.101 217.782V278.373L117.218 278.444L169.587 308.669ZM221.603 278.115L169.587 308.152L117.547 278.115V218.04L169.587 188.003L221.603 218.04V278.115Z" fill="#00A6FB"/>
<path d="M65.085 308.669L65.2026 308.598L117.571 278.373V217.782L117.454 217.711L65.085 187.486L64.9675 187.556L12.5988 217.782V278.373L12.7163 278.444L65.085 308.669ZM117.101 278.115L65.085 308.152L13.0689 278.115V218.04L65.085 188.003L117.101 218.04V278.115Z" fill="#00A6FB"/>
<path d="M-0.000224113 285.401L12.5983 278.115V218.04L-0.000224113 210.778V210.237L12.9274 217.711L13.0449 217.782V278.373L-0.000224113 285.918V285.401Z" fill="#00A6FB"/>
<path d="M221.839 399.18L221.956 399.11L274.325 368.884V308.293L274.208 308.222L221.839 277.997L221.721 278.068L169.353 308.293V368.884L169.47 368.955L221.839 399.18ZM273.855 368.626L221.839 398.663L169.823 368.626V308.551L221.839 278.514L273.855 308.551V368.626Z" fill="#00A6FB"/>
<path d="M117.336 399.18L117.453 399.11L169.822 368.884V308.293L169.705 308.222L117.336 277.997L117.218 278.068L64.8497 308.293V368.884L64.9673 368.955L117.336 399.18ZM169.376 368.626L117.336 398.663L65.3198 368.626V308.551L117.336 278.514L169.376 308.551V368.626Z" fill="#00A6FB"/>
<path d="M0.000488281 391.236L12.8341 398.663L64.8503 368.626V308.551L12.8341 278.514L0.000488281 285.918V285.401L12.7166 278.044L12.8341 277.974L65.2028 308.222L65.2969 308.293V368.884L12.9281 399.11L12.8341 399.18L0.000488281 391.777V391.236Z" fill="#00A6FB"/>
<path d="M169.587 489.668L169.705 489.598L222.073 459.373V398.781L221.956 398.711L169.587 368.485L169.469 368.556L117.101 398.781V459.373L117.218 459.443L169.587 489.668ZM221.603 459.114L169.587 489.151L117.547 459.114V399.04L169.587 369.002L221.603 399.04V459.114Z" fill="#00A6FB"/>
<path d="M65.085 489.668L65.2026 489.598L117.571 459.373V398.781L117.454 398.711L65.085 368.485L64.9675 368.556L12.5988 398.781V459.373L12.7163 459.443L65.085 489.668ZM117.101 459.114L65.085 489.151L13.0689 459.114V399.04L65.085 369.002L117.101 399.04V459.114Z" fill="#00A6FB"/>
<path d="M-0.000224113 466.4L12.5983 459.114V399.039L-0.000224113 391.777V391.236L12.9274 398.71L13.0449 398.781V459.372L-0.000224113 466.917V466.4Z" fill="#00A6FB"/>
<path d="M117.336 580.18L117.453 580.109L169.822 549.884V489.292L169.705 489.222L117.336 458.997L117.218 459.067L64.8497 489.292V549.884L64.9673 549.954L117.336 580.18ZM169.376 549.625L117.336 579.663L65.3198 549.625V489.551L117.336 459.514L169.376 489.551V549.625Z" fill="#00A6FB"/>
<path d="M0.000488281 572.259L12.8341 579.663L64.8503 549.625V489.551L12.8341 459.514L0.000488281 466.917V466.4L12.7166 459.044L12.8341 458.997L65.2028 489.222L65.2969 489.292V549.884L12.9281 580.109L12.8341 580.18L0.000488281 572.776V572.259Z" fill="#00A6FB"/>
<path d="M-0.000224113 647.399L12.5983 640.113V580.062L-0.000224113 572.776V572.259L12.9274 579.733L13.0449 579.78V640.395L-0.000224113 647.916V647.399Z" fill="#00A6FB"/>
<path d="M221.603 795V761.061L169.587 731.024L117.571 761.061V795H117.101V760.803L169.469 730.554L169.587 730.483L221.956 760.732L222.073 760.803V795H221.603Z" fill="#00A6FB"/>
<path d="M117.101 795V761.061L65.085 731.024L13.0453 761.061V795H12.5988V760.803L64.9675 730.554L65.085 730.483L117.454 760.732L117.571 760.803V795H117.101Z" fill="#00A6FB"/>
<path d="M237.845 0V51.4018L304.764 90.0413L371.682 51.4018V0H374.032V52.765L304.764 92.7676L235.471 52.765V0H237.845Z" fill="#00A6FB"/>
<path d="M101.635 0V51.4018L168.553 90.0413L235.472 51.4018V0H237.846V52.765L168.553 92.7676L99.2613 52.765V0H101.635Z" fill="#00A6FB"/>
<path d="M99.2608 51.4018V0H101.635V52.765L32.3426 92.7676L-5.34058e-05 74.0825V71.3561L32.3426 90.0413L99.2608 51.4018Z" fill="#00A6FB"/>
<path d="M236.646 210.707L305.938 170.705V90.6994L236.646 50.6968L167.354 90.6994V170.705L236.646 210.707ZM303.564 169.342L236.646 207.981L169.728 169.342V92.0626L236.646 53.4232L303.564 92.0626V169.342Z" fill="#00A6FB"/>
<path d="M100.46 210.707L169.752 170.705V90.6994L100.46 50.6968L31.1676 90.6994V170.705L100.46 210.707ZM167.378 169.342L100.46 207.981L33.5415 169.342V92.0626L100.46 53.4232L167.378 92.0626V169.342Z" fill="#00A6FB"/>
<path d="M-0.000335693 187.345L31.167 169.365V92.0859L-0.000335693 74.0823V71.356L33.541 90.7227V170.728L-0.000335693 190.071V187.345Z" fill="#00A6FB"/>
<path d="M168.553 328.67L237.846 288.668V208.662L168.553 168.66L99.2613 208.662V288.668L168.553 328.67ZM235.472 287.304L168.553 325.944L101.635 287.304V210.026L168.553 171.386L235.472 210.026V287.304Z" fill="#00A6FB"/>
<path d="M-5.34058e-05 307.259L32.3426 325.944L99.2608 287.305V210.026L32.3426 171.41L-5.34058e-05 190.072V187.345L32.3426 168.684L101.635 208.663V288.668L32.3426 328.671L-5.34058e-05 309.986V307.259Z" fill="#00A6FB"/>
<path d="M-0.000335693 423.248L31.167 405.244V327.989L-0.000335693 309.985V307.259L33.541 326.626V406.607L-0.000335693 425.974V423.248Z" fill="#00A6FB"/>
<path d="M100.46 682.513L169.752 642.51V562.505L100.46 522.502L31.1676 562.505V642.51L100.46 682.513ZM167.378 641.147L100.46 679.787L33.5415 641.147V563.868L100.46 525.229L167.378 563.868V641.147Z" fill="#00A6FB"/>
<path d="M173.278 795L235.472 759.087V681.832L168.553 643.192L101.635 681.832V759.087L163.829 795H159.105L99.2613 760.474V680.468L168.553 640.466L237.846 680.468V760.474L178.002 795H173.278Z" fill="#00A6FB"/>
<path d="M32.3426 643.192L-5.34058e-05 661.877V659.151L32.3426 640.466L101.635 680.468V760.474L41.815 795H37.0906L99.2608 759.087V681.832L32.3426 643.192Z" fill="#00A6FB"/>
<path d="M3.8147e-06 779.041L27.6182 795H22.8937L3.8147e-06 781.791V779.041Z" fill="#00A6FB"/>
<path d="M159.104 795L100.459 761.155L41.8146 795H37.0901L100.459 758.405L163.828 795H159.104Z" fill="#00A6FB"/>
<path d="M3.8147e-06 779.041L27.6182 795H22.8937L3.8147e-06 781.791V779.041Z" fill="#00A6FB"/>
<path d="M483.118 120.196C487.09 120.196 490.334 123.416 490.334 127.411C490.334 131.407 487.114 134.627 483.118 134.627C479.122 134.627 475.902 131.407 475.902 127.411C475.902 123.416 479.122 120.196 483.118 120.196Z" fill="#00A6FB"/>
<path d="M430.867 221.965C428.634 221.965 426.801 220.155 426.801 217.899C426.801 215.643 428.611 213.833 430.867 213.833C433.124 213.833 434.934 215.643 434.934 217.899C434.934 220.155 433.124 221.965 430.867 221.965Z" fill="#00A6FB"/>
<path d="M430.867 99.3252C429.712 99.3252 428.775 98.3887 428.775 97.2334C428.775 96.0781 429.712 95.1416 430.867 95.1416C432.022 95.1416 432.959 96.0781 432.959 97.2334C432.959 98.3887 432.022 99.3252 430.867 99.3252Z" fill="#00A6FB"/>
<path d="M378.616 131.548C376.336 131.548 374.479 129.691 374.479 127.411C374.479 125.132 376.336 123.275 378.616 123.275C380.896 123.275 382.753 125.132 382.753 127.411C382.753 129.691 380.896 131.548 378.616 131.548Z" fill="#00A6FB"/>
<path d="M378.616 180.482C382.635 180.482 385.879 183.725 385.879 187.744C385.879 191.764 382.635 195.007 378.616 195.007C374.597 195.007 371.353 191.764 371.353 187.744C371.353 183.725 374.597 180.482 378.616 180.482Z" fill="#00A6FB"/>
<path d="M326.341 100.312C324.649 100.312 323.285 98.9488 323.285 97.2566C323.285 95.5644 324.649 94.2012 326.341 94.2012C328.033 94.2012 329.396 95.5644 329.396 97.2566C329.396 98.9488 328.033 100.312 326.341 100.312Z" fill="#00A6FB"/>
<path d="M274.089 133.052C270.987 133.052 268.448 130.537 268.448 127.411C268.448 124.285 270.963 121.771 274.089 121.771C277.215 121.771 279.73 124.285 279.73 127.411C279.73 130.537 277.215 133.052 274.089 133.052Z" fill="#00A6FB"/>
<path d="M274.09 194.466C270.377 194.466 267.368 191.457 267.368 187.744C267.368 184.032 270.377 181.022 274.09 181.022C277.803 181.022 280.812 184.032 280.812 187.744C280.812 191.457 277.803 194.466 274.09 194.466Z" fill="#00A6FB"/>
<path d="M221.839 100.759C219.888 100.759 218.313 99.1838 218.313 97.233C218.313 95.2822 219.888 93.7075 221.839 93.7075C223.789 93.7075 225.364 95.2822 225.364 97.233C225.364 99.1838 223.789 100.759 221.839 100.759Z" fill="#00A6FB"/>
<path d="M169.587 131.454C167.354 131.454 165.544 129.645 165.544 127.412C165.544 125.179 167.354 123.369 169.587 123.369C171.82 123.369 173.63 125.179 173.63 127.412C173.63 129.645 171.82 131.454 169.587 131.454Z" fill="#00A6FB"/>
<path d="M169.587 190.635C167.991 190.635 166.696 189.341 166.696 187.744C166.696 186.148 167.991 184.854 169.587 184.854C171.184 184.854 172.479 186.148 172.479 187.744C172.479 189.341 171.184 190.635 169.587 190.635Z" fill="#00A6FB"/>
<path d="M117.336 99.9596C115.832 99.9596 114.609 98.7374 114.609 97.2332C114.609 95.729 115.832 94.5068 117.336 94.5068C118.84 94.5068 120.062 95.729 120.062 97.2332C120.062 98.7374 118.84 99.9596 117.336 99.9596Z" fill="#00A6FB"/>
<path d="M65.0844 131.689C62.7104 131.689 60.8066 129.762 60.8066 127.411C60.8066 125.061 62.7339 123.134 65.0844 123.134C67.4349 123.134 69.3623 125.061 69.3623 127.411C69.3623 129.762 67.4349 131.689 65.0844 131.689Z" fill="#00A6FB"/>
<path d="M65.0847 192.61C62.3975 192.61 60.2192 190.432 60.2192 187.745C60.2192 185.058 62.3975 182.879 65.0847 182.879C67.7718 182.879 69.9502 185.058 69.9502 187.745C69.9502 190.432 67.7718 192.61 65.0847 192.61Z" fill="#00A6FB"/>
<path d="M12.834 101.323C10.5775 101.323 8.74413 99.4894 8.74413 97.2331C8.74413 94.9768 10.5775 93.1436 12.834 93.1436C15.0904 93.1436 16.9238 94.9768 16.9238 97.2331C16.9238 99.4894 15.0904 101.323 12.834 101.323Z" fill="#00A6FB"/>
<path d="M430.867 283.685C427.859 283.685 425.414 281.241 425.414 278.233C425.414 275.224 427.859 272.78 430.867 272.78C433.876 272.78 436.32 275.224 436.32 278.233C436.32 281.241 433.876 283.685 430.867 283.685Z" fill="#00A6FB"/>
<path d="M326.341 215.126C327.868 215.126 329.138 216.372 329.138 217.923C329.138 219.474 327.892 220.72 326.341 220.72C324.789 220.72 323.544 219.474 323.544 217.923C323.544 216.372 324.789 215.126 326.341 215.126Z" fill="#00A6FB"/>
<path d="M326.341 283.426C323.497 283.426 321.17 281.123 321.17 278.256C321.17 275.388 323.473 273.085 326.341 273.085C329.208 273.085 331.512 275.388 331.512 278.256C331.512 281.123 329.208 283.426 326.341 283.426Z" fill="#00A6FB"/>
<path d="M274.089 311.677C272.285 311.677 270.822 310.215 270.822 308.411C270.822 306.606 272.285 305.144 274.089 305.144C275.894 305.144 277.356 306.606 277.356 308.411C277.356 310.215 275.894 311.677 274.089 311.677Z" fill="#00A6FB"/>
<path d="M221.838 210.284C226.046 210.284 229.478 213.692 229.478 217.923C229.478 222.153 226.069 225.561 221.838 225.561C217.608 225.561 214.199 222.153 214.199 217.923C214.199 213.692 217.608 210.284 221.838 210.284Z" fill="#00A6FB"/>
<path d="M117.336 223.587C114.21 223.587 111.672 221.049 111.672 217.923C111.672 214.797 114.21 212.258 117.336 212.258C120.462 212.258 123.001 214.797 123.001 217.923C123.001 221.049 120.462 223.587 117.336 223.587Z" fill="#00A6FB"/>
<path d="M65.0844 314.052C61.9583 314.052 59.4433 311.513 59.4433 308.411C59.4433 305.308 61.9818 302.77 65.0844 302.77C68.187 302.77 70.7256 305.308 70.7256 308.411C70.7256 311.513 68.187 314.052 65.0844 314.052Z" fill="#00A6FB"/>
<path d="M117.336 284.907C113.67 284.907 110.685 281.922 110.685 278.256C110.685 274.589 113.67 271.604 117.336 271.604C121.003 271.604 123.988 274.589 123.988 278.256C123.988 281.922 121.003 284.907 117.336 284.907Z" fill="#00A6FB"/>
<path d="M12.8332 223.963C9.49553 223.963 6.76897 221.26 6.76897 217.899C6.76897 214.538 9.47202 211.835 12.8332 211.835C16.1944 211.835 18.8975 214.538 18.8975 217.899C18.8975 221.26 16.1944 223.963 12.8332 223.963Z" fill="#00A6FB"/>
<path d="M374.267 308.411C374.267 306.013 376.218 304.062 378.615 304.062C381.013 304.062 382.964 306.013 382.964 308.411C382.964 310.808 381.013 312.759 378.615 312.759C376.218 312.759 374.267 310.808 374.267 308.411Z" fill="#00A6FB"/>
<path d="M221.839 281.758C219.904 281.758 218.336 280.19 218.336 278.256C218.336 276.322 219.904 274.754 221.839 274.754C223.773 274.754 225.341 276.322 225.341 278.256C225.341 280.19 223.773 281.758 221.839 281.758Z" fill="#00A6FB"/>
<path d="M169.587 312.171C167.518 312.171 165.826 310.502 165.826 308.41C165.826 306.319 167.495 304.65 169.587 304.65C171.679 304.65 173.348 306.319 173.348 308.41C173.348 310.502 171.679 312.171 169.587 312.171Z" fill="#00A6FB"/>
<path d="M12.8341 402.636C10.783 402.636 9.12032 400.973 9.12032 398.922C9.12032 396.871 10.783 395.208 12.8341 395.208C14.8851 395.208 16.5479 396.871 16.5479 398.922C16.5479 400.973 14.8851 402.636 12.8341 402.636Z" fill="#00A6FB"/>
<path d="M65.0847 363.902C67.7643 363.902 69.9268 366.064 69.9268 368.744C69.9268 371.423 67.7643 373.585 65.0847 373.585C62.4052 373.585 60.2427 371.423 60.2427 368.744C60.2427 366.064 62.4052 363.902 65.0847 363.902Z" fill="#00A6FB"/>
<path d="M12.8334 282.886C10.2761 282.886 8.20296 280.813 8.20296 278.256C8.20296 275.699 10.2761 273.626 12.8334 273.626C15.3907 273.626 17.4639 275.699 17.4639 278.256C17.4639 280.813 15.3907 282.886 12.8334 282.886Z" fill="#00A6FB"/>
<path d="M274.089 363.173C277.169 363.173 279.684 365.665 279.684 368.767C279.684 371.87 277.192 374.361 274.089 374.361C270.987 374.361 268.495 371.87 268.495 368.767C268.495 365.665 270.987 363.173 274.089 363.173Z" fill="#00A6FB"/>
<path d="M227.645 398.922C227.645 402.118 225.059 404.727 221.839 404.727C218.619 404.727 216.033 402.142 216.033 398.922C216.033 395.702 218.619 393.117 221.839 393.117C225.059 393.117 227.645 395.702 227.645 398.922Z" fill="#00A6FB"/>
<path d="M169.588 492.912C167.653 492.912 166.085 491.344 166.085 489.41C166.085 487.476 167.653 485.908 169.588 485.908C171.522 485.908 173.09 487.476 173.09 489.41C173.09 491.344 171.522 492.912 169.588 492.912Z" fill="#00A6FB"/>
<path d="M221.838 463.815C219.32 463.815 217.279 461.773 217.279 459.255C217.279 456.737 219.32 454.695 221.838 454.695C224.357 454.695 226.398 456.737 226.398 459.255C226.398 461.773 224.357 463.815 221.838 463.815Z" fill="#00A6FB"/>
<path d="M169.588 373.609C166.901 373.609 164.722 371.431 164.722 368.744C164.722 366.057 166.901 363.878 169.588 363.878C172.275 363.878 174.453 366.057 174.453 368.744C174.453 371.431 172.275 373.609 169.588 373.609Z" fill="#00A6FB"/>
<path d="M117.336 466.165C113.519 466.165 110.425 463.071 110.425 459.255C110.425 455.439 113.519 452.345 117.336 452.345C121.152 452.345 124.246 455.439 124.246 459.255C124.246 463.071 121.152 466.165 117.336 466.165Z" fill="#00A6FB"/>
<path d="M65.0845 493.335C62.9221 493.335 61.1827 491.596 61.1827 489.433C61.1827 487.271 62.9221 485.532 65.0845 485.532C67.247 485.532 68.9863 487.271 68.9863 489.433C68.9863 491.596 67.247 493.335 65.0845 493.335Z" fill="#00A6FB"/>
<path d="M117.336 405.761C113.552 405.761 110.496 402.706 110.496 398.922C110.496 395.138 113.552 392.083 117.336 392.083C121.12 392.083 124.176 395.138 124.176 398.922C124.176 402.706 121.12 405.761 117.336 405.761Z" fill="#00A6FB"/>
<path d="M12.8339 462.357C11.1203 462.357 9.73125 460.968 9.73125 459.255C9.73125 457.541 11.1203 456.152 12.8339 456.152C14.5474 456.152 15.9365 457.541 15.9365 459.255C15.9365 460.968 14.5474 462.357 12.8339 462.357Z" fill="#00A6FB"/>
<path d="M169.587 667.189C171.374 667.189 172.808 668.623 172.808 670.409C172.808 672.195 171.374 673.629 169.587 673.629C167.801 673.629 166.367 672.195 166.367 670.409C166.367 668.623 167.801 667.189 169.587 667.189Z" fill="#00A6FB"/>
<path d="M169.587 553.503C167.518 553.503 165.826 551.811 165.826 549.743C165.826 547.675 167.518 545.982 169.587 545.982C171.655 545.982 173.348 547.675 173.348 549.743C173.348 551.811 171.655 553.503 169.587 553.503Z" fill="#00A6FB"/>
<path d="M117.336 572.564C121.403 572.564 124.693 575.855 124.693 579.921C124.693 583.987 121.403 587.278 117.336 587.278C113.27 587.278 109.979 583.987 109.979 579.921C109.979 575.855 113.27 572.564 117.336 572.564Z" fill="#00A6FB"/>
<path d="M65.0852 553.738C62.8758 553.738 61.0894 551.952 61.0894 549.743C61.0894 547.533 62.8758 545.747 65.0852 545.747C67.2947 545.747 69.0811 547.533 69.0811 549.743C69.0811 551.952 67.2947 553.738 65.0852 553.738Z" fill="#00A6FB"/>
<path d="M12.8334 585.914C9.51923 585.914 6.83968 583.235 6.83968 579.921C6.83968 576.607 9.51923 573.928 12.8334 573.928C16.1476 573.928 18.8271 576.607 18.8271 579.921C18.8271 583.235 16.1476 585.914 12.8334 585.914Z" fill="#00A6FB"/>
<path d="M12.8336 632.263C17.2525 632.263 20.8252 635.836 20.8252 640.254C20.8252 644.673 17.2525 648.245 12.8336 648.245C8.41467 648.245 4.84195 644.673 4.84195 640.254C4.84195 635.836 8.41467 632.263 12.8336 632.263Z" fill="#00A6FB"/>
<path d="M165.262 730.766C165.262 728.368 167.213 726.441 169.611 726.441C172.008 726.441 173.936 728.392 173.936 730.766C173.936 733.139 171.985 735.114 169.611 735.114C167.237 735.114 165.262 733.163 165.262 730.766Z" fill="#00A6FB"/>
<path d="M65.0844 676.073C61.9583 676.073 59.4433 673.535 59.4433 670.432C59.4433 667.33 61.9818 664.792 65.0844 664.792C68.187 664.792 70.7256 667.33 70.7256 670.432C70.7256 673.535 68.187 676.073 65.0844 676.073Z" fill="#00A6FB"/>
<path d="M65.0844 725.125C68.2105 725.125 70.7256 727.639 70.7256 730.765C70.7256 733.891 68.2105 736.406 65.0844 736.406C61.9583 736.406 59.4433 733.891 59.4433 730.765C59.4433 727.639 61.9583 725.125 65.0844 725.125Z" fill="#00A6FB"/>
<path d="M221.839 765.409C219.371 765.409 217.349 763.388 217.349 760.92C217.349 758.452 219.371 756.431 221.839 756.431C224.307 756.431 226.328 758.452 226.328 760.92C226.328 763.388 224.33 765.409 221.839 765.409Z" fill="#00A6FB"/>
<path d="M117.336 765.879C114.586 765.879 112.377 763.646 112.377 760.92C112.377 758.194 114.61 755.961 117.336 755.961C120.063 755.961 122.296 758.194 122.296 760.92C122.296 763.646 120.063 765.879 117.336 765.879Z" fill="#00A6FB"/>
<path d="M372.34 0V63.835L435.85 100.5L499.336 63.835V0H499.9V64.1641L435.991 101.064L435.85 101.135L371.917 64.2346L371.799 64.1641V0H372.34Z" fill="#00A6FB"/>
<path d="M244.779 0V63.835L308.289 100.5L371.799 63.835V0H372.34V64.1641L308.43 101.064L308.289 101.135L244.38 64.2346L244.239 64.1641V0H244.779Z" fill="#00A6FB"/>
<path d="M117.219 0V63.835L180.729 100.5L244.239 63.835V0H244.779V64.1641L180.87 101.064L180.729 101.135L116.819 64.2346L116.678 64.1641V0H117.219Z" fill="#00A6FB"/>
<path d="M116.678 63.835V0H117.219V64.1641L53.3091 101.064L53.1681 101.135L12.7868 77.8195V77.1849L53.1681 100.5L116.678 63.835Z" fill="#00A6FB"/>
<path d="M244.497 211.6L244.638 211.53L308.548 174.63V100.665L308.407 100.594L244.497 63.6938L244.356 63.7644L180.447 100.665V174.63L180.588 174.7L244.497 211.6ZM308.007 174.301L244.497 210.966L180.987 174.301V100.97L244.497 64.3049L308.007 100.97V174.301Z" fill="#00A6FB"/>
<path d="M116.96 211.6L117.101 211.53L181.011 174.63V100.665L180.87 100.594L116.96 63.6938L116.819 63.7644L52.9095 100.665V174.63L53.0505 174.7L116.96 211.6ZM180.47 174.301L116.96 210.966L53.4501 174.301V100.97L116.96 64.3049L180.47 100.97V174.301Z" fill="#00A6FB"/>
<path d="M12.7869 197.452L52.8861 174.301V100.97L12.7869 77.8196V77.1851L53.3092 100.571L53.4502 100.665V174.606L12.7869 198.086V197.452Z" fill="#00A6FB"/>
<path d="M180.729 322.066L180.87 321.996L244.779 285.095V211.13L244.638 211.06L180.729 174.16L180.588 174.23L116.678 211.13V285.095L116.819 285.166L180.729 322.066ZM244.239 284.766L180.729 321.432L117.219 284.766V211.436L180.729 174.771L244.239 211.436V284.766Z" fill="#00A6FB"/>
<path d="M12.7868 298.116L53.1681 321.408L116.678 284.766V211.436L53.1681 174.771L12.7868 198.086V197.452L53.0271 174.207L53.1681 174.136L117.078 211.036L117.219 211.107V285.072L53.3091 321.972L53.1681 322.066L12.7868 298.751V298.116Z" fill="#00A6FB"/>
<path d="M116.96 432.508L117.101 432.438L181.011 395.537V321.572L180.87 321.502L116.96 284.602L116.819 284.672L52.9095 321.572V395.537L53.0505 395.608L116.96 432.508ZM180.47 395.208L116.96 431.873L53.4501 395.208V321.878L116.96 285.213L180.47 321.878V395.208Z" fill="#00A6FB"/>
<path d="M12.7869 418.359L52.8861 395.208V321.902L12.7869 298.751V298.116L53.3092 321.502L53.4502 321.573V395.537L12.7869 419.017V418.359Z" fill="#00A6FB"/>
<path d="M180.729 763.905L180.87 763.834L244.779 726.934V652.969L244.638 652.899L180.729 615.999L180.588 616.069L116.678 652.969V726.934L116.819 727.005L180.729 763.905ZM244.239 726.605L180.729 763.27L117.219 726.605V653.275L180.729 616.61L244.239 653.275V726.605Z" fill="#00A6FB"/>
<path d="M12.7868 739.955L53.1681 763.27L116.678 726.605V653.275L53.1681 616.633L12.7868 639.925V639.29L53.0271 616.069L53.1681 615.975L117.078 652.875L117.219 652.969V726.934L53.3091 763.835L53.1681 763.905L12.7868 740.59V739.955Z" fill="#00A6FB"/>
<path d="M180.447 785.011V763.741L116.96 727.076L53.4501 763.741V785.011H52.886V763.412L116.819 726.511L116.96 726.441L180.87 763.341L181.011 763.412V785.011H180.447Z" fill="#00A6FB"/>
<path d="M12.7869 739.955L53.3092 763.341L53.4502 763.411V785.011H52.8861V763.741L12.7869 740.59V739.955Z" fill="#00A6FB"/>
<path d="M97.7797 0V75.0461L179.459 122.194L261.138 75.0461V0H264.029V76.7149L179.459 125.531L94.9121 76.7149V0H97.7797Z" fill="#00A6FB"/>
<path d="M94.9127 75.0461V0H97.7803V76.7149L13.2334 125.531L12.7868 125.296V121.959L13.2334 122.194L94.9127 75.0461Z" fill="#00A6FB"/>
<path d="M12.7866 121.959L14.667 123.04V220.673L12.7866 221.754V121.959Z" fill="#00A6FB"/>
<path d="M12.787 410.368L96.3467 362.139L180.917 410.956V508.588L96.3467 557.405L12.787 509.176V410.368ZM96.3467 554.091L178.026 506.943V412.624L96.3467 365.477L14.6674 412.624V506.943L96.3467 554.091Z" fill="#00A6FB"/>
<path d="M179.459 701.386L264.029 652.57V554.937L179.459 506.121L94.8886 554.937V652.57L179.459 701.386ZM261.138 650.901L179.459 698.049L97.7797 650.901V556.582L179.459 509.435L261.138 556.582V650.901Z" fill="#00A6FB"/>
<path d="M12.7868 697.79L13.2334 698.049L94.9127 650.901V556.582L13.2334 509.435L12.7868 509.67V506.356L13.2334 506.097L97.7803 554.914V652.57L13.2334 701.386L12.7868 701.128V697.79Z" fill="#00A6FB"/>
<path d="M12.787 785.011V698.284L96.3467 650.055L180.917 698.871V785.011H178.026V700.54L96.3467 653.392L14.6674 700.54V785.011H12.787Z" fill="#00A6FB"/>
<path d="M12.7866 697.79L14.667 698.871V785.011H12.7866V697.79Z" fill="#00A6FB"/>
<path d="M372.058 70.2985C368.579 70.2985 365.759 67.4781 365.759 63.9996C365.759 60.5211 368.579 57.7007 372.058 57.7007C375.537 57.7007 378.357 60.5211 378.357 63.9996C378.357 67.4781 375.537 70.2985 372.058 70.2985Z" fill="#00A6FB"/>
<path d="M308.289 104.778C306.096 104.778 304.317 102.999 304.317 100.806C304.317 98.6118 306.096 96.8335 308.289 96.8335C310.483 96.8335 312.262 98.6118 312.262 100.806C312.262 102.999 310.483 104.778 308.289 104.778Z" fill="#00A6FB"/>
<path d="M53.1678 107.716C49.36 107.716 46.2809 104.637 46.2809 100.829C46.2809 97.0218 49.36 93.9429 53.1678 93.9429C56.9756 93.9429 60.0547 97.0218 60.0547 100.829C60.0547 104.637 56.9756 107.716 53.1678 107.716Z" fill="#00A6FB"/>
<path d="M116.96 72.1315C112.469 72.1315 108.827 68.4906 108.827 63.9993C108.827 59.5081 112.469 55.8672 116.96 55.8672C121.452 55.8672 125.093 59.5081 125.093 63.9993C125.093 68.4906 121.452 72.1315 116.96 72.1315Z" fill="#00A6FB"/>
<path d="M430.538 100.806C430.538 97.8914 432.912 95.5176 435.827 95.5176C438.741 95.5176 441.115 97.8914 441.115 100.806C441.115 103.72 438.741 106.094 435.827 106.094C432.912 106.094 430.538 103.72 430.538 100.806Z" fill="#00A6FB"/>
<path d="M244.497 68.2774C242.135 68.2774 240.22 66.3622 240.22 63.9998C240.22 61.6373 242.135 59.7222 244.497 59.7222C246.86 59.7222 248.775 61.6373 248.775 63.9998C248.775 66.3622 246.86 68.2774 244.497 68.2774Z" fill="#00A6FB"/>
<path d="M180.729 105.389C178.198 105.389 176.146 103.337 176.146 100.806C176.146 98.2746 178.198 96.2227 180.729 96.2227C183.26 96.2227 185.312 98.2746 185.312 100.806C185.312 103.337 183.26 105.389 180.729 105.389Z" fill="#00A6FB"/>
<path d="M53.1677 168.566C56.4349 168.566 59.0674 171.198 59.0674 174.465C59.0674 177.732 56.4349 180.365 53.1677 180.365C49.9005 180.365 47.268 177.732 47.268 174.465C47.268 171.198 49.9005 168.566 53.1677 168.566Z" fill="#00A6FB"/>
<path d="M308.289 181.281C304.524 181.281 301.473 178.23 301.473 174.465C301.473 170.701 304.524 167.649 308.289 167.649C312.054 167.649 315.105 170.701 315.105 174.465C315.105 178.23 312.054 181.281 308.289 181.281Z" fill="#00A6FB"/>
<path d="M251.596 211.271C251.596 215.173 248.423 218.346 244.521 218.346C240.619 218.346 237.446 215.173 237.446 211.271C237.446 207.37 240.619 204.197 244.521 204.197C248.423 204.197 251.596 207.37 251.596 211.271Z" fill="#00A6FB"/>
<path d="M180.729 326.015C178.366 326.015 176.451 324.1 176.451 321.737C176.451 319.375 178.366 317.459 180.729 317.459C183.092 317.459 185.007 319.375 185.007 321.737C185.007 324.1 183.092 326.015 180.729 326.015Z" fill="#00A6FB"/>
<path d="M244.497 279.337C247.576 279.337 250.067 281.828 250.067 284.907C250.067 287.986 247.576 290.477 244.497 290.477C241.418 290.477 238.926 287.986 238.926 284.907C238.926 281.828 241.418 279.337 244.497 279.337Z" fill="#00A6FB"/>
<path d="M180.729 180.412C177.445 180.412 174.782 177.749 174.782 174.465C174.782 171.181 177.445 168.519 180.729 168.519C184.013 168.519 186.676 171.181 186.676 174.465C186.676 177.749 184.013 180.412 180.729 180.412Z" fill="#00A6FB"/>
<path d="M116.96 293.345C112.3 293.345 108.522 289.567 108.522 284.907C108.522 280.247 112.3 276.47 116.96 276.47C121.621 276.47 125.398 280.247 125.398 284.907C125.398 289.567 121.621 293.345 116.96 293.345Z" fill="#00A6FB"/>
<path d="M53.168 326.508C50.5354 326.508 48.3965 324.369 48.3965 321.737C48.3965 319.105 50.5354 316.966 53.168 316.966C55.8005 316.966 57.9395 319.105 57.9395 321.737C57.9395 324.369 55.8005 326.508 53.168 326.508Z" fill="#00A6FB"/>
<path d="M116.96 219.639C112.354 219.639 108.616 215.902 108.616 211.295C108.616 206.688 112.354 202.951 116.96 202.951C121.567 202.951 125.305 206.688 125.305 211.295C125.305 215.902 121.567 219.639 116.96 219.639Z" fill="#00A6FB"/>
<path d="M180.729 538.72C182.891 538.72 184.654 540.482 184.654 542.645C184.654 544.807 182.891 546.57 180.729 546.57C178.567 546.57 176.804 544.807 176.804 542.645C176.804 540.482 178.567 538.72 180.729 538.72Z" fill="#00A6FB"/>
<path d="M180.729 399.956C178.198 399.956 176.146 397.904 176.146 395.373C176.146 392.842 178.198 390.79 180.729 390.79C183.26 390.79 185.312 392.842 185.312 395.373C185.312 397.904 183.26 399.956 180.729 399.956Z" fill="#00A6FB"/>
<path d="M116.96 441.181C112.001 441.181 107.981 437.161 107.981 432.203C107.981 427.244 112.001 423.225 116.96 423.225C121.919 423.225 125.938 427.244 125.938 432.203C125.938 437.161 121.919 441.181 116.96 441.181Z" fill="#00A6FB"/>
<path d="M53.1677 400.262C50.4647 400.262 48.3022 398.076 48.3022 395.396C48.3022 392.717 50.4882 390.531 53.1677 390.531C55.8473 390.531 58.0332 392.717 58.0332 395.396C58.0332 398.076 55.8473 400.262 53.1677 400.262Z" fill="#00A6FB"/>
<path d="M175.44 616.304C175.44 613.39 177.814 611.016 180.729 611.016C183.644 611.016 186.018 613.39 186.018 616.304C186.018 619.219 183.644 621.593 180.729 621.593C177.814 621.593 175.44 619.219 175.44 616.304Z" fill="#00A6FB"/>
<path d="M53.1678 549.555C49.36 549.555 46.2809 546.476 46.2809 542.668C46.2809 538.861 49.36 535.782 53.1678 535.782C56.9756 535.782 60.0547 538.861 60.0547 542.668C60.0547 546.476 56.9756 549.555 53.1678 549.555Z" fill="#00A6FB"/>
<path d="M53.1678 609.418C56.9756 609.418 60.0547 612.497 60.0547 616.304C60.0547 620.112 56.9756 623.191 53.1678 623.191C49.36 623.191 46.2809 620.112 46.2809 616.304C46.2809 612.497 49.36 609.418 53.1678 609.418Z" fill="#00A6FB"/>
<path d="M244.497 658.61C241.465 658.61 239.02 656.166 239.02 653.134C239.02 650.102 241.465 647.658 244.497 647.658C247.529 647.658 249.974 650.102 249.974 653.134C249.974 656.166 247.529 658.61 244.497 658.61Z" fill="#00A6FB"/>
<path d="M116.96 659.198C113.611 659.198 110.896 656.483 110.896 653.134C110.896 649.785 113.611 647.07 116.96 647.07C120.309 647.07 123.024 649.785 123.024 653.134C123.024 656.483 120.309 659.198 116.96 659.198Z" fill="#00A6FB"/>
<path d="M244.497 720.635C247.882 720.635 250.632 723.385 250.632 726.77C250.632 730.154 247.882 732.904 244.497 732.904C241.112 732.904 238.362 730.154 238.362 726.77C238.362 723.385 241.112 720.635 244.497 720.635Z" fill="#00A6FB"/>
<path d="M184.16 763.576C184.16 765.456 182.632 767.007 180.728 767.007C178.825 767.007 177.297 765.48 177.297 763.576C177.297 761.672 178.825 760.145 180.728 760.145C182.632 760.145 184.16 761.672 184.16 763.576Z" fill="#00A6FB"/>
<path d="M116.96 720.4C120.486 720.4 123.33 723.244 123.33 726.77C123.33 730.295 120.486 733.139 116.96 733.139C113.435 733.139 110.59 730.295 110.59 726.77C110.59 723.244 113.435 720.4 116.96 720.4Z" fill="#00A6FB"/>
<path d="M53.1679 756.032C57.3282 756.032 60.7129 759.416 60.7129 763.576C60.7129 767.736 57.3282 771.121 53.1679 771.121C49.0075 771.121 45.6228 767.736 45.6228 763.576C45.6228 759.416 49.0075 756.032 53.1679 756.032Z" fill="#00A6FB"/>
</g>
</svg>
