<svg width="44" height="42" viewBox="0 0 44 42" fill="none" xmlns="http://www.w3.org/2000/svg">
<mask id="mask0_15_3114" style="mask-type:luminance" maskUnits="userSpaceOnUse" x="0" y="0" width="44" height="42">
<path d="M43.592 0H0V41.315H43.592V0Z" fill="white"/>
</mask>
<g mask="url(#mask0_15_3114)">
<path d="M3.13752 22.667L21.2305 4.30005C21.3043 4.22513 21.3923 4.16563 21.4893 4.12502C21.5863 4.0844 21.6904 4.06349 21.7955 4.06349C21.9007 4.06349 22.0048 4.0844 22.1018 4.12502C22.1988 4.16563 22.2867 4.22513 22.3605 4.30005L40.4545 22.667C40.5283 22.7421 40.6162 22.8016 40.7132 22.8423C40.8102 22.883 40.9143 22.904 41.0195 22.904H42.7995C42.956 22.9042 43.1089 22.858 43.2392 22.7714C43.3695 22.6847 43.4712 22.5615 43.5316 22.4172C43.592 22.2729 43.6083 22.1139 43.5786 21.9604C43.5489 21.8068 43.4744 21.6654 43.3645 21.5541L22.3615 0.23705C22.2877 0.162127 22.1998 0.102628 22.1028 0.0620155C22.0058 0.0214031 21.9017 0.000488281 21.7965 0.000488281C21.6914 0.000488281 21.5873 0.0214031 21.4903 0.0620155C21.3933 0.102628 21.3053 0.162127 21.2315 0.23705L0.229519 21.5541C0.120693 21.6659 0.0472881 21.8074 0.0184965 21.9607C-0.0102951 22.1141 0.00680712 22.2726 0.0676611 22.4163C0.128515 22.56 0.230415 22.6825 0.3606 22.7686C0.490784 22.8546 0.643464 22.9004 0.799519 22.9H2.57252C2.67771 22.9 2.78183 22.879 2.87883 22.8383C2.97583 22.7976 3.06377 22.7381 3.13752 22.663" fill="white"/>
<path d="M36.6844 22.9822L29.2414 15.3822L21.7984 7.80518L14.3554 15.3942L6.91238 22.9832H6.81738V41.3152H36.6864V22.9822H36.6844ZM25.9694 33.5172H17.5334V25.1722H25.9694V33.5172Z" fill="white"/>
</g>
</svg>
