<svg width="26" height="16" viewBox="0 0 26 16" fill="none" xmlns="http://www.w3.org/2000/svg">
<path fill-rule="evenodd" clip-rule="evenodd" d="M12.8089 13.4838C14.0826 14.6333 15.7125 15.3104 17.4258 15.4018C19.1391 15.4933 20.8318 14.9936 22.2206 13.9862C23.6095 12.9789 24.6103 11.5251 25.0555 9.8682C25.5007 8.21126 25.3632 6.45168 24.6662 4.88393C23.9693 3.31618 22.7549 2.03537 21.2265 1.25586C19.6981 0.47634 17.9484 0.24541 16.2701 0.60171C14.5918 0.958011 13.0868 1.87992 12.0069 3.21317C10.927 4.54641 10.3378 6.2101 10.3379 7.92581C10.3367 8.97376 10.5561 10.0102 10.9818 10.9678C11.4075 11.9254 12.0301 12.7826 12.8089 13.4838Z" fill="#FCB131"/>
<path fill-rule="evenodd" clip-rule="evenodd" d="M24.3379 12.1016C24.338 12.0695 24.3446 12.0377 24.3574 12.0083C24.3702 11.9788 24.3889 11.9523 24.4123 11.9303C24.4357 11.9083 24.4633 11.8913 24.4935 11.8803C24.5237 11.8694 24.5558 11.8647 24.5879 11.8666C24.6189 11.8662 24.6496 11.872 24.6783 11.8837C24.707 11.8954 24.7331 11.9127 24.755 11.9346C24.7769 11.9565 24.7942 11.9825 24.8058 12.0112C24.8175 12.0399 24.8233 12.0707 24.8229 12.1016C24.8243 12.1658 24.8004 12.2279 24.7565 12.2746C24.7125 12.3214 24.652 12.349 24.5879 12.3516C24.555 12.3519 24.5224 12.3456 24.4919 12.3331C24.4615 12.3207 24.4338 12.3023 24.4105 12.279C24.3873 12.2557 24.3689 12.2281 24.3564 12.1976C24.3439 12.1672 24.3376 12.1345 24.3379 12.1016ZM24.5879 12.2926C24.6359 12.2886 24.6807 12.2668 24.7135 12.2315C24.7462 12.1961 24.7646 12.1498 24.7649 12.1016C24.7641 12.055 24.7452 12.0106 24.7121 11.9777C24.6791 11.9448 24.6345 11.9261 24.5879 11.9256C24.5637 11.9244 24.5396 11.928 24.5169 11.9363C24.4941 11.9445 24.4733 11.9572 24.4555 11.9736C24.4377 11.9899 24.4234 12.0097 24.4133 12.0317C24.4032 12.0537 24.3977 12.0775 24.3969 12.1016C24.3977 12.152 24.418 12.2002 24.4537 12.2358C24.4894 12.2715 24.5375 12.2919 24.5879 12.2926ZM24.5439 12.2196H24.4999V11.9986H24.5879C24.6087 11.9964 24.6296 12.0018 24.6469 12.0136C24.6619 12.0286 24.6759 12.0426 24.6759 12.0576C24.6759 12.0726 24.6619 12.1166 24.6319 12.1166L24.6759 12.2166H24.6179L24.5879 12.1276H24.5439V12.2166V12.2196ZM24.5439 12.0866H24.5999C24.6149 12.0866 24.6149 12.0726 24.6149 12.0576C24.6149 12.0536 24.6133 12.0498 24.6105 12.047C24.6077 12.0442 24.6039 12.0426 24.5999 12.0426H24.5409V12.0866H24.5439Z" fill="#FCB131"/>
<path fill-rule="evenodd" clip-rule="evenodd" d="M15.2346 7.13191C15.2044 6.86296 15.1593 6.59589 15.0996 6.33191H10.5146C10.5741 6.0636 10.6475 5.79858 10.7346 5.53791H14.8816C14.7936 5.27125 14.6906 5.00658 14.5726 4.74391H11.0436C11.177 4.47725 11.324 4.21258 11.4846 3.94991H14.1316C13.967 3.66716 13.7751 3.40122 13.5586 3.15591H12.0586C12.2889 2.8733 12.5396 2.60792 12.8086 2.36191C11.7326 1.38721 10.3968 0.745757 8.96337 0.515411C7.52991 0.285066 6.06041 0.475726 4.7332 1.06425C3.40598 1.65278 2.27812 2.61388 1.48648 3.8309C0.694831 5.04793 0.273438 6.46857 0.273438 7.92041C0.273438 9.37226 0.694831 10.7929 1.48648 12.0099C2.27812 13.227 3.40598 14.188 4.7332 14.7766C6.06041 15.3651 7.52991 15.5558 8.96337 15.3254C10.3968 15.0951 11.7326 14.4536 12.8086 13.4789C13.0781 13.2289 13.3332 12.9638 13.5726 12.6849H12.0586C11.8508 12.4325 11.6591 12.1673 11.4846 11.8909H14.1316C14.2961 11.6363 14.4434 11.3711 14.5726 11.0969H11.0436C10.9228 10.8395 10.8196 10.5743 10.7346 10.3029H14.8816C14.9687 10.0422 15.0425 9.77716 15.1026 9.50891C15.1611 9.24686 15.2052 8.9818 15.2346 8.71491C15.2932 8.18687 15.2932 7.65396 15.2346 7.12591V7.13191Z" fill="#ED1C2E"/>
<path fill-rule="evenodd" clip-rule="evenodd" d="M10.2649 10.0868C10.0652 10.1513 9.8568 10.185 9.64692 10.1868C9.55932 10.1919 9.47169 10.1774 9.3904 10.1444C9.30911 10.1114 9.23621 10.0606 9.17701 9.99585C9.1178 9.93109 9.07379 9.85395 9.04817 9.77003C9.02255 9.68611 9.01597 9.59754 9.02891 9.51075C9.03227 9.41683 9.04229 9.32326 9.05891 9.23075L9.10291 8.93675L9.14692 8.68675L9.49991 6.57275H10.2789L10.1909 7.04275H10.6759L10.5589 7.82275H10.0729L9.85291 9.08675C9.85291 9.13075 9.83791 9.17575 9.83791 9.20475C9.83791 9.36675 9.92591 9.43975 10.1169 9.43975C10.201 9.43838 10.2847 9.42867 10.3669 9.41075L10.2669 10.0868H10.2649Z" fill="#003473"/>
<path fill-rule="evenodd" clip-rule="evenodd" d="M12.7789 10.058C12.508 10.1447 12.2253 10.1892 11.9409 10.19C11.7542 10.2114 11.5651 10.1903 11.3877 10.1285C11.2103 10.0666 11.0492 9.96543 10.9163 9.83257C10.7835 9.69971 10.6823 9.53856 10.6204 9.36115C10.5585 9.18375 10.5375 8.99465 10.5589 8.80798C10.5589 7.74898 11.1589 6.95498 11.9849 6.95498C12.1336 6.94734 12.2822 6.97175 12.4206 7.02656C12.5591 7.08137 12.6841 7.16528 12.7873 7.27263C12.8905 7.37998 12.9694 7.50825 13.0186 7.64875C13.0679 7.78925 13.0864 7.9387 13.0729 8.08698C13.0696 8.34501 13.036 8.60177 12.9729 8.85198H11.3529V8.93998C11.3529 9.30798 11.5879 9.48398 12.0589 9.48398C12.3539 9.48435 12.6453 9.41911 12.9119 9.29298L12.7789 10.058ZM12.2939 8.21998V8.07298C12.3001 8.02051 12.2946 7.96733 12.2778 7.91723C12.2611 7.86713 12.2335 7.82134 12.197 7.78313C12.1605 7.74493 12.116 7.71525 12.0667 7.69621C12.0175 7.67717 11.9646 7.66924 11.9119 7.67298C11.6469 7.67298 11.4699 7.86398 11.3969 8.21698L12.2939 8.21998Z" fill="#003473"/>
<path fill-rule="evenodd" clip-rule="evenodd" d="M4.04372 10.1318H3.23472L3.70572 7.20575L2.66172 10.1318H2.09972L2.04072 7.21975L1.54072 10.1318H0.761719L1.39371 6.32275H2.55572L2.59972 8.67575L3.37872 6.32275H4.67271L4.04372 10.1318Z" fill="#003473"/>
<path fill-rule="evenodd" clip-rule="evenodd" d="M5.99973 8.7488C5.91173 8.7488 5.89973 8.7338 5.83773 8.7338C5.38173 8.7338 5.14673 8.9108 5.14673 9.2048C5.14134 9.24607 5.145 9.28802 5.15744 9.32774C5.16988 9.36745 5.19081 9.40399 5.21878 9.43481C5.24675 9.46564 5.28108 9.49001 5.31941 9.50624C5.35773 9.52246 5.39913 9.53016 5.44073 9.5288C5.84073 9.5288 5.98473 9.2048 5.99973 8.7488ZM6.64673 10.1308H5.94073L5.95573 9.8078C5.86064 9.94186 5.73136 10.048 5.58135 10.1152C5.43134 10.1824 5.26607 10.2081 5.10273 10.1898C4.99881 10.1827 4.89737 10.1548 4.80445 10.1077C4.71152 10.0606 4.62899 9.9954 4.56175 9.91585C4.49451 9.8363 4.44392 9.74405 4.413 9.64458C4.38207 9.54512 4.37145 9.44045 4.38173 9.3368C4.38475 9.20153 4.40457 9.06717 4.44073 8.9368C4.57273 8.4518 5.05873 8.1578 5.79373 8.1428C5.91159 8.14091 6.02946 8.14592 6.14673 8.1578C6.16786 8.09124 6.17766 8.0216 6.17573 7.9518C6.17573 7.7458 6.01473 7.6868 5.63173 7.6868C5.4038 7.69136 5.17708 7.72121 4.95573 7.7758L4.85573 7.8198H4.79673L4.91473 7.1278C5.21788 7.0246 5.53551 6.97025 5.85573 6.9668C6.56173 6.9668 6.92873 7.2758 6.92873 7.8778C6.9377 8.07883 6.92293 8.28022 6.88473 8.4778L6.72273 9.5778L6.69373 9.7698L6.66473 9.9308V10.0308L6.64973 10.1188L6.64673 10.1308Z" fill="#003473"/>
<path fill-rule="evenodd" clip-rule="evenodd" d="M16.6909 7.07261C16.9446 7.08087 17.1922 7.15163 17.4119 7.27861L17.5439 6.43961C17.4699 6.41061 17.4559 6.41061 17.3529 6.36661L17.0149 6.29261C16.8949 6.26101 16.7711 6.2462 16.6469 6.24861C16.3432 6.20902 16.0348 6.26568 15.7649 6.41061C15.5823 6.51669 15.4182 6.65179 15.2789 6.81061L15.1909 6.78161L14.3529 7.36961L14.3969 7.04561H13.5289L13.0439 10.1316H13.8529L14.1469 8.47061C14.1991 8.36404 14.2579 8.26084 14.3229 8.16161C14.3715 8.09179 14.4387 8.03692 14.5168 8.00318C14.5948 7.96943 14.6808 7.95816 14.7649 7.97061H14.8229C14.8089 8.14661 14.7939 8.35261 14.7939 8.55861C14.7664 8.76524 14.7836 8.97537 14.8444 9.17477C14.9051 9.37417 15.008 9.55819 15.1461 9.71436C15.2842 9.87054 15.4542 9.99522 15.6446 10.08C15.8351 10.1647 16.0415 10.2076 16.2499 10.2056C16.4901 10.2041 16.7284 10.1643 16.9559 10.0876L17.1029 9.22061C16.8908 9.33765 16.6541 9.40308 16.4119 9.41161C15.9409 9.41161 15.6619 9.07361 15.6619 8.48461C15.6619 7.66161 16.0729 7.07261 16.6909 7.07261Z" fill="#003473"/>
<path fill-rule="evenodd" clip-rule="evenodd" d="M23.5584 6.32275L23.3814 7.41075C23.3091 7.27965 23.2025 7.17066 23.073 7.09545C22.9436 7.02024 22.7961 6.98163 22.6464 6.98375C22.4209 6.98878 22.2013 7.05608 22.0117 7.17822C21.8222 7.30035 21.6701 7.47255 21.5724 7.67575L21.0584 7.36675L21.1024 7.04275H20.2344L19.7344 10.1308H20.5584L20.8224 8.46975C20.8224 8.46975 21.0284 8.23375 21.0874 8.16075C21.1276 8.10394 21.1804 8.05715 21.2416 8.02402C21.3028 7.9909 21.3708 7.97233 21.4404 7.96975C21.3429 8.26358 21.2932 8.57117 21.2934 8.88075C21.2934 9.66075 21.7054 10.1808 22.2934 10.1808C22.4371 10.1834 22.5795 10.1529 22.7095 10.0917C22.8396 10.0305 22.9538 9.94018 23.0434 9.82775L22.9994 10.1318H23.7784L24.3964 6.32375L23.5584 6.32275ZM22.5724 9.39575C22.2934 9.39575 22.1614 9.20475 22.1614 8.79575C22.1614 8.19575 22.4114 7.75175 22.7934 7.75175C23.0724 7.75175 23.2194 7.97275 23.2194 8.36975C23.2194 8.96975 22.9554 9.39875 22.5724 9.39875V9.39575Z" fill="#003473"/>
<path fill-rule="evenodd" clip-rule="evenodd" d="M18.8224 8.7487C18.7344 8.7487 18.7224 8.7337 18.6614 8.7337C18.2054 8.7337 17.9694 8.9107 17.9694 9.2047C17.964 9.24606 17.9677 9.2881 17.9802 9.32789C17.9927 9.36768 18.0137 9.40427 18.0418 9.43511C18.0699 9.46595 18.1043 9.4903 18.1428 9.50646C18.1812 9.52263 18.2228 9.53022 18.2644 9.5287C18.6644 9.5287 18.8084 9.2047 18.8224 8.7487ZM19.4694 10.1317H18.7644L18.7784 9.8087C18.6834 9.94285 18.5542 10.049 18.4041 10.1162C18.2541 10.1834 18.0888 10.2091 17.9254 10.1907C17.8196 10.1857 17.7158 10.1594 17.6203 10.1135C17.5248 10.0675 17.4395 10.0028 17.3696 9.92323C17.2996 9.84365 17.2463 9.75079 17.213 9.6502C17.1796 9.54961 17.1669 9.44333 17.1754 9.3377C17.1904 8.6027 17.7344 8.1467 18.6164 8.1467C18.7343 8.14478 18.8522 8.14979 18.9694 8.1617C18.9913 8.09529 19.0014 8.02559 18.9994 7.9557C18.9994 7.7497 18.8374 7.6907 18.4554 7.6907C18.2271 7.69425 17.9999 7.72412 17.7784 7.7797L17.6614 7.8237H17.6164L17.7344 7.1317C18.0376 7.0285 18.3552 6.97416 18.6754 6.9707C19.3814 6.9707 19.7494 7.2797 19.7494 7.8817C19.7584 8.08274 19.7436 8.28413 19.7054 8.4817L19.5434 9.5817L19.5144 9.7737L19.4844 9.9347L19.4694 10.0347V10.1317Z" fill="#003473"/>
<path fill-rule="evenodd" clip-rule="evenodd" d="M8.33727 7.70473C8.54394 7.70747 8.75029 7.72217 8.95527 7.74873L9.07227 7.02873C8.8285 6.9959 8.58315 6.9762 8.33727 6.96973C7.43727 6.96973 7.13127 7.45473 7.13127 8.02873C7.12925 8.21404 7.18633 8.39517 7.29421 8.54586C7.4021 8.69654 7.55519 8.80893 7.73127 8.86673C8.06927 9.02873 8.13127 9.05773 8.13127 9.18973C8.13127 9.38173 7.95527 9.49873 7.63127 9.49873C7.38701 9.49323 7.1447 9.45386 6.91127 9.38173L6.82227 10.0817H6.83727L6.98427 10.1117C7.05114 10.1315 7.12055 10.1412 7.19027 10.1407C7.34628 10.1627 7.50374 10.1727 7.66127 10.1707C8.56127 10.1707 8.94027 9.83173 8.94027 9.14073C8.94639 8.95015 8.88901 8.76295 8.77714 8.60854C8.66527 8.45413 8.50526 8.34128 8.32227 8.28773C7.98427 8.12573 7.94027 8.11173 7.94027 7.96473C7.94027 7.81773 8.08727 7.69973 8.34027 7.69973L8.33727 7.70473Z" fill="#003473"/>
<path fill-rule="evenodd" clip-rule="evenodd" d="M17.7649 6.20474L17.632 7.02874C17.4126 6.90176 17.1653 6.831 16.9119 6.82274C16.2939 6.82274 15.8669 7.41074 15.8669 8.24874C15.8669 8.82274 16.167 9.17574 16.632 9.17574C16.8742 9.16739 17.1111 9.10158 17.3229 8.98374L17.1759 9.85174C16.9415 9.91719 16.6993 9.95082 16.4559 9.95174C15.5879 9.95174 15.0439 9.33374 15.0439 8.31974C15.0439 6.95174 15.7939 6.01074 16.8669 6.01074C16.9901 6.01161 17.1131 6.0213 17.2349 6.03974L17.5729 6.12774C17.6729 6.17274 17.6909 6.17274 17.7649 6.20174V6.20474Z" fill="white"/>
<path fill-rule="evenodd" clip-rule="evenodd" d="M15.162 6.77875C15.134 6.76652 15.1034 6.76137 15.073 6.76375C14.809 6.76375 14.662 6.89575 14.412 7.26375L14.485 6.79275H13.735L13.25 9.89275H14.059C14.353 7.99275 14.426 7.67275 14.823 7.67275H14.882C14.9329 7.35732 15.0374 7.05292 15.191 6.77275L15.162 6.77875Z" fill="white"/>
<path fill-rule="evenodd" clip-rule="evenodd" d="M10.4696 9.85198C10.2807 9.91857 10.0819 9.95239 9.88162 9.95198C9.79216 9.95979 9.70208 9.94741 9.61803 9.91576C9.53399 9.88411 9.45813 9.834 9.39603 9.76912C9.33394 9.70424 9.2872 9.62625 9.25926 9.5409C9.23133 9.45555 9.2229 9.36502 9.23462 9.27598C9.23792 9.18205 9.24794 9.08848 9.26462 8.99599L9.30862 8.68699L9.35262 8.45198L9.70562 6.33398H10.5146L10.4256 6.78999H10.8376L10.7196 7.55499H10.3086L10.0876 8.83199C10.0876 8.89099 10.0726 8.93198 10.0726 8.96498C10.0726 9.12598 10.1616 9.19999 10.3526 9.19999C10.4269 9.20037 10.5009 9.19061 10.5726 9.17098L10.4726 9.84698L10.4696 9.85198Z" fill="white"/>
<path fill-rule="evenodd" clip-rule="evenodd" d="M7.33829 7.77889C7.33716 7.9682 7.3965 8.15293 7.50766 8.30618C7.61882 8.45942 7.77599 8.57318 7.9563 8.63089C8.2943 8.79289 8.33829 8.83689 8.33829 8.98389C8.33829 9.17589 8.19129 9.26389 7.86729 9.26389C7.62153 9.26031 7.37813 9.21535 7.1473 9.13089L7.0293 9.85189H7.0733L7.2203 9.88089C7.287 9.90146 7.3565 9.91158 7.4263 9.91089C7.6173 9.92589 7.7793 9.93989 7.8823 9.93989C8.7353 9.93989 9.1323 9.61689 9.1323 8.91089C9.14621 8.72321 9.09751 8.53622 8.99384 8.37916C8.89016 8.22211 8.73734 8.10385 8.5593 8.04289C8.2203 7.89589 8.1763 7.85189 8.1763 7.71989C8.1763 7.54289 8.30929 7.45489 8.57629 7.45489C8.7737 7.46182 8.97044 7.48153 9.1653 7.51389L9.2823 6.79289C9.04362 6.75944 8.80323 6.73974 8.56229 6.73389C7.65029 6.73389 7.3413 7.20489 7.3413 7.77889H7.33829Z" fill="white"/>
<path fill-rule="evenodd" clip-rule="evenodd" d="M23.9846 9.89598H23.2057L23.2496 9.58698C23.1573 9.69518 23.0422 9.78166 22.9125 9.84026C22.7829 9.89886 22.6419 9.92813 22.4996 9.92599C21.9116 9.92599 21.5146 9.42598 21.5146 8.64598C21.5146 7.61698 22.1146 6.74599 22.8376 6.74599C22.9933 6.74468 23.1467 6.78324 23.2832 6.85798C23.4198 6.93272 23.5349 7.04116 23.6176 7.17299L23.7936 6.08398H24.5996L23.9817 9.89298L23.9846 9.89598ZM22.7786 9.16098C23.1616 9.16098 23.4257 8.73399 23.4257 8.11699C23.4257 7.73399 23.2786 7.51698 22.9996 7.51698C22.6316 7.51698 22.3666 7.94299 22.3666 8.56099C22.3666 8.96099 22.4996 9.16098 22.7786 9.16098Z" fill="white"/>
<path fill-rule="evenodd" clip-rule="evenodd" d="M12.9555 9.82263C12.6845 9.91045 12.4013 9.955 12.1165 9.95463C11.9293 9.97842 11.7392 9.95905 11.5607 9.89801C11.3822 9.83697 11.22 9.73588 11.0866 9.60248C10.9532 9.46908 10.8521 9.30691 10.7911 9.1284C10.7301 8.94989 10.7107 8.75978 10.7345 8.57263C10.7345 7.49863 11.3345 6.71963 12.1615 6.71963C12.3102 6.71199 12.4588 6.7364 12.5972 6.79121C12.7356 6.84601 12.8607 6.92993 12.9639 7.03728C13.067 7.14463 13.1459 7.2729 13.1952 7.4134C13.2445 7.5539 13.263 7.70335 13.2495 7.85163C13.2432 8.10876 13.2138 8.3648 13.1615 8.61663H11.5435C11.5323 8.64458 11.5272 8.67457 11.5285 8.70463C11.5285 9.05763 11.7645 9.24863 12.2495 9.24863C12.5394 9.24693 12.8254 9.18173 13.0875 9.05763L12.9555 9.82263ZM12.4995 7.98363V7.82263C12.5068 7.76986 12.5021 7.71611 12.4857 7.66542C12.4693 7.61473 12.4416 7.5684 12.4048 7.52992C12.368 7.49144 12.3229 7.46179 12.2729 7.44321C12.223 7.42463 12.1695 7.4176 12.1165 7.42263C11.8665 7.42263 11.6755 7.62263 11.6025 7.98063L12.4995 7.98363Z" fill="white"/>
<path fill-rule="evenodd" clip-rule="evenodd" d="M4.25 9.89591H3.441L3.912 6.96891L2.868 9.89591H2.309L2.25 6.98391L1.75 9.89591H1L1.632 6.08691H2.794L2.838 8.43991L3.617 6.08691H4.882L4.25 9.89591Z" fill="white"/>
<path fill-rule="evenodd" clip-rule="evenodd" d="M6.26497 8.51389C6.20163 8.50252 6.13731 8.49749 6.07297 8.49889C5.61697 8.49889 5.38198 8.66089 5.38198 8.96989C5.37791 9.01086 5.3825 9.05223 5.39544 9.09132C5.40839 9.13041 5.4294 9.16634 5.45712 9.19679C5.48483 9.22724 5.51864 9.25153 5.55634 9.26808C5.59404 9.28464 5.6348 9.29309 5.67597 9.29289C6.01497 9.29289 6.24997 8.96989 6.26497 8.51389ZM6.85297 9.89589H6.17597L6.19097 9.57289C6.08825 9.69751 5.95726 9.79583 5.8089 9.85966C5.66054 9.92349 5.49909 9.95099 5.33797 9.93989C5.23283 9.93867 5.12913 9.91533 5.03361 9.87138C4.93809 9.82743 4.8529 9.76387 4.78356 9.68482C4.71423 9.60578 4.66232 9.51302 4.6312 9.41258C4.60009 9.31215 4.59047 9.20629 4.60297 9.10189C4.60297 8.35189 5.11697 7.91089 6.02897 7.91089C6.13718 7.90905 6.24539 7.91407 6.35297 7.92589C6.37472 7.86431 6.38457 7.79915 6.38198 7.73389C6.38198 7.53389 6.24997 7.45489 5.86697 7.45489C5.63855 7.45118 5.41083 7.48082 5.19097 7.54289L5.07297 7.57289L4.99997 7.58689L5.11697 6.89589C5.43088 6.79434 5.75809 6.73975 6.08797 6.73389C6.79397 6.73389 7.16197 7.04289 7.16197 7.63389C7.157 7.84177 7.13222 8.04871 7.08797 8.25189L6.92597 9.35189L6.89697 9.54289L6.88198 9.70489L6.86697 9.80489L6.85297 9.89289V9.89589Z" fill="white"/>
<path fill-rule="evenodd" clip-rule="evenodd" d="M19.0873 8.51389C19.0243 8.50249 18.9604 8.49747 18.8964 8.49889C18.4404 8.49889 18.2053 8.66089 18.2053 8.96989C18.2011 9.01089 18.2056 9.05233 18.2185 9.09149C18.2314 9.13064 18.2524 9.16664 18.2801 9.19712C18.3079 9.22761 18.3417 9.2519 18.3795 9.2684C18.4173 9.2849 18.4581 9.29324 18.4993 9.29289C18.8223 9.29289 19.0723 8.96989 19.0873 8.51389ZM19.6754 9.89589H18.9993L19.0143 9.57289C18.9106 9.69633 18.7795 9.79381 18.6314 9.85753C18.4833 9.92125 18.3223 9.94946 18.1614 9.93989C18.0554 9.93921 17.9508 9.91636 17.8542 9.87282C17.7577 9.82928 17.6713 9.76601 17.6007 9.68708C17.53 9.60815 17.4767 9.5153 17.4441 9.41452C17.4115 9.31373 17.4003 9.20724 17.4114 9.10189C17.4114 8.35189 17.9403 7.91089 18.8523 7.91089C18.9602 7.90904 19.0681 7.91405 19.1754 7.92589C19.1978 7.86447 19.208 7.79923 19.2053 7.73389C19.2053 7.53389 19.0724 7.45489 18.6904 7.45489C18.4619 7.45118 18.2342 7.48082 18.0143 7.54289L17.8964 7.57289L17.8223 7.58689L17.9404 6.89589C18.2542 6.79427 18.5815 6.73967 18.9114 6.73389C19.6114 6.73389 19.9843 7.04289 19.9843 7.63389C19.9793 7.84171 19.9549 8.04861 19.9114 8.25189L19.7493 9.35189L19.7193 9.54289L19.6904 9.70489L19.6754 9.80489V9.89289V9.89589Z" fill="white"/>
<path fill-rule="evenodd" clip-rule="evenodd" d="M21.8524 6.77898C21.8303 6.76532 21.8041 6.76 21.7784 6.76398C21.5144 6.76398 21.3524 6.89598 21.1024 7.26398L21.1754 6.79298H20.4404L19.9404 9.89298H20.7644C21.0434 7.99298 21.1314 7.67298 21.5144 7.67298H21.5724C21.6302 7.35932 21.7344 7.056 21.8814 6.77298L21.8524 6.77898Z" fill="white"/>
</svg>
