<svg width="21" height="19" viewBox="0 0 21 19" fill="none" xmlns="http://www.w3.org/2000/svg">
<path d="M18.5651 10.6242L20.7685 4.27236C20.8963 3.90529 20.8296 3.49855 20.5914 3.18506C20.3526 2.87223 19.9637 2.68241 19.5623 2.68704L8.44476 2.71416V2.72606C8.11838 2.75318 7.86284 3.01244 7.86562 3.32924C7.8684 3.66058 8.15172 3.92778 8.49892 3.92778H8.50448L9.40166 3.9205C9.4093 3.9205 9.41694 3.91852 9.42458 3.91786L19.5651 3.89273L17.3617 10.2452C17.3041 10.4106 17.143 10.521 16.961 10.521H7.98436L5.48934 1.65199C5.26712 0.862307 4.5123 0.310059 3.65331 0.310059H0.633305C0.284015 0.310059 0 0.579899 0 0.913232C0 1.24657 0.284015 1.51641 0.633305 1.51641H3.65261C3.93871 1.51641 4.19078 1.70027 4.26439 1.9635L7.57535 13.7333C7.64966 13.9972 7.90034 14.1804 8.18713 14.1804H19.3832C19.7331 14.1804 20.0165 13.9099 20.0165 13.5772C20.0165 13.2446 19.7331 12.9741 19.3832 12.9741H8.67461L8.32393 11.7287H16.961C17.6916 11.7287 18.336 11.2849 18.5651 10.6242Z" fill="#2E2E2B"/>
<path d="M9.55674 14.5039C8.40957 14.5039 7.47559 15.3928 7.47559 16.486C7.47559 17.5793 8.40888 18.4682 9.55674 18.4682C10.7046 18.4682 11.6379 17.5793 11.6379 16.486C11.6379 15.3928 10.7046 14.5039 9.55674 14.5039ZM9.55674 17.2612C9.10815 17.2612 8.74289 16.9133 8.74289 16.486C8.74289 16.0588 9.10815 15.7109 9.55674 15.7109C10.0053 15.7109 10.3706 16.0588 10.3706 16.486C10.3706 16.9133 10.0053 17.2612 9.55674 17.2612Z" fill="#2E2E2B"/>
<path d="M17.4493 14.5039C16.3021 14.5039 15.3682 15.3928 15.3682 16.486C15.3682 17.5793 16.3015 18.4682 17.4493 18.4682C18.5972 18.4682 19.5305 17.5793 19.5305 16.486C19.5305 15.3928 18.5972 14.5039 17.4493 14.5039ZM17.4493 17.2612C17.0007 17.2612 16.6355 16.9133 16.6355 16.486C16.6355 16.0588 17.0007 15.7109 17.4493 15.7109C17.8979 15.7109 18.2632 16.0588 18.2632 16.486C18.2632 16.9133 17.8979 17.2612 17.4493 17.2612Z" fill="#2E2E2B"/>
<path d="M17.4043 5.65349C17.4043 5.32041 17.121 5.05078 16.771 5.05078H9.09424C8.74426 5.05078 8.46094 5.32107 8.46094 5.65349C8.46094 5.9859 8.74495 6.2562 9.09424 6.2562H16.771C17.121 6.2562 17.4043 5.9859 17.4043 5.65349Z" fill="#2E2E2B"/>
<path d="M9.83936 7.66504C9.48937 7.66504 9.20605 7.93533 9.20605 8.26775C9.20605 8.60016 9.49007 8.87045 9.83936 8.87045H15.7099C16.0599 8.87045 16.3432 8.60016 16.3432 8.26775C16.3432 7.93533 16.0599 7.66504 15.7099 7.66504H9.83936Z" fill="#2E2E2B"/>
</svg>
