<svg width="33" height="33" viewBox="0 0 33 33" fill="none" xmlns="http://www.w3.org/2000/svg">
<g clip-path="url(#clip0_15_3104)">
<path d="M32.9878 26.0438C33.0599 26.5793 32.8915 27.0427 32.5007 27.4398L27.8526 32.0553C27.6421 32.2899 27.3715 32.4885 27.0288 32.651C26.692 32.8135 26.3613 32.9218 26.0366 32.9639C26.0125 32.9639 25.9404 32.9639 25.8261 32.9819C25.7119 32.994 25.5555 33 25.3691 33C24.9302 33 24.2086 32.9278 23.2225 32.7774C22.2303 32.6269 21.0216 32.2538 19.5845 31.6581C18.1534 31.0624 16.5298 30.1718 14.7139 28.9803C12.8979 27.7949 10.9617 26.1581 8.91123 24.0941C7.28167 22.4814 5.92872 20.9469 4.85838 19.4787C3.78805 18.0104 2.92216 16.6504 2.27274 15.4048C1.62333 14.1532 1.13025 13.0279 0.805542 12.0109C0.480833 11 0.258348 10.1214 0.144098 9.38731C0.0298492 8.65317 -0.0182557 8.07549 -0.000216382 7.65427C0.0238361 7.23906 0.0358623 7.00438 0.0358623 6.95624C0.0839673 6.62527 0.18619 6.29431 0.348545 5.95733C0.510899 5.61433 0.709332 5.34354 0.93783 5.13293L5.59198 0.487418C5.91669 0.162473 6.28951 0 6.71042 0C7.01108 0 7.28167 0.0842451 7.51017 0.26477C7.74468 0.43326 7.94311 0.649891 8.10547 0.908643L11.8396 8.00328C12.0501 8.37637 12.1102 8.78556 12.014 9.23085C11.9238 9.67013 11.7254 10.0432 11.4247 10.3441L9.71097 12.0591C9.66888 12.1072 9.62679 12.1794 9.59071 12.2877C9.55463 12.3961 9.53659 12.4803 9.53659 12.5525C9.6328 13.0399 9.84326 13.5996 10.162 14.2314C10.4446 14.791 10.8715 15.477 11.4548 16.2774C12.038 17.0837 12.8618 18.0104 13.9322 19.0574C14.9785 20.1346 15.9165 20.965 16.7283 21.5607C17.5461 22.1504 18.2255 22.5837 18.7727 22.8665C19.3199 23.1433 19.7409 23.3118 20.0295 23.372L20.4684 23.4562C20.5105 23.4562 20.5887 23.4382 20.6969 23.4081C20.7992 23.372 20.8773 23.3299 20.9254 23.2877L22.9158 21.2598C23.3367 20.8868 23.8238 20.7002 24.383 20.7002C24.7798 20.7002 25.0925 20.7724 25.327 20.9108H25.3571L32.1038 24.9004C32.5909 25.2013 32.8855 25.5925 32.9757 26.0558L32.9878 26.0438Z" fill="white"/>
</g>
<defs>
<clipPath id="clip0_15_3104">
<rect width="33" height="33" fill="white"/>
</clipPath>
</defs>
</svg>
