<svg width="20" height="21" viewBox="0 0 20 21" fill="none" xmlns="http://www.w3.org/2000/svg">
<path d="M12.5024 15.469C16.6462 15.469 20.0048 12.2091 20.0048 8.19057C20.0048 4.17204 16.6462 0.920898 12.5024 0.920898C8.35849 0.920898 5.00293 4.1779 5.00293 8.1935C5.00293 12.2091 8.36151 15.472 12.5024 15.472V15.469ZM6.87854 8.19057C6.87854 5.18253 9.40352 2.73392 12.5024 2.73392C15.6012 2.73392 18.1292 5.18253 18.1292 8.19057C18.1292 11.1986 15.6042 13.6472 12.5024 13.6472C9.4005 13.6472 6.87854 11.2015 6.87854 8.19057Z" fill="#023E8A"/>
<path d="M3.20304 19.7863L7.7939 15.3343C6.72773 14.6753 5.82466 13.7966 5.14207 12.7686L0.548186 17.2118C-0.182729 17.9206 -0.182729 19.0746 0.548186 19.7863C1.28212 20.4951 2.4691 20.4951 3.20304 19.7863Z" fill="#023E8A"/>
</svg>
