<svg width="18" height="29" viewBox="0 0 18 29" fill="none" xmlns="http://www.w3.org/2000/svg">
<path d="M8.0374 27.5361C8.53418 28.5607 9.34146 28.5607 9.83824 27.5272C11.9673 23.1227 17.1392 12.3664 17.3033 11.9095L17.3299 11.8386C17.6537 10.9204 17.84 9.93571 17.84 8.90222C17.8356 3.98759 13.8524 0 8.94226 0C4.03206 0 0.0400391 3.98759 0.0400391 8.90222C0.0400391 9.63409 0.137622 10.3349 0.301739 11.0091L0.31061 11.0535C0.536824 11.9628 5.87283 23.0517 8.0374 27.5361ZM8.94226 3.88557C11.7101 3.88557 13.9633 6.12998 13.9633 8.90222C13.9633 11.6745 11.7101 13.9277 8.94226 13.9277C6.17445 13.9277 3.92118 11.6745 3.92118 8.90222C3.92118 6.12998 6.16558 3.88557 8.94226 3.88557Z" fill="#102851"/>
</svg>
