<svg width="558" height="256" viewBox="0 0 558 256" fill="none" xmlns="http://www.w3.org/2000/svg">
<path fill-rule="evenodd" clip-rule="evenodd" d="M410.759 88.1248C397.742 78.5391 399.983 58.4565 414.793 51.976L527.678 2.58101C542.488 -3.89944 558.759 8.08265 556.966 24.1487L543.302 146.607C541.509 162.673 522.996 170.774 509.979 161.188L490.945 147.172C481.606 140.295 468.46 142.29 461.583 151.629L391.227 247.172C383.048 258.279 366.564 258.618 357.934 247.857L301.114 176.998C292.771 166.594 276.968 166.501 268.503 176.807L209.883 248.178C201.3 258.629 185.22 258.36 176.991 247.629L123.613 178.021C115.403 167.316 99.3734 167.017 90.7712 177.41L30.895 249.748C24.9185 256.968 14.2205 257.976 7.00022 252C-0.220052 246.024 -1.22838 235.326 4.74805 228.105L91.785 122.954C100.387 112.561 116.417 112.86 124.626 123.565L177.903 193.04C186.133 203.772 202.212 204.041 210.795 193.59L268.819 122.945C277.284 112.639 293.087 112.732 301.43 123.136L356.788 192.171C365.418 202.933 381.902 202.593 390.081 191.486L434.251 131.503C441.129 122.164 439.133 109.018 429.794 102.141L410.759 88.1248Z" fill="#00A6FB"/>
</svg>
