<svg width="32" height="32" viewBox="0 0 32 32" fill="none" xmlns="http://www.w3.org/2000/svg">
<path d="M31.3227 20.6069C31.3867 20.4341 31.4251 20.2848 31.4485 20.1653C31.8069 18.8363 32 17.44 32 15.9989C32 7.248 24.9355 0.1152 16.2101 0.00213333V0C16.2027 0 16.1803 0 16.1483 0.00213333C16.0992 0.00213333 16.0501 0 16 0C15.9499 0 15.9019 0.00106667 15.8517 0.00213333C15.8187 0.00106667 15.7973 0 15.7899 0V0.00213333C7.06453 0.1152 0 7.248 0 16C0 17.4411 0.193067 18.8373 0.551467 20.1664C0.574933 20.2859 0.613333 20.4352 0.677333 20.6069C2.64107 27.1264 8.66027 31.9051 15.7899 31.9979V32C15.7973 32 15.8187 32 15.8517 31.9979C15.9008 31.9979 15.9509 32 16 32C16.0491 32 16.0992 31.9989 16.1483 31.9979C16.1803 31.9989 16.2027 32 16.2101 32V31.9979C23.3397 31.9051 29.3589 27.1275 31.3227 20.608V20.6069ZM28.4448 21.6619C27.5776 22.2347 26.1611 22.8672 23.8635 23.3259C24.3093 21.5392 24.5675 19.5008 24.6336 17.2149C26.5856 16.7904 28.1579 16.1909 29.3344 15.4165C29.7717 15.1285 30.1216 14.8363 30.4032 14.5525C30.4501 15.0283 30.4757 15.5104 30.4757 15.9989C30.4757 17.44 30.2635 18.832 29.8688 20.1472C29.7259 20.48 29.3621 21.056 28.4437 21.6619H28.4448ZM2.10987 20.0789C2.08533 19.9968 2.06293 19.9157 2.03947 19.8336C2.03947 19.8304 2.03947 19.8293 2.03947 19.8283C2.03947 19.8293 2.03947 19.8304 2.03947 19.8315C1.70347 18.6101 1.5232 17.3259 1.5232 16C1.5232 15.5125 1.54773 15.0293 1.59573 14.5536C1.87733 14.8373 2.2272 15.1296 2.66453 15.4176C3.84107 16.192 5.41333 16.7915 7.36533 17.216C7.43147 19.504 7.69067 21.5445 8.1376 23.3333C3.44213 22.4011 2.35627 20.7147 2.10987 20.0789ZM4.10667 7.7568C4.38187 8.01813 4.75627 8.29013 5.26613 8.5504C5.98293 8.91733 6.88 9.22133 7.95307 9.46347C7.57013 11.2864 7.36853 13.3525 7.3504 15.6523C2.6464 14.5515 2.0544 12.6763 1.98827 12.3573C2.4224 10.688 3.14773 9.136 4.10667 7.7568ZM30.0117 12.3573C29.9456 12.6763 29.3536 14.5525 24.6496 15.6533C24.6315 13.3536 24.4299 11.2875 24.0469 9.46453C25.12 9.2224 26.0171 8.9184 26.7339 8.55147C27.2448 8.29013 27.6192 8.01813 27.8933 7.75787C28.8523 9.13707 29.5776 10.6891 30.0117 12.3584V12.3573ZM23.1275 15.9552C21.4475 16.2347 19.3579 16.4213 16.7616 16.4523V10.1547C18.9856 10.1291 20.9141 9.99253 22.5376 9.74507C22.9003 11.4315 23.1253 13.4763 23.1285 15.9552H23.1275ZM16.7616 8.6304V1.71093C17.4517 1.92107 18.4213 2.368 19.3995 3.31947C20.3552 4.24853 21.4133 5.77387 22.1579 8.2592C20.7755 8.46187 19.0101 8.60373 16.7616 8.62933V8.6304ZM12.5995 3.31947C13.5776 2.368 14.5472 1.92107 15.2373 1.71093V8.6304C12.976 8.60373 11.2128 8.45867 9.84107 8.25707C10.5856 5.7728 11.6437 4.24853 12.5984 3.31947H12.5995ZM15.2373 10.1536V16.4512C12.6411 16.4203 10.5515 16.2336 8.87147 15.9541C8.87467 13.4752 9.09973 11.4304 9.4624 9.744C11.0848 9.99147 13.0133 10.128 15.2373 10.1536ZM8.90027 17.5008C10.7371 17.7888 12.8512 17.9477 15.2373 17.9755V23.9691C13.0976 23.9435 11.3045 23.8112 9.8016 23.6075C9.33333 21.9979 8.99627 19.9947 8.8992 17.5008H8.90027ZM15.2373 25.4923V30.288C14.5472 30.0779 13.5776 29.6309 12.5995 28.6795C11.8485 27.9499 11.0347 26.8523 10.3595 25.2107C11.8325 25.3781 13.4592 25.472 15.2373 25.4923ZM19.3995 28.6795C18.4203 29.6309 17.4507 30.0779 16.7616 30.288V25.4923C18.5397 25.472 20.1664 25.3771 21.6395 25.2107C20.9643 26.8523 20.1504 27.9499 19.3995 28.6795ZM16.7616 23.9691V17.9755C19.1477 17.9477 21.2629 17.7888 23.0987 17.5008C23.0016 19.9915 22.6656 21.9947 22.1984 23.6032C20.6987 23.808 18.9056 23.9435 16.7616 23.9691ZM26.9515 6.54293C26.8043 6.7072 26.5333 6.94187 26.0395 7.19467C25.5275 7.45707 24.7755 7.73867 23.6789 7.98293C22.9803 5.55413 21.9051 3.63093 20.4608 2.22827C23.0037 3.05387 25.2405 4.56533 26.9515 6.54293ZM11.5392 2.22827C10.0949 3.63093 9.0208 5.55413 8.32213 7.98187C7.49333 7.79733 6.87573 7.59573 6.4192 7.40587C5.63093 7.0784 5.24053 6.76053 5.04853 6.544C6.75947 4.56533 8.99627 3.05387 11.5392 2.22827ZM3.58613 23.44C4.90027 24.1152 6.58347 24.6251 8.62293 24.9696C9.3152 26.9536 10.288 28.5589 11.5381 29.7728C8.1888 28.6848 5.37067 26.4075 3.58613 23.4411V23.44ZM20.4608 29.7717C21.7109 28.5579 22.6837 26.9525 23.376 24.9685C25.4155 24.6251 27.0987 24.1141 28.4128 23.4389C26.6283 26.4064 23.8101 28.6837 20.4608 29.7707V29.7717Z" fill="white"/>
</svg>
