<svg width="33" height="12" viewBox="0 0 33 12" fill="none" xmlns="http://www.w3.org/2000/svg">
<path d="M14.2381 11.1818H11.6221L13.2571 1.13184H15.8731L14.2381 11.1818Z" fill="#0066B2"/>
<path d="M9.42182 1.13177L6.92782 8.04177L6.62782 6.55377L5.74782 2.03577C5.69504 1.75529 5.53727 1.5055 5.30667 1.33733C5.07607 1.16917 4.79001 1.09529 4.50682 1.13077H0.388821L0.34082 1.30077C1.30605 1.54207 2.22872 1.92955 3.07682 2.44977L5.34982 11.1818H8.07482L12.2368 1.13177H9.42182Z" fill="#0066B2"/>
<path d="M23.2995 3.55059L23.6725 1.39259C22.9165 1.12246 22.1222 0.974601 21.3195 0.95459C20.0195 0.95459 16.9395 1.52259 16.9395 4.28059C16.9395 6.88059 20.5575 6.90859 20.5575 8.27159C20.5575 9.63459 17.3125 9.39159 16.2415 8.53159L15.8525 10.7866C16.7866 11.1782 17.7918 11.3716 18.8045 11.3546C20.5895 11.3546 23.2825 10.4296 23.2825 7.91459C23.2825 5.30259 19.6325 5.05959 19.6325 3.92359C19.6325 2.78759 22.1765 2.93159 23.2995 3.55059Z" fill="#0066B2"/>
<path d="M29.9998 11.1817H32.3998L30.2998 1.13166H28.1998C27.9449 1.11153 27.6903 1.17333 27.473 1.30806C27.2557 1.44279 27.0871 1.64341 26.9918 1.88066L23.0918 11.1807H25.8188L26.3638 9.68865H29.6888L29.9998 11.1817ZM27.1178 7.63166L28.4918 3.87165L29.2648 7.63166H27.1178Z" fill="#0066B2"/>
</svg>
