<svg width="31" height="8" viewBox="0 0 31 8" fill="none" xmlns="http://www.w3.org/2000/svg">
<path fill-rule="evenodd" clip-rule="evenodd" d="M3.69027 1.81359H5.83327C6.98427 1.81359 7.41827 2.39659 7.35127 3.25359C7.3634 3.53709 7.31809 3.8201 7.21807 4.08564C7.11804 4.35118 6.96536 4.59375 6.76921 4.79878C6.57305 5.00381 6.33746 5.16706 6.07661 5.27873C5.81576 5.3904 5.53502 5.44818 5.25127 5.44859H4.67927C4.52427 5.44859 4.41927 5.54859 4.37927 5.83059L4.13427 7.45059C4.11827 7.55059 4.06227 7.61759 3.97927 7.62559H2.63527C2.50827 7.62559 2.46327 7.52559 2.49727 7.31859L3.31727 2.11859C3.32015 2.07347 3.3323 2.02943 3.35296 1.98922C3.37361 1.949 3.40234 1.91347 3.43734 1.88486C3.47234 1.85624 3.51287 1.83514 3.55639 1.82288C3.5999 1.81062 3.64548 1.80745 3.69027 1.81359Z" fill="#009DE2"/>
<path fill-rule="evenodd" clip-rule="evenodd" d="M11.6001 1.71756C11.7824 1.69542 11.9674 1.71629 12.1402 1.77851C12.313 1.84072 12.4688 1.94254 12.5952 2.07582C12.7216 2.20909 12.8149 2.37011 12.8679 2.54598C12.9208 2.72185 12.9319 2.90767 12.9001 3.08856C12.7921 4.24756 12.1671 4.88856 11.1841 4.89556H10.3271C10.2031 4.89556 10.1441 4.99556 10.1111 5.20356L9.94606 6.25856C9.92106 6.41756 9.83907 6.49656 9.71807 6.49656H8.91806C8.79106 6.49656 8.74607 6.41456 8.77507 6.23256L9.43506 2.00356C9.46706 1.79556 9.54707 1.71756 9.68807 1.71756H11.6001ZM10.3001 3.98256H10.9511C11.3571 3.96656 11.6281 3.68256 11.6511 3.17756C11.6581 3.10563 11.6492 3.03304 11.625 2.96495C11.6008 2.89686 11.5618 2.83496 11.5109 2.78366C11.46 2.73237 11.3984 2.69295 11.3305 2.66821C11.2626 2.64347 11.19 2.63403 11.1181 2.64056H10.5061L10.2961 3.97956L10.3001 3.98256ZM15.0701 6.17256C15.1431 6.10556 15.2181 6.07256 15.2071 6.15356L15.1811 6.35356C15.1681 6.45356 15.2081 6.50956 15.3041 6.50956H16.0131C16.1321 6.50956 16.1911 6.46156 16.2201 6.27656L16.6571 3.53356C16.6791 3.39556 16.6461 3.32756 16.5411 3.32756H15.7611C15.6911 3.32756 15.6611 3.36756 15.6381 3.47456L15.6091 3.64356C15.5941 3.73156 15.5541 3.74356 15.5161 3.65856C15.3841 3.34456 15.0471 3.20456 14.5731 3.21456C14.0686 3.22509 13.5878 3.43065 13.2317 3.78809C12.8756 4.14554 12.6718 4.62706 12.6631 5.13156C12.6417 5.31609 12.6595 5.50307 12.7153 5.68024C12.7712 5.85741 12.8639 6.02078 12.9873 6.15965C13.1107 6.29852 13.262 6.40976 13.4313 6.48609C13.6007 6.56242 13.7843 6.60211 13.9701 6.60256C14.1733 6.61513 14.3768 6.58356 14.5667 6.51002C14.7566 6.43649 14.9283 6.32273 15.0701 6.17656V6.17256ZM14.4771 5.75056C14.3706 5.75486 14.2646 5.73526 14.1667 5.69319C14.0688 5.65112 13.9816 5.58766 13.9115 5.50747C13.8414 5.42728 13.7902 5.3324 13.7615 5.22979C13.7329 5.12719 13.7276 5.01947 13.7461 4.91456C13.7882 4.68367 13.9087 4.47438 14.0872 4.32207C14.2658 4.16975 14.4914 4.08374 14.7261 4.07856C14.8325 4.07403 14.9386 4.0935 15.0366 4.13551C15.1345 4.17752 15.2217 4.241 15.2918 4.32127C15.3619 4.40153 15.413 4.49652 15.4415 4.59921C15.4699 4.70191 15.4749 4.80968 15.4561 4.91456C15.4144 5.14545 15.2941 5.35482 15.1157 5.50718C14.9373 5.65955 14.7116 5.74553 14.4771 5.75056ZM18.0461 3.31556H17.3291C17.1811 3.31556 17.1211 3.42356 17.1681 3.56256L18.0611 6.17756L17.1811 7.42056C17.1071 7.52056 17.1641 7.62056 17.2681 7.62056H18.0761C18.1233 7.62621 18.1712 7.61807 18.214 7.59714C18.2567 7.5762 18.2925 7.54336 18.3171 7.50256L21.0631 3.56356C21.1481 3.44156 21.1081 3.31456 20.9691 3.31456H20.2001C20.0681 3.31456 20.0161 3.36656 19.9401 3.47556L18.7951 5.13156L18.2851 3.46656C18.2692 3.41636 18.2358 3.37351 18.1911 3.3458C18.1463 3.3181 18.0931 3.30737 18.0411 3.31556H18.0461Z" fill="#113984"/>
<path fill-rule="evenodd" clip-rule="evenodd" d="M23.9161 1.71756C24.0984 1.69542 24.2834 1.71629 24.4562 1.77851C24.629 1.84072 24.7849 1.94254 24.9112 2.07582C25.0376 2.20909 25.131 2.37011 25.184 2.54598C25.2369 2.72185 25.2479 2.90767 25.2161 3.08856C25.1071 4.24756 24.4831 4.88856 23.5001 4.89556H22.6421C22.5191 4.89556 22.4591 4.99556 22.4271 5.20356L22.2621 6.25856C22.2371 6.41756 22.1551 6.49656 22.0341 6.49656H21.2341C21.1061 6.49656 21.0621 6.41456 21.0901 6.23256L21.7501 2.00356C21.7831 1.79556 21.8621 1.71756 22.0031 1.71756H23.9161ZM22.6161 3.98256H23.2661C23.6731 3.96656 23.9431 3.68256 23.9661 3.17756C23.9732 3.10572 23.9643 3.03322 23.9401 2.96521C23.9159 2.8972 23.8771 2.83536 23.8263 2.78408C23.7755 2.7328 23.714 2.69336 23.6462 2.66855C23.5784 2.64375 23.506 2.63419 23.4341 2.64056H22.8221L22.6121 3.97956L22.6161 3.98256ZM27.3861 6.17256C27.4591 6.10556 27.5331 6.07256 27.5231 6.15356L27.4971 6.35356C27.4831 6.45356 27.5241 6.50956 27.6191 6.50956H28.3281C28.4481 6.50956 28.5061 6.46156 28.5351 6.27656L28.9731 3.53356C28.9941 3.39556 28.9611 3.32756 28.8561 3.32756H28.0771C28.0061 3.32756 27.9771 3.36756 27.9541 3.47456L27.9251 3.64356C27.9101 3.73156 27.8691 3.74356 27.8321 3.65856C27.7001 3.34456 27.3621 3.20456 26.8891 3.21456C26.3846 3.22508 25.9037 3.43061 25.5474 3.78803C25.1911 4.14544 24.9871 4.62697 24.9781 5.13156C24.9567 5.31609 24.9745 5.50307 25.0304 5.68024C25.0863 5.85741 25.1789 6.02078 25.3023 6.15965C25.4257 6.29852 25.577 6.40976 25.7464 6.48609C25.9158 6.56242 26.0993 6.60211 26.2851 6.60256C26.4883 6.61499 26.6918 6.58336 26.8817 6.50984C27.0715 6.43631 27.2433 6.32262 27.3851 6.17656L27.3861 6.17256ZM26.7921 5.75056C26.6857 5.75489 26.5797 5.73531 26.4819 5.69323C26.384 5.65116 26.2969 5.58768 26.2268 5.50746C26.1568 5.42724 26.1056 5.33233 26.0771 5.22972C26.0486 5.12711 26.0435 5.01941 26.0621 4.91456C26.1038 4.68367 26.2241 4.4743 26.4025 4.32194C26.5809 4.16957 26.8065 4.08359 27.0411 4.07856C27.1476 4.07426 27.2536 4.09386 27.3515 4.13593C27.4493 4.17799 27.5365 4.24145 27.6067 4.32165C27.6768 4.40184 27.728 4.49672 27.7567 4.59933C27.7853 4.70193 27.7906 4.80965 27.7721 4.91456C27.73 5.14545 27.6095 5.35473 27.431 5.50705C27.2524 5.65937 27.0268 5.74538 26.7921 5.75056ZM30.0641 6.51056H29.2461C29.2318 6.51068 29.2176 6.50773 29.2046 6.50191C29.1915 6.4961 29.1799 6.48755 29.1704 6.47683C29.1609 6.46612 29.1538 6.45351 29.1497 6.43983C29.1455 6.42615 29.1443 6.41174 29.1461 6.39756L29.8661 1.84056C29.8725 1.80904 29.8895 1.78064 29.9142 1.76009C29.9389 1.73954 29.97 1.72806 30.0021 1.72756H30.8211C30.8354 1.72744 30.8496 1.73039 30.8626 1.7362C30.8757 1.74202 30.8874 1.75057 30.8968 1.76128C30.9063 1.77199 30.9134 1.78461 30.9176 1.79829C30.9218 1.81196 30.923 1.82638 30.9211 1.84056L30.2011 6.39756C30.1949 6.42933 30.1778 6.45796 30.1528 6.47856C30.1278 6.49916 30.0965 6.51047 30.0641 6.51056Z" fill="#009DE2"/>
<path fill-rule="evenodd" clip-rule="evenodd" d="M2.34896 0.02557H4.49996C5.13342 -0.0456014 5.77152 0.111089 6.29996 0.467571C6.46394 0.621625 6.58992 0.81163 6.668 1.02263C6.74609 1.23364 6.77415 1.45989 6.74996 1.68357C6.76448 2.01217 6.71263 2.34034 6.59751 2.64845C6.48239 2.95657 6.30635 3.23833 6.07991 3.4769C5.85347 3.71548 5.58127 3.90597 5.27958 4.03701C4.97788 4.16804 4.65287 4.23694 4.32396 4.23957H3.26496C3.08496 4.23957 2.96496 4.35957 2.91496 4.68257L2.61496 6.56157C2.59496 6.68357 2.54296 6.75457 2.44596 6.76157H1.12396C0.97796 6.76157 0.923957 6.64957 0.963957 6.40657L1.91596 0.37957C1.91888 0.327042 1.93271 0.275699 1.95656 0.228806C1.98041 0.181913 2.01376 0.140498 2.05449 0.107199C2.09522 0.0738999 2.14244 0.0494464 2.19314 0.0353929C2.24383 0.0213393 2.2969 0.017993 2.34896 0.02557Z" fill="#113984"/>
<path fill-rule="evenodd" clip-rule="evenodd" d="M2.94141 4.49371L3.31541 2.12171C3.31788 2.07623 3.32976 2.03176 3.3503 1.99112C3.37085 1.95047 3.39962 1.91453 3.43478 1.88558C3.46993 1.85663 3.51071 1.83529 3.55454 1.82292C3.59837 1.81055 3.6443 1.80741 3.68941 1.81371H5.83241C6.12933 1.80446 6.42483 1.85831 6.6994 1.97171C6.66927 2.58531 6.40353 3.16362 5.95754 3.58613C5.51156 4.00864 4.91974 4.24276 4.3054 4.23971H3.24741C3.10741 4.23971 2.99941 4.31171 2.94141 4.49371Z" fill="#172C70"/>
</svg>
