<svg width="32" height="13" viewBox="0 0 32 13" fill="none" xmlns="http://www.w3.org/2000/svg">
<path d="M19.8993 1.18189C19.8993 1.18189 20.8513 1.84489 19.8993 1.96889C17.5936 2.31968 15.4375 3.32638 13.6883 4.86889C13.6883 4.86889 9.7143 8.34589 8.2233 12.1559C8.2233 12.1559 7.7233 12.1559 7.8923 11.4099C8.0613 10.6639 9.05129 7.39489 13.4813 3.37789C13.4813 3.37789 17.7463 -0.51311 19.8993 1.18389V1.18189ZM8.5993 1.68189C8.6403 2.59289 9.42729 6.06989 9.42729 6.06989C9.71729 6.76989 9.9653 6.06989 9.9653 6.06989C10.259 5.30308 10.3214 4.46701 10.1449 3.66509C9.96843 2.86317 9.56076 2.13056 8.97231 1.55789C8.47231 1.26789 8.5993 1.68189 8.5993 1.68189Z" fill="#F64D25"/>
<path d="M2.25032 6.74094C2.07247 6.74337 1.89483 6.72729 1.72031 6.69294L2.07932 4.77194C2.26466 4.74415 2.45191 4.73111 2.63931 4.73294C3.17131 4.73294 3.60631 4.93294 3.60631 5.55394C3.59999 5.72256 3.5593 5.88811 3.48672 6.04045C3.41415 6.19278 3.31123 6.32869 3.18427 6.43983C3.0573 6.55097 2.90897 6.63501 2.74837 6.68679C2.58777 6.73856 2.41829 6.75699 2.25032 6.74094ZM2.53632 4.04094C2.07159 4.03349 1.60755 4.07946 1.15332 4.17794L0.15332 9.49794H1.26831L1.63132 7.55094C1.75032 7.55794 1.90831 7.58194 2.09831 7.58194C2.70767 7.60595 3.30786 7.42769 3.80531 7.07494C4.03408 6.89373 4.21802 6.66227 4.34288 6.3985C4.46774 6.13472 4.53017 5.84573 4.52531 5.55394C4.53656 5.32851 4.48923 5.10401 4.38794 4.9023C4.28665 4.70059 4.13484 4.52855 3.94731 4.40294C3.52342 4.14122 3.02982 4.01494 2.53232 4.04094H2.53632Z" fill="#363636"/>
<path d="M5.72522 8.84425C5.35922 8.84425 5.18622 8.54425 5.18622 8.10425C5.18622 7.27325 5.80823 6.23125 6.65723 6.23125C6.77409 6.23242 6.89059 6.24447 7.00522 6.26725L6.82222 7.30025C6.62222 8.40025 6.12223 8.84425 5.72223 8.84425H5.72522ZM6.99422 5.45325C6.61418 5.43023 6.23353 5.48677 5.8766 5.61927C5.51967 5.75177 5.19432 5.95731 4.92137 6.22273C4.64842 6.48816 4.43387 6.80763 4.29144 7.16071C4.14901 7.5138 4.08184 7.89272 4.09422 8.27325C4.0729 8.44778 4.08849 8.62483 4.13998 8.79295C4.19147 8.96107 4.2777 9.11649 4.3931 9.24914C4.5085 9.3818 4.65049 9.48872 4.80986 9.56299C4.96923 9.63725 5.14242 9.6772 5.31822 9.68025C5.60762 9.67384 5.88949 9.58687 6.1322 9.42913C6.37491 9.27139 6.56884 9.04911 6.69221 8.78725H6.70923C6.69223 9.07625 6.66722 9.35825 6.65922 9.58725H7.75122C7.74979 8.97678 7.80503 8.3675 7.91623 7.76725L8.32222 5.64925C7.89028 5.51829 7.44157 5.45092 6.99022 5.44925L6.99422 5.45325Z" fill="#363636"/>
<path d="M14.4583 8.87707C14.3501 8.87823 14.2428 8.85603 14.1439 8.81199C14.045 8.76794 13.9568 8.70308 13.8852 8.62184C13.8136 8.54059 13.7604 8.44486 13.7292 8.34119C13.698 8.23751 13.6895 8.12832 13.7043 8.02107C13.7043 7.33707 14.1103 6.25607 14.9113 6.25607C15.0178 6.25422 15.1233 6.27542 15.2208 6.31821C15.3183 6.36101 15.4054 6.42438 15.476 6.50399C15.5467 6.58359 15.5993 6.67755 15.6303 6.7794C15.6612 6.88126 15.6698 6.9886 15.6553 7.09407C15.6553 7.84107 15.2203 8.87707 14.4673 8.87707H14.4583ZM15.0373 5.45307C14.7086 5.45481 14.3836 5.52317 14.0821 5.65403C13.7805 5.78489 13.5086 5.97553 13.2828 6.21444C13.0569 6.45334 12.8819 6.73555 12.7682 7.044C12.6545 7.35246 12.6046 7.68076 12.6213 8.00907C12.6106 8.23566 12.6482 8.46194 12.7315 8.67291C12.8149 8.88387 12.9422 9.07469 13.105 9.23271C13.2677 9.39073 13.4622 9.51234 13.6755 9.58947C13.8889 9.6666 14.1162 9.69748 14.3423 9.68007H14.3503C14.6792 9.68012 15.0046 9.61289 15.3065 9.48252C15.6084 9.35215 15.8805 9.16139 16.1059 8.92198C16.3314 8.68256 16.5055 8.39956 16.6175 8.09037C16.7295 7.78118 16.7771 7.45234 16.7573 7.12407C16.7664 6.89798 16.7278 6.67252 16.6439 6.46237C16.56 6.25222 16.4328 6.06212 16.2705 5.90445C16.1082 5.74678 15.9145 5.62509 15.702 5.54732C15.4895 5.46954 15.2631 5.43743 15.0373 5.45307Z" fill="#363636"/>
<path d="M19.9259 5.45287C19.646 5.45514 19.3708 5.52562 19.1243 5.65823C18.8777 5.79083 18.6672 5.98155 18.5109 6.21387H18.4989L18.573 5.54287H17.5219C17.4729 5.90787 17.4069 6.34287 17.3069 6.85887L16.7939 9.58887H17.9859L18.3169 7.78887C18.4909 6.89587 18.9369 6.40687 19.3259 6.40687C19.6319 6.40687 19.7319 6.60687 19.7319 6.89587C19.7307 7.04546 19.7167 7.19468 19.6899 7.34187L19.2679 9.58387H20.4599L20.9059 7.23387C20.9435 7.00966 20.9656 6.78312 20.972 6.55587C20.9914 6.41147 20.9783 6.26457 20.9338 6.12585C20.8893 5.98712 20.8144 5.86007 20.7146 5.75394C20.6148 5.6478 20.4926 5.56526 20.3568 5.51232C20.2211 5.45937 20.0753 5.43735 19.9299 5.44787L19.9259 5.45287Z" fill="#363636"/>
<path d="M22.399 7.24601H22.299C22.3474 6.97122 22.488 6.72113 22.6976 6.53698C22.9072 6.35283 23.1733 6.24561 23.452 6.23301C23.783 6.23301 23.983 6.40401 23.983 6.64501V6.65501C23.983 7.09301 23.455 7.24701 22.396 7.24701L22.399 7.24601ZM23.55 5.45301C23.2297 5.4623 22.9144 5.53484 22.6222 5.66645C22.33 5.79806 22.0667 5.98614 21.8474 6.21988C21.6282 6.45362 21.4573 6.72839 21.3447 7.0284C21.232 7.32841 21.1798 7.64774 21.191 7.96801C21.1682 8.20216 21.1982 8.43846 21.2789 8.65946C21.3596 8.88045 21.4889 9.0805 21.6573 9.24483C21.8256 9.40917 22.0288 9.53359 22.2516 9.60891C22.4745 9.68423 22.7115 9.70853 22.945 9.68001C23.4647 9.68582 23.9791 9.57582 24.451 9.35801L24.369 8.49701C24.0158 8.66879 23.6278 8.75674 23.235 8.75401C23.0899 8.76584 22.944 8.74352 22.8091 8.68881C22.6742 8.63411 22.5539 8.54856 22.458 8.43901C22.3786 8.3157 22.3353 8.17264 22.333 8.02601H22.568C24.051 8.02601 24.956 7.64101 24.956 6.66601C24.9529 6.49064 24.9129 6.31788 24.8386 6.15902C24.7643 6.00015 24.6573 5.85874 24.5246 5.744C24.3919 5.62926 24.2366 5.54378 24.0686 5.49312C23.9007 5.44247 23.724 5.42778 23.55 5.45001V5.45301Z" fill="#363636"/>
<path d="M26.1842 7.24614H26.0842C26.1326 6.97135 26.2731 6.72126 26.4827 6.53711C26.6923 6.35296 26.9585 6.24574 27.2372 6.23314C27.5672 6.23314 27.7682 6.40414 27.7682 6.64514V6.65514C27.7682 7.09314 27.2392 7.24713 26.1812 7.24713L26.1842 7.24614ZM27.3342 5.45314C27.0139 5.46243 26.6986 5.53497 26.4065 5.6666C26.1143 5.79822 25.8511 5.98632 25.6319 6.22007C25.4128 6.45382 25.242 6.7286 25.1295 7.02861C25.0169 7.32861 24.9648 7.64792 24.9762 7.96814C24.9533 8.20229 24.9834 8.43859 25.0641 8.65959C25.1448 8.88058 25.2741 9.08063 25.4424 9.24496C25.6108 9.40929 25.8139 9.53372 26.0368 9.60904C26.2597 9.68436 26.4966 9.70865 26.7302 9.68014C27.2499 9.68595 27.7643 9.57595 28.2362 9.35813L28.1532 8.49713C27.8004 8.66904 27.4126 8.757 27.0202 8.75413C26.8749 8.76597 26.7289 8.74365 26.5938 8.68895C26.4587 8.63426 26.3383 8.5487 26.2422 8.43914C26.1635 8.31557 26.1206 8.17261 26.1182 8.02614H26.3532C27.8352 8.02614 28.7412 7.64114 28.7412 6.66614C28.7381 6.49067 28.6981 6.31782 28.6237 6.15888C28.5493 5.99993 28.4422 5.85847 28.3094 5.74371C28.1766 5.62896 28.0211 5.5435 27.8531 5.49291C27.6851 5.44233 27.5082 5.42775 27.3342 5.45014V5.45314Z" fill="#363636"/>
<path d="M31.4435 5.44385C30.8895 5.44385 30.5635 5.83285 30.2825 6.37885H30.2495C30.2825 6.08985 30.3065 5.81685 30.3235 5.54285H29.2995C29.3081 6.17767 29.2589 6.81195 29.1525 7.43785L28.6875 9.58885H29.6815L29.9395 8.08385C30.0885 7.28885 30.4875 6.48385 31.2395 6.48385C31.3 6.48191 31.3605 6.48492 31.4205 6.49285L31.6685 5.45585C31.6015 5.45585 31.5275 5.44685 31.4445 5.44685L31.4435 5.44385Z" fill="#363636"/>
</svg>
