<svg width="30" height="11" viewBox="0 0 30 11" fill="none" xmlns="http://www.w3.org/2000/svg">
<path d="M23.7598 1.63962L26.2448 1.19462V10.7316H23.7598V1.63962ZM27.3888 1.63962V10.7396H29.8758V1.19962L27.3888 1.63962ZM20.2208 10.7396H22.7068V3.75662H20.2208V10.7396ZM3.79184 4.74862C3.47684 4.72862 2.74983 4.68062 2.74983 4.02662C2.74983 3.23562 3.79683 3.23562 4.18983 3.23562C4.94523 3.26966 5.69292 3.40246 6.41383 3.63062C6.41383 3.63062 6.77084 3.75662 7.07384 3.88562L7.10184 3.89262V1.72362L7.06284 1.71262C6.01939 1.33806 4.915 1.16236 3.80684 1.19462C1.00684 1.19462 0.00683594 2.82662 0.00683594 4.22562C0.00683594 5.03162 0.352829 6.92562 3.56183 7.14862C3.83383 7.16462 4.55583 7.20662 4.55583 7.88363C4.55583 8.44163 3.96483 8.77162 2.97083 8.77162C2.01591 8.7632 1.07064 8.57984 0.181839 8.23063V10.4596C1.26735 10.7252 2.38247 10.8502 3.49983 10.8316C6.24083 10.8316 7.46783 9.28762 7.46783 7.75662C7.46883 6.02562 6.09984 4.89762 3.79184 4.74362V4.74862ZM18.8188 3.65962C16.5188 3.73362 15.3548 4.75962 15.3548 6.81362V10.7316H17.8618V7.53162C17.8618 6.30462 18.0228 5.77862 19.4788 5.73162V3.69062C19.2605 3.65775 19.0395 3.64569 18.8188 3.65462V3.65962ZM12.0748 3.75362C11.7386 4.63515 11.2602 5.45567 10.6588 6.18262V1.19462L8.09383 1.70162V10.7316H10.6588V7.94263C11.1716 8.80999 11.5461 9.75196 11.7688 10.7346H14.8418C14.4176 9.48542 13.8703 8.2815 13.2078 7.14062C13.9984 6.12189 14.6074 4.9744 15.0078 3.74862L12.0748 3.75362ZM21.4628 3.09262C21.7054 3.09302 21.9427 3.02143 22.1446 2.88691C22.3465 2.75239 22.504 2.561 22.597 2.33695C22.6901 2.1129 22.7146 1.86628 22.6674 1.6283C22.6203 1.39032 22.5036 1.17169 22.3321 1.00007C22.1606 0.828447 21.9421 0.711562 21.7041 0.664207C21.4662 0.616852 21.2196 0.641157 20.9954 0.734045C20.7713 0.826932 20.5798 0.984226 20.4451 1.18601C20.3104 1.3878 20.2386 1.62502 20.2388 1.86762C20.2402 2.19147 20.3697 2.50162 20.599 2.73025C20.8284 2.95887 21.139 3.08736 21.4628 3.08762V3.09262Z" fill="#862165"/>
</svg>
