<svg width="21" height="20" viewBox="0 0 21 20" fill="none" xmlns="http://www.w3.org/2000/svg">
<path d="M10.4994 19.3368L10.1884 19.1726C6.35943 17.1488 3.5514 14.8892 1.84226 12.4563C-0.0165393 9.8101 -0.140916 7.56778 0.0818672 6.15235C0.49053 3.55651 2.42929 1.49162 4.90655 1.01363C7.00864 0.607801 9.04307 1.4327 10.4994 3.23741C11.9556 1.43204 13.9914 0.607801 16.0935 1.01429C18.5708 1.49294 20.5102 3.55849 20.9182 6.15367C21.141 7.56911 21.0159 9.81142 19.1571 12.4576C17.448 14.8906 14.6393 17.1501 10.8096 19.1733L10.4987 19.3375L10.4994 19.3368ZM5.96443 2.16888C5.69996 2.16888 5.43139 2.1947 5.16077 2.247C3.21723 2.62238 1.6926 4.26753 1.36594 6.34235C1.09669 8.05173 1.63315 9.92132 2.91654 11.7492C4.46303 13.9505 7.01342 16.02 10.5 17.9028C13.9873 16.02 16.5384 13.9511 18.0849 11.7499C19.3683 9.92264 19.9048 8.05305 19.6362 6.34368C19.3095 4.26952 17.7849 2.6237 15.8407 2.24833C13.9867 1.89016 12.2427 2.77332 11.0549 4.67138L10.4994 5.55917L9.94445 4.67138C8.93099 3.05071 7.51161 2.17021 5.96443 2.17021V2.16888Z" fill="#2E2E2B"/>
</svg>
