<svg width="63" height="65" viewBox="0 0 63 65" fill="none" xmlns="http://www.w3.org/2000/svg">
<path d="M61.2192 41.721C59.7656 39.5403 56.8083 38.9488 54.6276 40.4027L48.896 44.2414C48.3545 44.602 48.2086 45.3333 48.5692 45.8744C48.9302 46.4156 49.6611 46.5619 50.2023 46.2009L55.9342 42.3622C57.034 41.6289 58.526 41.9274 59.2597 43.0276C59.9934 44.1275 59.6948 45.6197 58.5946 46.3531L41.3136 57.8918C41.1221 58.0195 40.9153 58.1189 40.699 58.1862C40.3725 58.2887 40.0208 58.3181 39.6781 58.2739L23.0355 53.5114C22.9931 53.4986 22.9496 53.4872 22.9051 53.4789C21.6848 53.2546 20.4438 53.5107 19.4105 54.1995L18.42 54.8604L12.0141 45.2515L19.7135 40.089C20.833 39.3429 22.1721 39.0689 23.4925 39.3118L41.4185 45.0607C41.4185 45.0607 41.4199 45.061 41.4206 45.061C41.4216 45.061 41.422 45.0617 41.4227 45.062C42.6651 45.4555 43.3767 46.7755 43.0081 48.0041C42.8286 48.6011 42.4228 49.0926 41.8647 49.3873C41.3005 49.6855 40.6493 49.7473 40.0308 49.5616C40.025 49.5599 40.0191 49.5588 40.0132 49.5571C40.0063 49.5554 40.0005 49.5526 39.9936 49.5512L31.2398 47.2311C30.6114 47.0644 29.9667 47.4392 29.8 48.0676C29.71 48.4072 29.778 48.752 29.9588 49.0225C30.1124 49.2534 30.3477 49.4308 30.6366 49.5071L39.3903 51.8276C39.3903 51.8276 39.3931 51.8276 39.3941 51.8283C40.5965 52.1782 41.8627 52.0519 42.9646 51.47C44.0852 50.8782 44.9017 49.8877 45.2641 48.6809C45.9995 46.2295 44.599 43.6022 42.1422 42.8195C42.1408 42.8195 42.1395 42.8185 42.1381 42.8181L24.2379 37.0776C24.1734 37.052 24.1061 37.031 24.0353 37.0168C22.0723 36.6241 20.0735 37.0193 18.4052 38.1315L10.7082 43.2923L10.027 42.2708C9.66633 41.7297 8.93504 41.5833 8.3939 41.9443L0.524363 47.1903C-0.0167696 47.551 -0.162751 48.2823 0.197889 48.8234L6.62246 58.4599C6.9831 59.001 7.71438 59.1474 8.25517 58.7867C8.7963 58.4257 8.94263 57.6948 8.58165 57.1537L2.81037 48.4969L8.72003 44.5568L17.8113 58.1931L11.9016 62.1329L11.6176 61.707C11.2566 61.1659 10.5257 61.0196 9.98452 61.3806C9.44339 61.7415 9.29706 62.4725 9.65804 63.0133L10.5954 64.4193C10.956 64.9604 11.6873 65.1067 12.2284 64.7457L20.098 59.4994C20.6391 59.1384 20.7851 58.4074 20.4244 57.8663L19.727 56.8203L20.7181 56.1587C21.2265 55.8198 21.8346 55.6904 22.4357 55.7894L39.1125 60.5616C39.1146 60.5623 39.1166 60.5623 39.1184 60.5633C39.1401 60.5692 39.1622 60.5737 39.1843 60.5782C39.2036 60.5827 39.2226 60.5875 39.2419 60.5906C39.2467 60.5913 39.2509 60.5927 39.2557 60.5934C39.9722 60.7045 40.7145 60.6493 41.403 60.4336C41.8326 60.299 42.2423 60.1033 42.6202 59.8514L59.9012 48.3126C62.0816 46.859 62.6731 43.9018 61.2192 41.7214V41.721Z" fill="black"/>
<path d="M45.3058 17.6971C45.1219 17.5942 44.1245 17.0662 42.5422 16.7525L42.4815 16.7404V10.7745L42.5743 10.7966C43.1824 10.9416 43.7439 11.2139 44.1973 11.5845C44.8817 12.1436 45.2658 12.879 45.2789 13.6548C45.29 14.3033 45.8276 14.8306 46.4782 14.8306H46.4954C47.1549 14.8192 47.6823 14.2733 47.6712 13.6137C47.6453 12.1222 46.9492 10.7435 45.7113 9.73161C44.8486 9.02689 43.7818 8.55582 42.6254 8.36946L42.5632 8.35945L42.5384 6.91309C42.527 6.26463 41.9893 5.7373 41.3388 5.7373H41.3219C40.6624 5.74869 40.135 6.29466 40.1464 6.95416L40.1713 8.40052L40.1095 8.4126C38.9603 8.63864 37.9101 9.14596 37.0725 9.88C35.8698 10.934 35.2214 12.3355 35.2469 13.827C35.2718 15.2827 35.9392 16.6373 37.125 17.6408L37.1385 17.6522C37.8501 18.2427 38.7933 18.6158 40.1068 18.8266L40.1703 18.8366V26.1016L40.074 26.0733C39.2478 25.831 38.5375 25.3993 38.0199 24.8246C37.4874 24.2335 37.1992 23.5332 37.1864 22.7992C37.175 22.1507 36.6377 21.6234 35.9872 21.6234H35.9699C35.6503 21.6289 35.3518 21.7587 35.1299 21.9882C34.9077 22.218 34.7886 22.5203 34.7941 22.8403C34.8083 23.6699 35.0133 24.4695 35.4032 25.2174C35.7718 25.9242 36.2881 26.5516 36.9383 27.0824C37.8062 27.7916 38.8744 28.2902 40.027 28.5242L40.0864 28.5363L40.1126 30.0524C40.1237 30.7005 40.66 31.2278 41.3081 31.2278H41.3291C41.6487 31.2223 41.9469 31.0925 42.1688 30.8627C42.3907 30.6328 42.5101 30.3305 42.5046 30.011L42.4808 28.6281L42.5481 28.6198C44.0303 28.4376 45.3749 27.8495 46.4364 26.9198C47.068 26.3663 47.5629 25.7216 47.9066 25.0031C48.2707 24.2424 48.4481 23.4359 48.4339 22.6063C48.3994 20.6053 47.2305 18.77 45.3065 17.6971H45.3058ZM42.5705 26.1968L42.4815 26.213V19.1883L42.5753 19.2121C43.5327 19.4561 44.0814 19.7536 44.1407 19.7867C45.311 20.4393 46.0212 21.5085 46.0409 22.647C46.0699 24.3287 44.6104 25.8213 42.5705 26.1965V26.1968ZM40.1699 10.8563V16.4067L40.0791 16.3877C39.4352 16.2525 38.9744 16.0651 38.6704 15.8145L38.6683 15.8131C38.0175 15.2599 37.6516 14.5404 37.6385 13.7863C37.6254 13.0102 37.984 12.262 38.6487 11.6798C39.0514 11.3267 39.5304 11.0603 40.0716 10.8877L40.1699 10.8563Z" fill="black"/>
<path d="M58.6433 11.2879C57.7122 9.08674 56.3801 7.11064 54.6828 5.41339C52.9859 3.71649 51.0095 2.38402 48.8084 1.45291C46.5293 0.488676 44.1087 0 41.6142 0C39.1197 0 36.6991 0.488676 34.4197 1.45291C32.2189 2.38367 30.2425 3.71614 28.5452 5.41339C26.8483 7.1103 25.5159 9.08674 24.5847 11.2879C23.6209 13.5673 23.1318 15.9876 23.1318 18.482C23.1318 20.9765 23.6205 23.3971 24.5847 25.6765C25.5159 27.8776 26.8483 29.8537 28.5452 31.551C30.2421 33.2479 32.2186 34.5804 34.4197 35.5115C36.6988 36.4757 39.1194 36.9644 41.6142 36.9644C44.109 36.9644 46.5293 36.4757 48.8087 35.5115C51.0098 34.5804 52.9863 33.2479 54.6832 31.551C56.3801 29.8541 57.7125 27.8776 58.6436 25.6765C59.6075 23.3974 60.0966 20.9768 60.0966 18.482C60.0966 15.9872 59.6079 13.567 58.6436 11.2879H58.6433ZM57.8119 18.482C57.8119 27.4135 50.5456 34.6798 41.6142 34.6798C32.6828 34.6798 25.4165 27.4135 25.4165 18.482C25.4165 9.55057 32.6828 2.28428 41.6142 2.28428C50.5456 2.28428 57.8119 9.55057 57.8119 18.482Z" fill="black"/>
</svg>
