<svg width="34" height="7" viewBox="0 0 34 7" fill="none" xmlns="http://www.w3.org/2000/svg">
<path fill-rule="evenodd" clip-rule="evenodd" d="M13.2866 5.12562C11.9416 6.03871 10.3523 6.52456 8.72662 6.51962C6.67028 6.53037 4.68412 5.77249 3.15764 4.39462C3.04164 4.29462 3.14463 4.14862 3.28363 4.22862C4.98055 5.19916 6.90178 5.70902 8.85663 5.70762C10.3171 5.7001 11.7617 5.40446 13.1076 4.83762C13.3156 4.74962 13.4906 4.97562 13.2866 5.12562Z" fill="#F8991D"/>
<path fill-rule="evenodd" clip-rule="evenodd" d="M12.3876 0.823794V0.341794C12.3873 0.325698 12.3903 0.309713 12.3963 0.294789C12.4024 0.279865 12.4114 0.266308 12.4227 0.254925C12.4341 0.243542 12.4477 0.234565 12.4626 0.228529C12.4775 0.222494 12.4935 0.219523 12.5096 0.219794H14.6686C14.6849 0.219249 14.7011 0.222018 14.7162 0.227931C14.7314 0.233843 14.7452 0.242776 14.7568 0.254187C14.7684 0.265598 14.7775 0.27925 14.7837 0.29431C14.7899 0.309371 14.7929 0.325525 14.7926 0.341794V0.754794C14.7926 0.823794 14.7336 0.913795 14.6306 1.05479L13.5126 2.6548C13.9392 2.63119 14.3642 2.72236 14.7436 2.9188C14.7775 2.93733 14.806 2.96445 14.8262 2.99744C14.8464 3.03043 14.8576 3.06814 14.8586 3.10679V3.62079C14.8591 3.64006 14.8547 3.65913 14.8459 3.67629C14.8372 3.69345 14.8242 3.70815 14.8084 3.71907C14.7925 3.72998 14.7741 3.73677 14.755 3.73882C14.7358 3.74087 14.7164 3.73811 14.6986 3.7308C14.3461 3.54891 13.9552 3.454 13.5586 3.454C13.162 3.454 12.7711 3.54891 12.4186 3.7308C12.3426 3.7708 12.2646 3.6898 12.2646 3.6198V3.13179C12.258 3.01598 12.2858 2.9008 12.3446 2.8008L13.6446 0.941794H12.5166C12.5004 0.942473 12.4841 0.939837 12.4689 0.934048C12.4537 0.928259 12.4398 0.919438 12.4281 0.90812C12.4165 0.896802 12.4072 0.883224 12.4009 0.868212C12.3946 0.8532 12.3915 0.837066 12.3916 0.820794L12.3876 0.823794Z" fill="#333E47"/>
<path fill-rule="evenodd" clip-rule="evenodd" d="M4.51328 3.83159H3.85626C3.82655 3.83031 3.7983 3.8184 3.77664 3.79803C3.75498 3.77765 3.74137 3.75017 3.73828 3.72059V0.349592C3.73867 0.333307 3.74225 0.317258 3.74884 0.302362C3.75543 0.287467 3.76491 0.274016 3.7767 0.262779C3.7885 0.251542 3.80237 0.242739 3.81757 0.236874C3.83276 0.231008 3.84898 0.228193 3.86526 0.228592H4.47626C4.50663 0.229453 4.53565 0.241437 4.55777 0.262268C4.57989 0.283099 4.59357 0.311325 4.59625 0.341591V0.781591H4.60828C4.66601 0.599307 4.78027 0.440146 4.93454 0.327181C5.08881 0.214216 5.27507 0.15332 5.46628 0.15332C5.65749 0.15332 5.84372 0.214216 5.99799 0.327181C6.15226 0.440146 6.26655 0.599307 6.32428 0.781591C6.38539 0.621334 6.4879 0.480148 6.62137 0.372423C6.75483 0.264698 6.91447 0.194285 7.08401 0.168365C7.25356 0.142446 7.42693 0.161945 7.58649 0.224874C7.74604 0.287804 7.88608 0.391914 7.99228 0.526592C8.1539 0.85382 8.2118 1.22257 8.15826 1.58359V3.71059C8.15788 3.72688 8.1543 3.74293 8.14771 3.75782C8.14111 3.77272 8.13164 3.78617 8.11984 3.79741C8.10805 3.80864 8.09415 3.81745 8.07895 3.82331C8.06375 3.82918 8.04757 3.83199 8.03128 3.83159H7.37527C7.34396 3.83031 7.31435 3.81703 7.29257 3.7945C7.27079 3.77197 7.2585 3.74193 7.25827 3.71059V1.92359C7.26787 1.7131 7.26185 1.50219 7.24026 1.29259C7.22762 1.20284 7.17986 1.12177 7.10748 1.06721C7.03511 1.01265 6.94405 0.989045 6.85428 1.00159C6.7688 1.00402 6.68593 1.03159 6.61603 1.08086C6.54613 1.13013 6.4923 1.1989 6.46127 1.27859C6.40688 1.489 6.38628 1.70672 6.40027 1.92359V3.71059C6.39988 3.72688 6.39627 3.74293 6.38968 3.75782C6.38309 3.77272 6.37364 3.78617 6.36185 3.79741C6.35005 3.80864 6.33615 3.81745 6.32095 3.82331C6.30576 3.82918 6.28954 3.83199 6.27325 3.83159H5.61728C5.58597 3.83031 5.55633 3.81703 5.53455 3.7945C5.51276 3.77197 5.50051 3.74193 5.50027 3.71059V1.92359C5.50027 1.54759 5.56128 0.994593 5.10028 0.994593C4.63928 0.994593 4.64728 1.53359 4.64728 1.92359V3.71059C4.64702 3.72683 4.64354 3.74286 4.63705 3.75775C4.63057 3.77264 4.62118 3.7861 4.60947 3.79735C4.59775 3.8086 4.58393 3.81741 4.56879 3.82329C4.55365 3.82917 4.53751 3.83199 4.52127 3.83159H4.51328Z" fill="#333E47"/>
<path fill-rule="evenodd" clip-rule="evenodd" d="M16.6578 0.845739C16.1738 0.845739 16.1428 1.50574 16.1428 1.91674C16.1428 2.32774 16.1368 3.20774 16.6518 3.20774C17.1668 3.20774 17.1848 2.49874 17.1848 2.06574C17.1949 1.76447 17.1612 1.46333 17.0848 1.17174C17.0645 1.07485 17.01 0.988524 16.9312 0.928633C16.8524 0.868742 16.7546 0.839308 16.6558 0.845739H16.6578ZM16.6518 0.157738C17.6268 0.157738 18.1518 0.994739 18.1518 2.05774C18.1518 3.08574 17.5688 3.90174 16.6518 3.90174C15.6948 3.90174 15.1738 3.06474 15.1738 2.02174C15.1738 0.978738 15.7018 0.157738 16.6518 0.157738Z" fill="#333E47"/>
<path fill-rule="evenodd" clip-rule="evenodd" d="M19.4175 3.83162H18.7635C18.7321 3.83034 18.7024 3.81709 18.6805 3.79459C18.6585 3.77209 18.646 3.74204 18.6455 3.71062V0.338616C18.649 0.307864 18.6638 0.279527 18.6872 0.259173C18.7105 0.238819 18.7406 0.227919 18.7715 0.228616H19.3805C19.4075 0.229665 19.4335 0.239369 19.4545 0.256295C19.4756 0.273221 19.4907 0.296472 19.4975 0.322615V0.838616H19.5095C19.558 0.639706 19.6734 0.463505 19.8363 0.339528C19.9993 0.215551 20.1999 0.151326 20.4045 0.157615C20.5561 0.150765 20.7069 0.184164 20.8414 0.254418C20.9759 0.324672 21.0895 0.42928 21.1705 0.557616C21.3152 0.887592 21.3743 1.24872 21.3425 1.60762V3.72862C21.3381 3.75864 21.3229 3.78601 21.2997 3.80555C21.2764 3.82508 21.2469 3.83542 21.2165 3.83461H20.5585C20.5297 3.83329 20.5023 3.82198 20.481 3.80264C20.4596 3.7833 20.4456 3.75712 20.4415 3.72862V1.89862C20.4415 1.52962 20.4845 0.990615 20.0305 0.990615C19.948 0.994241 19.8683 1.02154 19.801 1.06924C19.7336 1.11694 19.6813 1.18303 19.6505 1.25962C19.5711 1.46281 19.537 1.68088 19.5505 1.89862V3.71362C19.5492 3.74651 19.5351 3.77758 19.5112 3.8002C19.4872 3.82281 19.4554 3.83516 19.4225 3.83461L19.4175 3.83162Z" fill="#333E47"/>
<path fill-rule="evenodd" clip-rule="evenodd" d="M11.3292 3.8239C11.308 3.84197 11.2817 3.85309 11.254 3.85578C11.2263 3.85846 11.1984 3.85257 11.1742 3.8389C11.0231 3.71709 10.8957 3.56864 10.7982 3.4009C10.6684 3.56061 10.5025 3.68722 10.3142 3.77032C10.1259 3.85342 9.92061 3.89063 9.71514 3.8789C9.58044 3.88679 9.44563 3.86538 9.32 3.81613C9.19438 3.76688 9.08093 3.69096 8.98748 3.59361C8.89404 3.49627 8.82282 3.37982 8.77874 3.25228C8.73466 3.12475 8.71875 2.98917 8.73214 2.8549C8.72451 2.62581 8.7876 2.39992 8.91284 2.20794C9.03808 2.01597 9.21941 1.86721 9.43216 1.7819C9.83126 1.649 10.2469 1.57227 10.6671 1.5539V1.4689C10.688 1.30581 10.6602 1.14021 10.5872 0.992897C10.5442 0.936824 10.4882 0.891985 10.4242 0.862209C10.3601 0.832432 10.2897 0.818602 10.2191 0.821897C10.0983 0.812436 9.97822 0.847171 9.8811 0.919643C9.78398 0.992115 9.71648 1.09739 9.69116 1.2159C9.68773 1.24566 9.67477 1.27351 9.65423 1.29532C9.63369 1.31712 9.60665 1.33171 9.57714 1.3369L8.94015 1.2679C8.92436 1.26599 8.90913 1.26085 8.89541 1.2528C8.88169 1.24476 8.86976 1.23397 8.86038 1.22113C8.851 1.20828 8.84436 1.19364 8.84088 1.17811C8.8374 1.16259 8.83715 1.14652 8.84014 1.1309C8.91598 0.815801 9.10474 0.539462 9.37069 0.354238C9.63664 0.169014 9.96129 0.0877694 10.2831 0.125896H10.3321C10.6826 0.116375 11.0251 0.23194 11.2982 0.451896C11.6182 0.751896 11.5872 1.1519 11.5872 1.5829V2.6059C11.59 2.83291 11.6786 3.05044 11.8351 3.2149C11.858 3.23809 11.8708 3.26934 11.8708 3.3019C11.8708 3.33445 11.858 3.3657 11.8351 3.3889C11.7001 3.5009 11.4621 3.7089 11.3351 3.8249L11.3292 3.8239ZM10.6671 2.2239C10.6927 2.46415 10.65 2.70673 10.5442 2.9239C10.5025 3.01014 10.4383 3.08353 10.3584 3.13634C10.2785 3.18914 10.1858 3.21939 10.0901 3.2239C9.83814 3.2239 9.69015 3.0319 9.69015 2.7469C9.69015 2.1879 10.1901 2.0859 10.6671 2.0859V2.2289V2.2239Z" fill="#333E47"/>
<path fill-rule="evenodd" clip-rule="evenodd" d="M2.71977 3.82399C2.69858 3.84206 2.67236 3.85319 2.64464 3.85588C2.61692 3.85856 2.58904 3.85267 2.56477 3.839C2.41375 3.7169 2.28603 3.56851 2.18777 3.40099C2.05808 3.56056 1.89237 3.68709 1.70428 3.77019C1.51619 3.85328 1.31107 3.89057 1.10577 3.87899C0.971066 3.88689 0.836243 3.86548 0.710615 3.81623C0.584987 3.76697 0.471542 3.69106 0.378095 3.59371C0.284649 3.49637 0.213435 3.37991 0.169355 3.25238C0.125275 3.12484 0.109378 2.98927 0.12277 2.85499C0.114988 2.62588 0.178022 2.39993 0.303282 2.20792C0.428541 2.01592 0.609934 1.86719 0.822767 1.78199C1.22185 1.64901 1.63751 1.57227 2.05777 1.554V1.46899C2.07812 1.30592 2.05031 1.14045 1.97777 0.992994C1.93477 0.936921 1.87885 0.892083 1.81477 0.862307C1.75069 0.83253 1.68035 0.8187 1.60977 0.821995C1.48896 0.812534 1.36883 0.847269 1.27171 0.919741C1.17459 0.992213 1.10709 1.09749 1.08177 1.21599C1.07834 1.24575 1.0654 1.27361 1.04486 1.29542C1.02432 1.31722 0.997275 1.3318 0.967771 1.33699L0.330763 1.26799C0.314909 1.26623 0.299609 1.26118 0.28581 1.25318C0.272012 1.24517 0.260028 1.23439 0.250623 1.2215C0.241219 1.20862 0.234586 1.19392 0.231168 1.17834C0.227751 1.16275 0.227622 1.14663 0.230772 1.13099C0.30641 0.815788 0.495138 0.539319 0.761137 0.354059C1.02714 0.1688 1.35189 0.0876438 1.67376 0.125994H1.72177C2.0726 0.116321 2.4154 0.231891 2.68876 0.451994C3.00776 0.751994 2.97777 1.15199 2.97777 1.58299V2.606C2.98039 2.83287 3.06862 3.05039 3.22478 3.21499C3.2362 3.22642 3.24526 3.23998 3.25145 3.25491C3.25763 3.26984 3.26082 3.28584 3.26082 3.30199C3.26082 3.31815 3.25763 3.33415 3.25145 3.34908C3.24526 3.36401 3.2362 3.37757 3.22478 3.38899C3.09078 3.50099 2.85278 3.709 2.72478 3.825L2.71977 3.82399ZM2.05777 2.22399C2.08328 2.46425 2.04066 2.70683 1.93477 2.92399C1.89294 3.01031 1.8286 3.08375 1.74852 3.13655C1.66844 3.18935 1.57558 3.21956 1.47976 3.22399C1.22876 3.22399 1.07977 3.03199 1.07977 2.74699C1.07977 2.18799 1.57978 2.08599 2.05678 2.08599V2.22899L2.05777 2.22399Z" fill="#333E47"/>
<path fill-rule="evenodd" clip-rule="evenodd" d="M30.3187 5.04062V4.79362C30.3187 4.72262 30.3537 4.67462 30.4277 4.67862C30.5826 4.70593 30.7408 4.7093 30.8967 4.68862C30.9839 4.66822 31.0646 4.62659 31.1318 4.56745C31.1989 4.5083 31.2505 4.43348 31.2817 4.34962C31.3897 4.10362 31.4607 3.90462 31.5057 3.77462L30.1397 0.389618C30.1167 0.332618 30.1097 0.225619 30.2247 0.225619H30.7017C30.7359 0.224904 30.7694 0.23592 30.7965 0.25684C30.8236 0.27776 30.8427 0.307323 30.8507 0.340618L31.8407 3.08962L32.7867 0.340618C32.7945 0.307404 32.8134 0.277864 32.8404 0.256934C32.8673 0.236003 32.9006 0.224949 32.9347 0.225619H33.3847C33.4987 0.225619 33.4927 0.332618 33.4697 0.389618L32.1147 3.88062C31.9397 4.34462 31.7057 5.08062 31.1797 5.21362C30.9176 5.27847 30.6424 5.26526 30.3877 5.17562C30.3655 5.16098 30.3475 5.14085 30.3354 5.1172C30.3233 5.09354 30.3176 5.06716 30.3187 5.04062Z" fill="#333E47"/>
<path fill-rule="evenodd" clip-rule="evenodd" d="M29.6815 3.62563C29.6815 3.64068 29.6785 3.65559 29.6727 3.66949C29.6669 3.68338 29.6584 3.696 29.6478 3.70659C29.6371 3.71719 29.6244 3.72557 29.6104 3.73124C29.5965 3.73691 29.5815 3.73976 29.5665 3.73963H29.2305C29.1983 3.74014 29.1671 3.72881 29.1428 3.70779C29.1184 3.68677 29.1027 3.65752 29.0985 3.62563L29.0645 3.39663C28.8999 3.53464 28.7137 3.64476 28.5135 3.72263C28.3167 3.80993 28.1022 3.85015 27.8871 3.84008C27.6721 3.83001 27.4623 3.76994 27.2745 3.66463C27.1365 3.57003 27.0248 3.44198 26.9498 3.29245C26.8747 3.14292 26.8389 2.97679 26.8455 2.80963C26.8381 2.54252 26.9333 2.28272 27.1115 2.08363C27.2451 1.94949 27.4057 1.84514 27.5825 1.77741C27.7593 1.70968 27.9484 1.6801 28.1375 1.69063C28.4416 1.687 28.7446 1.72673 29.0375 1.80863V1.34763C29.0375 0.878628 28.8375 0.674627 28.3195 0.674627C27.9362 0.676536 27.5558 0.741401 27.1935 0.866629C27.1786 0.867937 27.1637 0.865903 27.1497 0.860678C27.1357 0.855452 27.1231 0.847167 27.1127 0.836428C27.1024 0.825689 27.0946 0.812768 27.0899 0.798615C27.0851 0.784461 27.0836 0.769431 27.0855 0.754627V0.491629C27.0881 0.459449 27.1001 0.428748 27.12 0.40333C27.14 0.377911 27.1669 0.358891 27.1975 0.348627C27.5763 0.202001 27.9783 0.124444 28.3845 0.119629C28.9785 0.119629 29.6845 0.253627 29.6845 1.16763V3.62563H29.6815ZM29.0345 2.95163V2.25163C28.7898 2.19709 28.5402 2.16793 28.2895 2.16463C28.0687 2.14899 27.8503 2.2188 27.6795 2.35963C27.5845 2.46854 27.5338 2.60915 27.5375 2.75363C27.5311 2.84261 27.5473 2.93176 27.5848 3.01274C27.6222 3.09372 27.6796 3.16387 27.7515 3.21663C27.8596 3.27014 27.9776 3.30062 28.0981 3.30613C28.2186 3.31164 28.339 3.29206 28.4515 3.24863C28.6664 3.19255 28.8664 3.09015 29.0375 2.94863L29.0345 2.95163Z" fill="#333E47"/>
<path fill-rule="evenodd" clip-rule="evenodd" d="M24.7158 0.68556C25.4638 0.68556 25.6668 1.27256 25.6668 1.94556C25.7072 2.33584 25.5947 2.7266 25.3528 3.03556C25.2637 3.11758 25.1581 3.17964 25.043 3.21758C24.928 3.25552 24.8062 3.26847 24.6858 3.25556C24.3706 3.23332 24.0689 3.11929 23.8178 2.92756V1.00356C24.0768 0.805464 24.3918 0.69418 24.7178 0.68556H24.7158ZM23.6998 5.16156H23.2488C23.2185 5.16156 23.1894 5.14958 23.1678 5.12823C23.1463 5.10688 23.1341 5.07789 23.1338 5.04756V0.347559C23.1341 0.317233 23.1463 0.288239 23.1678 0.266888C23.1894 0.245537 23.2185 0.233558 23.2488 0.233559H23.5938C23.6259 0.233042 23.6572 0.244375 23.6815 0.265398C23.7059 0.286421 23.7216 0.315666 23.7258 0.347559L23.7618 0.593559C24.0725 0.306064 24.4758 0.139028 24.8988 0.122559C26.0098 0.122559 26.3748 1.03756 26.3748 1.99056C26.3748 3.00856 25.8158 3.82656 24.8748 3.82656C24.4855 3.82814 24.1093 3.68567 23.8188 3.42656V5.05056C23.8185 5.08089 23.8063 5.10988 23.7848 5.13123C23.7632 5.15258 23.7341 5.16456 23.7038 5.16456L23.6998 5.16156Z" fill="#333E47"/>
</svg>
