<svg width="15" height="10" viewBox="0 0 15 10" fill="none" xmlns="http://www.w3.org/2000/svg">
<path d="M1.1282 0.593022L6.27238 4.66511C6.50493 4.84883 6.82819 4.93255 7.13982 4.91627C7.44912 4.93255 7.77237 4.85116 8.00493 4.66511L13.1514 0.593022C13.5607 0.267441 13.4677 0 12.9445 0H1.33285C0.809594 0 0.71657 0.267441 1.1282 0.593022Z" fill="white"/>
<path d="M13.5209 1.66766L7.89999 5.9351C7.68836 6.09324 7.41394 6.16765 7.13952 6.16533C6.86511 6.16765 6.58836 6.09091 6.37906 5.9351L0.758138 1.66766C0.34186 1.34906 0 1.51882 0 2.0444V9.04672C0 9.5723 0.427906 10.0002 0.951161 10.0002H13.3279C13.8511 10.0002 14.2814 9.5723 14.2814 9.04672V2.0444C14.2814 1.52115 13.9372 1.34906 13.5209 1.66766Z" fill="white"/>
</svg>
