<svg width="38" height="26" viewBox="0 0 38 26" fill="none" xmlns="http://www.w3.org/2000/svg">
<mask id="mask0_15_3120" style="mask-type:luminance" maskUnits="userSpaceOnUse" x="0" y="0" width="38" height="26">
<path d="M37.089 0H0V25.61H37.089V0Z" fill="white"/>
</mask>
<g mask="url(#mask0_15_3120)">
<path d="M35.3118 1.579C34.2589 0.565468 32.8542 -0.000508675 31.3928 3.43046e-07H5.67779C4.21637 -0.000508675 2.81164 0.565468 1.75879 1.579L18.0188 17.084C18.1579 17.2165 18.3427 17.2905 18.5348 17.2905C18.7269 17.2905 18.9117 17.2165 19.0508 17.084L35.3118 1.579Z" fill="white"/>
<path d="M36.1866 23.0032C36.7745 22.0927 37.087 21.0319 37.0866 19.9482V5.65717C37.0855 4.62945 36.8029 3.62166 36.2696 2.74316L24.8076 13.6722L36.1866 23.0032Z" fill="white"/>
<path d="M5.678 25.6098H31.393C32.8007 25.6131 34.1589 25.0902 35.201 24.1438L23.701 14.7178L19.427 18.7948C19.1874 19.0233 18.8691 19.1508 18.538 19.1508C18.2069 19.1508 17.8886 19.0233 17.649 18.7948L13.375 14.7218L1.875 24.1438C2.91694 25.0906 4.27512 25.6138 5.683 25.6108" fill="white"/>
<path d="M12.294 13.6722L0.823 2.74316C0.287848 3.62118 0.0032307 4.62892 0 5.65717L0 19.9482C0.00221249 21.0327 0.317505 22.0935 0.908 23.0032L12.294 13.6722Z" fill="white"/>
</g>
</svg>
