<svg width="18" height="20" viewBox="0 0 18 20" fill="none" xmlns="http://www.w3.org/2000/svg">
<path d="M17.2926 15.4839C16.839 14.47 16.1905 13.5595 15.3638 12.7782C14.5377 11.9961 13.5751 11.3828 12.5032 10.9537C12.3897 10.9081 12.271 10.8639 12.1517 10.8211L11.762 10.6831L12.1057 10.4614C12.3918 10.2778 12.6614 10.0663 12.9073 9.83374C13.4141 9.35434 13.8124 8.79538 14.0906 8.17249C14.3789 7.52785 14.5255 6.84377 14.5255 6.13793C14.5255 5.43209 14.3789 4.74868 14.0906 4.10336C13.8124 3.48116 13.4141 2.9222 12.9073 2.44279C12.3997 1.96271 11.8088 1.58599 11.151 1.32283C10.4694 1.05015 9.74551 0.912109 9 0.912109C8.25449 0.912109 7.53055 1.05015 6.84903 1.32283C6.19123 1.58599 5.60029 1.96271 5.09274 2.44279C4.58519 2.9222 4.18692 3.48116 3.9087 4.10336C3.62042 4.74868 3.47448 5.43277 3.47448 6.13793C3.47448 6.84309 3.62042 7.52785 3.9087 8.17249C4.18692 8.79538 4.58519 9.35434 5.09274 9.83374C5.33861 10.0663 5.60819 10.2778 5.8936 10.4614L6.23796 10.6831L5.84831 10.8211C5.72825 10.8639 5.61035 10.9081 5.49677 10.9537C4.42487 11.3828 3.46226 11.9961 2.63623 12.7782C1.80949 13.5595 1.16032 14.47 0.707405 15.4839C0.237958 16.5338 0 17.6483 0 18.7975V19.3375H18V18.7975C18 17.6483 17.762 16.5338 17.2926 15.4839ZM9 2.19595C10.1129 2.19595 11.1596 2.606 11.9468 3.3506C12.734 4.0952 13.1675 5.08528 13.1675 6.13793C13.1675 7.19057 12.734 8.18133 11.9468 8.92594C11.1596 9.67054 10.1129 10.0806 9 10.0806C7.88713 10.0806 6.83968 9.67054 6.05248 8.92594C5.26528 8.18133 4.83178 7.19125 4.83178 6.13793C4.83178 5.0846 5.26528 4.0952 6.05248 3.3506C6.83968 2.606 7.88641 2.19595 9 2.19595ZM1.39684 18.0536C1.47376 17.3396 1.66139 16.6467 1.95758 15.9837C2.34292 15.1235 2.8936 14.3503 3.59597 13.686C4.29763 13.0216 5.11503 12.5007 6.02516 12.1362C6.96693 11.7595 7.96765 11.5684 9 11.5684C10.0323 11.5684 11.0323 11.7595 11.9741 12.1362C12.8843 12.5007 13.7017 13.0216 14.404 13.686C15.1057 14.3503 15.6571 15.1235 16.0417 15.9837C16.3379 16.6467 16.5255 17.3396 16.6024 18.0536H1.39684Z" fill="#2E2E2B"/>
</svg>
