<svg width="213" height="43" viewBox="0 0 213 43" fill="none" xmlns="http://www.w3.org/2000/svg">
<path d="M42.5221 18.1677V24.3502C42.5221 25.8586 41.9234 27.3053 40.8575 28.3726C39.7916 29.4399 38.3457 30.0404 36.8373 30.0424H33.54V26.5438H36.8373C37.4182 26.5424 37.9749 26.3107 38.3854 25.8995C38.7958 25.4883 39.0264 24.9311 39.0267 24.3502V18.1677C39.0264 17.5864 38.7957 17.0289 38.3851 16.6173C37.9745 16.2057 37.4175 15.9737 36.8362 15.972H26.5501V5.68487C26.5484 5.10289 26.3158 4.54538 25.9033 4.13485C25.4908 3.72431 24.9321 3.49434 24.3502 3.49546H18.1677C17.5871 3.49657 17.0306 3.72771 16.6201 4.13826C16.2095 4.54881 15.9784 5.10532 15.9773 5.68592V14.2243C15.9778 15.6259 16.5344 16.97 17.5249 17.9617C18.5154 18.9534 19.8589 19.5116 21.2605 19.5139C23.2855 19.516 25.2477 20.2167 26.816 21.4976C28.3844 22.7784 29.4629 24.5611 29.8695 26.5448C29.9871 27.1199 30.0458 27.7056 30.0445 28.2926V36.8309C30.0445 37.5784 29.8973 38.3186 29.6112 39.0093C29.3252 39.6999 28.9059 40.3274 28.3773 40.856C27.8487 41.3845 27.2212 41.8038 26.5306 42.0899C25.84 42.3759 25.0998 42.5232 24.3523 42.5232H18.1677C16.6594 42.5212 15.2134 41.9206 14.1475 40.8534C13.0816 39.7861 12.4829 38.3393 12.4829 36.8309V30.0424H5.69225C4.18257 30.0424 2.73472 29.4427 1.66722 28.3752C0.599717 27.3077 0 25.8598 0 24.3502L0 18.1677C0 16.6581 0.599717 15.2102 1.66722 14.1427C2.73472 13.0752 4.18257 12.4755 5.69225 12.4755H8.98742V15.971H5.69225C5.11007 15.9715 4.5519 16.203 4.14025 16.6147C3.72859 17.0264 3.49707 17.5845 3.49651 18.1667V24.3502C3.49735 24.9321 3.72902 25.4898 4.14068 25.9011C4.55234 26.3124 5.11035 26.5435 5.69225 26.5438H15.9794V36.8309C15.9797 37.4123 16.2104 37.9698 16.621 38.3814C17.0315 38.7929 17.5885 39.025 18.1699 39.0267H24.3502C24.9323 39.0261 25.4905 38.7946 25.9022 38.3829C26.3138 37.9713 26.5453 37.4131 26.5459 36.8309V28.2926C26.5437 26.8911 25.9856 25.5478 24.9941 24.5574C24.0027 23.5669 22.6588 23.0102 21.2574 23.0093C19.2322 23.0071 17.27 22.3056 15.7023 21.0236C14.1347 19.7415 13.0578 17.9575 12.6536 15.9731C12.536 15.398 12.4774 14.8124 12.4787 14.2253V5.68697C12.4801 4.17876 13.08 2.73275 14.1466 1.66647C15.2133 0.600201 16.6595 0.000837252 18.1677 0L24.3502 0C25.8586 -1.26734e-06 27.3053 0.598703 28.3726 1.66461C29.4399 2.73052 30.0404 4.17647 30.0424 5.68487V12.4766H36.8341C38.3425 12.4785 39.7884 13.0791 40.8544 14.1464C41.9203 15.2137 42.519 16.6604 42.519 18.1688" fill="#FF922E"/>
<path d="M200.629 34.7688L193.039 16.25H199.301L204.12 30.936H201.805L206.738 16.25H213L205.107 34.7688H200.629ZM195.885 42.4723L201.426 30.5186L205.107 34.7688L201.843 42.4723H195.885Z" fill="#00A6FB"/>
<path d="M181.169 34.693V14.6563C181.169 13.1637 181.498 11.8228 182.156 10.6338C182.839 9.41943 183.787 8.47072 185.002 7.78765C186.216 7.07928 187.658 6.7251 189.328 6.7251C190.593 6.7251 191.693 6.94014 192.629 7.37022C193.591 7.775 194.425 8.34423 195.134 9.07789L191.491 12.7209C191.238 12.4679 190.947 12.2782 190.618 12.1517C190.314 11.9999 189.948 11.924 189.518 11.924C188.733 11.924 188.113 12.1517 187.658 12.6071C187.203 13.0625 186.975 13.6823 186.975 14.4666V34.693H181.169ZM177.108 21.1834V16.2501H192.288V21.1834H177.108Z" fill="#00A6FB"/>
<path d="M168.921 34.6928V16.2499H174.727V34.6928H168.921ZM171.843 13.7073C170.932 13.7073 170.173 13.4038 169.566 12.7966C168.984 12.1641 168.693 11.4051 168.693 10.5197C168.693 9.60893 168.984 8.84996 169.566 8.24279C170.173 7.63562 170.932 7.33203 171.843 7.33203C172.754 7.33203 173.5 7.63562 174.082 8.24279C174.664 8.84996 174.955 9.60893 174.955 10.5197C174.955 11.4051 174.664 12.1641 174.082 12.7966C173.5 13.4038 172.754 13.7073 171.843 13.7073Z" fill="#00A6FB"/>
<path d="M135.79 34.693V16.2501H141.596V34.693H135.79ZM147.592 34.693V23.9156C147.592 22.9796 147.301 22.2586 146.719 21.7526C146.163 21.2213 145.467 20.9557 144.632 20.9557C144.05 20.9557 143.531 21.0822 143.076 21.3352C142.621 21.5629 142.254 21.8917 141.976 22.3218C141.723 22.7519 141.596 23.2832 141.596 23.9156L139.357 22.929C139.357 21.4617 139.673 20.2094 140.306 19.1721C140.938 18.1096 141.799 17.3 142.886 16.7434C143.974 16.1615 145.201 15.8706 146.567 15.8706C147.858 15.8706 149.009 16.1615 150.021 16.7434C151.058 17.3253 151.88 18.1349 152.487 19.1721C153.094 20.2094 153.398 21.449 153.398 22.891V34.693H147.592ZM159.394 34.693V23.9156C159.394 22.9796 159.103 22.2586 158.521 21.7526C157.965 21.2213 157.269 20.9557 156.434 20.9557C155.852 20.9557 155.333 21.0822 154.878 21.3352C154.423 21.5629 154.056 21.8917 153.778 22.3218C153.525 22.7519 153.398 23.2832 153.398 23.9156L150.059 23.4603C150.109 21.8917 150.476 20.5509 151.159 19.4377C151.867 18.2993 152.791 17.4265 153.929 16.8193C155.093 16.1868 156.396 15.8706 157.838 15.8706C159.255 15.8706 160.507 16.1742 161.595 16.7814C162.708 17.3632 163.581 18.2107 164.213 19.3239C164.871 20.4118 165.2 21.7273 165.2 23.2705V34.693H159.394Z" fill="#00A6FB"/>
<path d="M119.707 34.693V16.2501H125.513V34.693H119.707ZM125.513 24.5608L123.084 22.6634C123.565 20.5129 124.375 18.8432 125.513 17.6542C126.652 16.4651 128.233 15.8706 130.257 15.8706C131.142 15.8706 131.914 16.0097 132.572 16.288C133.255 16.541 133.849 16.9458 134.355 17.5024L130.902 21.8664C130.649 21.5881 130.333 21.3731 129.953 21.2213C129.574 21.0695 129.144 20.9936 128.663 20.9936C127.701 20.9936 126.93 21.2972 126.348 21.9044C125.791 22.4863 125.513 23.3717 125.513 24.5608Z" fill="#023E8A"/>
<path d="M104.842 35.0724C103.147 35.0724 101.629 34.655 100.288 33.8202C98.9726 32.9853 97.9227 31.8468 97.1385 30.4048C96.3795 28.9628 96 27.3183 96 25.4715C96 23.6247 96.3795 21.9803 97.1385 20.5382C97.9227 19.0962 98.9726 17.9578 100.288 17.1229C101.629 16.288 103.147 15.8706 104.842 15.8706C106.082 15.8706 107.195 16.1109 108.181 16.5916C109.193 17.0723 110.016 17.7427 110.648 18.6029C111.281 19.4377 111.635 20.3991 111.711 21.487V29.4561C111.635 30.5439 111.281 31.518 110.648 32.3781C110.041 33.213 109.231 33.8707 108.219 34.3514C107.207 34.8321 106.082 35.0724 104.842 35.0724ZM106.018 29.8356C107.258 29.8356 108.257 29.4308 109.016 28.6212C109.775 27.7864 110.155 26.7365 110.155 25.4715C110.155 24.6114 109.978 23.8524 109.623 23.1946C109.295 22.5369 108.814 22.0309 108.181 21.6767C107.574 21.2972 106.866 21.1075 106.056 21.1075C105.247 21.1075 104.526 21.2972 103.893 21.6767C103.286 22.0309 102.793 22.5369 102.413 23.1946C102.059 23.8524 101.882 24.6114 101.882 25.4715C101.882 26.3064 102.059 27.0527 102.413 27.7105C102.767 28.3682 103.261 28.8869 103.893 29.2664C104.526 29.6458 105.234 29.8356 106.018 29.8356ZM109.927 34.693V29.7217L110.8 25.2438L109.927 20.7659V16.2501H115.619V34.693H109.927Z" fill="#023E8A"/>
<path d="M87.6033 34.693V24.1814C87.6033 23.22 87.2997 22.4484 86.6925 21.8665C86.1106 21.2593 85.3643 20.9558 84.4536 20.9558C83.8211 20.9558 83.2645 21.0949 82.7838 21.3732C82.3032 21.6262 81.9237 22.0057 81.6454 22.5116C81.3671 22.9923 81.228 23.5489 81.228 24.1814L78.989 23.0809C78.989 21.6388 79.2926 20.3739 79.8998 19.286C80.5069 18.1982 81.3545 17.3633 82.4423 16.7814C83.5302 16.1743 84.7825 15.8707 86.1992 15.8707C87.6412 15.8707 88.9062 16.1743 89.994 16.7814C91.0819 17.3633 91.9167 18.1855 92.4986 19.2481C93.1058 20.2853 93.4094 21.4997 93.4094 22.8911V34.693H87.6033ZM75.4219 34.693V7.14258H81.228V34.693H75.4219Z" fill="#023E8A"/>
<path d="M56.6778 24.9402V20.3105H62.446C63.1796 20.3105 63.85 20.1587 64.4572 19.8551C65.0644 19.5515 65.5451 19.1088 65.8993 18.5269C66.2534 17.945 66.4305 17.2366 66.4305 16.4018C66.4305 15.5922 66.2534 14.8965 65.8993 14.3146C65.5451 13.7328 65.0644 13.29 64.4572 12.9864C63.85 12.6829 63.1796 12.5311 62.446 12.5311H56.6778V7.90137H63.3188C65.0138 7.90137 66.5444 8.2429 67.9105 8.92597C69.2767 9.60904 70.3519 10.5957 71.1361 11.8859C71.9457 13.1509 72.3505 14.6562 72.3505 16.4018C72.3505 18.1474 71.9457 19.6653 71.1361 20.9556C70.3519 22.2205 69.2767 23.2072 67.9105 23.9156C66.5444 24.5986 65.0138 24.9402 63.3188 24.9402H56.6778ZM52.124 34.6929V7.90137H58.0819V34.6929H52.124Z" fill="#023E8A"/>
</svg>
