<svg width="284" height="57" viewBox="0 0 284 57" fill="none" xmlns="http://www.w3.org/2000/svg">
<path d="M56.5218 24.1492V32.367C56.5218 34.372 55.726 36.2951 54.3091 37.7137C52.8923 39.1324 50.9703 39.9307 48.9653 39.9333H44.5824V35.2828H48.9653C49.7375 35.281 50.4775 34.973 51.023 34.4264C51.5686 33.8799 51.8751 33.1393 51.8755 32.367V24.1492C51.8751 23.3764 51.5685 22.6353 51.0227 22.0883C50.477 21.5412 49.7366 21.2327 48.9639 21.2305H35.2913V7.55651C35.289 6.78292 34.9798 6.04187 34.4315 5.49617C33.8831 4.95048 33.1406 4.64479 32.367 4.64628H24.1492C23.3774 4.64776 22.6377 4.955 22.092 5.50071C21.5462 6.04643 21.239 6.78615 21.2375 7.55791V18.9074C21.2383 20.7705 21.9781 22.5571 23.2947 23.8753C24.6113 25.1935 26.3971 25.9355 28.2602 25.9384C30.9518 25.9413 33.56 26.8727 35.6447 28.5753C37.7295 30.2778 39.163 32.6475 39.7035 35.2842C39.8599 36.0487 39.9378 36.8271 39.9361 37.6074V48.9569C39.9361 49.9505 39.7404 50.9344 39.3602 51.8524C38.9799 52.7704 38.4226 53.6045 37.72 54.3071C37.0174 55.0097 36.1833 55.567 35.2653 55.9472C34.3473 56.3275 33.3634 56.5232 32.3698 56.5232H24.1492C22.1441 56.5206 20.2221 55.7223 18.8053 54.3036C17.3885 52.8849 16.5926 50.9619 16.5926 48.9569V39.9333H7.56632C5.5596 39.9333 3.63508 39.1362 2.21612 37.7172C0.797163 36.2983 0 34.3737 0 32.367L0 24.1492C0 22.1424 0.797163 20.2179 2.21612 18.799C3.63508 17.38 5.5596 16.5828 7.56632 16.5828H11.9464V21.2291H7.56632C6.79247 21.2299 6.05054 21.5376 5.50335 22.0848C4.95616 22.632 4.64842 23.3739 4.64768 24.1478V32.367C4.64879 33.1405 4.95674 33.8819 5.50393 34.4286C6.05112 34.9752 6.79284 35.2825 7.56632 35.2828H21.2403V48.9569C21.2407 49.7296 21.5474 50.4707 22.0931 51.0178C22.6389 51.5648 23.3792 51.8733 24.152 51.8755H32.367C33.1409 51.8748 33.8828 51.567 34.43 51.0198C34.9772 50.4726 35.2849 49.7307 35.2857 48.9569V37.6074C35.2827 35.7446 34.5409 33.959 33.223 32.6424C31.9051 31.3259 30.1188 30.5858 28.256 30.5847C25.5641 30.5817 22.9558 29.6494 20.872 27.9452C18.7882 26.2411 17.3568 23.8697 16.8196 21.2319C16.6633 20.4675 16.5853 19.6891 16.587 18.9088V7.55931C16.5889 5.55454 17.3863 3.63245 18.8042 2.21513C20.222 0.797806 22.1444 0.0011129 24.1492 0L32.367 0C34.372 -1.68459e-06 36.2951 0.795815 37.7137 2.21265C39.1324 3.62949 39.9307 5.5515 39.9333 7.55651V16.5842H48.9611C50.9661 16.5868 52.8881 17.3852 54.3049 18.8038C55.7218 20.2225 56.5176 22.1455 56.5176 24.1506" fill="white"/>
<path d="M266.683 46.2163L256.595 21.6006H264.918L271.324 41.1217H268.247L274.804 21.6006H283.127L272.635 46.2163H266.683ZM260.378 56.4561L267.742 40.5668L272.635 46.2163L268.297 56.4561H260.378Z" fill="white"/>
<path d="M240.817 46.1153V19.4819C240.817 17.4978 241.254 15.7155 242.129 14.135C243.037 12.5208 244.298 11.2598 245.912 10.3518C247.526 9.41025 249.443 8.93945 251.662 8.93945C253.344 8.93945 254.807 9.22529 256.051 9.79697C257.329 10.335 258.438 11.0916 259.38 12.0669L254.537 16.9093C254.201 16.573 253.814 16.3208 253.377 16.1527C252.974 15.9509 252.486 15.85 251.915 15.85C250.872 15.85 250.048 16.1527 249.443 16.758C248.838 17.3633 248.535 18.1872 248.535 19.2296V46.1153H240.817ZM235.42 28.1579V21.6004H255.597V28.1579H235.42Z" fill="white"/>
<path d="M224.539 46.1153V21.6005H232.257V46.1153H224.539ZM228.423 18.2209C227.212 18.2209 226.204 17.8173 225.397 17.0102C224.623 16.1695 224.236 15.1607 224.236 13.9837C224.236 12.7731 224.623 11.7643 225.397 10.9572C226.204 10.1501 227.212 9.74658 228.423 9.74658C229.634 9.74658 230.626 10.1501 231.399 10.9572C232.173 11.7643 232.559 12.7731 232.559 13.9837C232.559 15.1607 232.173 16.1695 231.399 17.0102C230.626 17.8173 229.634 18.2209 228.423 18.2209Z" fill="white"/>
<path d="M180.501 46.1155V21.6006H188.219V46.1155H180.501ZM196.188 46.1155V31.7899C196.188 30.5457 195.802 29.5873 195.028 28.9147C194.288 28.2085 193.364 27.8554 192.254 27.8554C191.481 27.8554 190.791 28.0236 190.186 28.3599C189.581 28.6625 189.093 29.0997 188.723 29.6714C188.387 30.243 188.219 30.9492 188.219 31.7899L185.243 30.4784C185.243 28.528 185.663 26.8634 186.504 25.4847C187.344 24.0723 188.488 22.9962 189.934 22.2564C191.38 21.4829 193.011 21.0962 194.827 21.0962C196.542 21.0962 198.072 21.4829 199.417 22.2564C200.796 23.0298 201.888 24.1059 202.696 25.4847C203.503 26.8634 203.906 28.5112 203.906 30.428V46.1155H196.188ZM211.876 46.1155V31.7899C211.876 30.5457 211.489 29.5873 210.716 28.9147C209.976 28.2085 209.051 27.8554 207.941 27.8554C207.168 27.8554 206.479 28.0236 205.873 28.3599C205.268 28.6625 204.78 29.0997 204.411 29.6714C204.074 30.243 203.906 30.9492 203.906 31.7899L199.467 31.1846C199.534 29.0997 200.022 27.3174 200.93 25.8378C201.872 24.3245 203.099 23.1643 204.612 22.3572C206.159 21.5165 207.891 21.0962 209.808 21.0962C211.691 21.0962 213.356 21.4997 214.802 22.3068C216.281 23.0802 217.441 24.2068 218.282 25.6864C219.156 27.1324 219.594 28.8811 219.594 30.9324V46.1155H211.876Z" fill="white"/>
<path d="M159.119 46.1155V21.6006H166.837V46.1155H159.119ZM166.837 32.6474L163.608 30.1253C164.247 27.2669 165.324 25.0475 166.837 23.467C168.35 21.8865 170.452 21.0962 173.142 21.0962C174.319 21.0962 175.345 21.2811 176.219 21.6511C177.127 21.9873 177.917 22.5254 178.59 23.2652L174 29.066C173.663 28.6961 173.243 28.4103 172.739 28.2085C172.234 28.0068 171.662 27.9059 171.023 27.9059C169.746 27.9059 168.72 28.3094 167.947 29.1165C167.207 29.8899 166.837 31.0669 166.837 32.6474Z" fill="white"/>
<path d="M139.36 46.6199C137.107 46.6199 135.09 46.065 133.307 44.9553C131.559 43.8456 130.163 42.3323 129.121 40.4155C128.112 38.4987 127.607 36.3129 127.607 33.858C127.607 31.4032 128.112 29.2174 129.121 27.3006C130.163 25.3838 131.559 23.8705 133.307 22.7608C135.09 21.6511 137.107 21.0962 139.36 21.0962C141.008 21.0962 142.488 21.4157 143.799 22.0546C145.144 22.6935 146.237 23.5847 147.078 24.728C147.919 25.8378 148.39 27.1156 148.49 28.5616V39.1545C148.39 40.6005 147.919 41.8952 147.078 43.0385C146.271 44.1482 145.195 45.0226 143.85 45.6615C142.505 46.3004 141.008 46.6199 139.36 46.6199ZM140.924 39.6589C142.572 39.6589 143.9 39.1208 144.909 38.0447C145.918 36.935 146.422 35.5394 146.422 33.858C146.422 32.7147 146.187 31.7058 145.716 30.8315C145.279 29.9572 144.64 29.2846 143.799 28.8138C142.992 28.3094 142.051 28.0572 140.975 28.0572C139.898 28.0572 138.94 28.3094 138.099 28.8138C137.292 29.2846 136.637 29.9572 136.132 30.8315C135.661 31.7058 135.426 32.7147 135.426 33.858C135.426 34.9678 135.661 35.9598 136.132 36.8341C136.603 37.7085 137.259 38.3978 138.099 38.9023C138.94 39.4067 139.882 39.6589 140.924 39.6589ZM146.12 46.1155V39.5076L147.28 33.5554L146.12 27.6032V21.6006H153.686V46.1155H146.12Z" fill="white"/>
<path d="M116.446 46.1151V32.1426C116.446 30.8648 116.042 29.8391 115.235 29.0657C114.462 28.2586 113.47 27.8551 112.259 27.8551C111.418 27.8551 110.679 28.04 110.04 28.4099C109.401 28.7462 108.896 29.2506 108.526 29.9232C108.157 30.5621 107.972 31.3019 107.972 32.1426L104.995 30.6798C104.995 28.763 105.399 27.0816 106.206 25.6356C107.013 24.1896 108.14 23.0799 109.586 22.3064C111.032 21.4994 112.696 21.0958 114.579 21.0958C116.496 21.0958 118.178 21.4994 119.624 22.3064C121.07 23.0799 122.179 24.1728 122.953 25.5852C123.76 26.9639 124.163 28.5781 124.163 30.4276V46.1151H116.446ZM100.254 46.1151V9.49414H107.972V46.1151H100.254Z" fill="white"/>
<path d="M75.3402 33.1514V26.9975H83.0074C83.9826 26.9975 84.8737 26.7957 85.6808 26.3922C86.4879 25.9887 87.1268 25.4002 87.5976 24.6267C88.0684 23.8533 88.3038 22.9117 88.3038 21.802C88.3038 20.7259 88.0684 19.8011 87.5976 19.0276C87.1268 18.2542 86.4879 17.6657 85.6808 17.2622C84.8737 16.8586 83.9826 16.6569 83.0074 16.6569H75.3402V10.5029H84.1675C86.4206 10.5029 88.4551 10.9569 90.271 11.8649C92.0869 12.7728 93.5161 14.0843 94.5586 15.7994C95.6347 17.4808 96.1728 19.4816 96.1728 21.802C96.1728 24.1223 95.6347 26.14 94.5586 27.855C93.5161 29.5364 92.0869 30.8479 90.271 31.7895C88.4551 32.6975 86.4206 33.1514 84.1675 33.1514H75.3402ZM69.2871 46.1151V10.5029H77.2065V46.1151H69.2871Z" fill="white"/>
</svg>
