<svg width="156" height="69" viewBox="0 0 156 69" fill="none" xmlns="http://www.w3.org/2000/svg">
<mask id="mask0_15_2834" style="mask-type:luminance" maskUnits="userSpaceOnUse" x="0" y="0" width="157" height="69">
<path d="M156.001 0H0V68.628H156.001V0Z" fill="white"/>
</mask>
<g mask="url(#mask0_15_2834)">
<path d="M16.6313 31.2104C17.4592 29.1093 17.8538 28.0084 19.2301 31.1033C20.666 34.3311 21.4158 35.6333 24.2924 31.3884C27.7054 26.355 29.052 16.0395 25.8846 14.2002C20.8835 12.0757 18.5134 17.3522 12.8334 17.8193L16.5089 15.8108C15.9403 15.1062 16.7569 15.4549 15.1221 14.5424C15.1221 14.5424 13.4494 13.9038 13.3802 13.8893C5.5435 12.2303 7.31523 24.721 11.3548 30.9382C14.142 35.2274 15.3049 34.567 16.6297 31.2104M3.61151 43.0198H19.1746C22.5684 43.0268 25.8213 44.3781 28.2212 46.778C30.621 49.1778 31.9723 52.4307 31.9793 55.8246C31.9723 59.2185 30.621 62.4713 28.2212 64.8712C25.8213 67.271 22.5684 68.6223 19.1746 68.6294H13.3762L9.29796 61.565H19.1746C20.6946 61.558 22.1503 60.951 23.2251 59.8761C24.2998 58.8012 24.9066 57.3454 24.9134 55.8254C24.9066 54.3054 24.2998 52.8495 23.2251 51.7746C22.1503 50.6997 20.6946 50.0928 19.1746 50.0858H7.68971L3.61151 43.0198ZM36.1751 -0.00268549C37.223 -0.00268549 38.2474 0.308053 39.1187 0.890236C39.99 1.47242 40.6691 2.2999 41.0701 3.26803C41.4711 4.23617 41.576 5.30147 41.3716 6.32924C41.1672 7.35701 40.6626 8.30107 39.9216 9.04205C39.1806 9.78303 38.2365 10.2876 37.2088 10.4921C36.181 10.6965 35.1157 10.5916 34.1476 10.1906C33.1794 9.78956 32.3519 9.11046 31.7698 8.23917C31.1876 7.36787 30.8768 6.3435 30.8768 5.2956C30.8767 4.59979 31.0137 3.91077 31.2799 3.26791C31.5462 2.62504 31.9364 2.04092 32.4284 1.54891C32.9205 1.0569 33.5046 0.666633 34.1474 0.400407C34.7903 0.134181 35.4793 -0.00279127 36.1751 -0.00268549ZM17.7974 5.54203C21.9151 5.54238 25.9052 6.97047 29.088 9.58297C32.2708 12.1955 34.4492 15.8307 35.2521 19.8693C36.0551 23.908 35.4328 28.1 33.4914 31.7313C31.55 35.3625 28.4095 38.2083 24.6051 39.7837C20.8008 41.359 16.5678 41.5665 12.6276 40.3708C8.6874 39.1751 5.28368 36.6501 2.99642 33.2261C0.709167 29.8022 -0.320105 25.6911 0.0839845 21.5933C0.488074 17.4955 2.30052 13.6646 5.21251 10.7533C6.86338 9.09833 8.82508 7.78594 10.9848 6.89161C13.1446 5.99727 15.4598 5.53862 17.7974 5.54203Z" fill="#01B2BE"/>
<path d="M145.202 40.091V55.8288H156.001V53.4934H147.716V40.091H145.202ZM135.206 50.2382H128.56L131.883 42.7486L135.206 50.2382ZM137.631 55.828H140.302L133.252 40.0902H130.514L123.464 55.828H126.136L127.618 52.5262H136.126L137.631 55.828ZM113.895 55.828H116.433V42.3588H121.575V40.091H108.73V42.3588H113.895V55.828ZM92.224 40.0902H90.2912V55.828H92.828V44.7225L101.741 55.828H103.65V40.091H101.136V51.2852L92.224 40.0902ZM84.3381 53.3589H75.2452V49.1381H83.9113V46.8027H75.2452V42.5344H84.2713V40.087H72.7309V55.8248H84.3381V53.3589ZM55.6627 42.4925H59.12C62.8245 42.4925 64.4408 45.1453 64.5084 47.8021C64.5761 50.5708 62.959 53.4032 59.12 53.4032H55.6627V42.4925ZM53.1702 40.0902V55.828H59.1191C64.6196 55.828 67.0919 51.8062 67.0001 47.8246C66.9333 43.9333 64.4851 40.0935 59.1191 40.0935L53.1702 40.0902ZM131.164 32.7432H133.701V19.2732H138.843V17.0054H126V19.2732H131.165L131.164 32.7432ZM119.01 27.1542H112.364L115.687 19.6646L119.01 27.1542ZM121.435 32.744H124.106L117.056 17.0054H114.318L107.268 32.744H109.94L111.421 29.4421H119.931L121.435 32.744ZM103.087 30.274H93.9973V26.0533H102.662V23.7178H93.9973V19.4496H103.023V17.0021H91.4831V32.7408H103.09L103.087 30.274ZM79.8895 19.3215C80.2811 19.2948 80.674 19.3507 81.0426 19.4858C81.4112 19.6209 81.7472 19.832 82.0288 20.1054C82.3105 20.3789 82.5315 20.7085 82.6774 21.073C82.8233 21.4374 82.8908 21.8285 82.8757 22.2207C82.8757 23.7025 81.9552 25.0273 79.8678 25.0273H75.0857V19.3247L79.8895 19.3215ZM85.8618 32.2986L81.1692 27.064C82.3797 26.9695 83.5049 26.4039 84.303 25.4888C85.1011 24.5737 85.5084 23.3821 85.4375 22.17C85.4375 19.5204 83.5288 17.0287 79.8919 17.0287C77.4453 17.0287 75.0205 17.0054 72.5731 17.0054V32.744H75.0873V27.3112H78.4101L83.1922 32.744H86.1332L85.8618 32.2986ZM66.2794 19.03C64.73 17.5018 62.6403 16.6464 60.4641 16.6494C55.099 16.6494 52.2021 20.515 52.2021 25.0466C52.2021 29.2231 54.6939 33.0613 60.4641 33.0613C61.6316 33.0889 62.7907 32.8577 63.8582 32.3843C64.9258 31.9109 65.8753 31.207 66.6386 30.3231V23.8805H59.9253V26.125H64.3031V29.3133C63.2435 30.2427 61.8731 30.7395 60.4641 30.7049C56.3778 30.7049 54.6721 27.9208 54.6721 25.0474C54.6496 21.7246 56.7821 18.9631 60.4641 18.9631C62.0397 18.9713 63.5545 19.5722 64.7074 20.6463L66.2794 19.03Z" fill="#333333"/>
</g>
</svg>
