<svg width="178" height="70" viewBox="0 0 178 70" fill="none" xmlns="http://www.w3.org/2000/svg">
<mask id="mask0_15_2821" style="mask-type:luminance" maskUnits="userSpaceOnUse" x="0" y="0" width="70" height="70">
<path d="M36.6471 56.5345V36.6507H43.6694V56.5377C43.6694 58.9166 42.7244 61.198 41.0423 62.8801C39.3602 64.5622 37.0788 65.5072 34.6999 65.5072C32.321 65.5072 30.0396 64.5622 28.3575 62.8801C26.6754 61.198 25.7304 58.9166 25.7304 56.5377V47.5633H32.7527V56.5345C32.7527 57.0509 32.9579 57.5461 33.3231 57.9113C33.6882 58.2765 34.1835 58.4816 34.6999 58.4816C35.2163 58.4816 35.7116 58.2765 36.0768 57.9113C36.4419 57.5461 36.6471 57.0509 36.6471 56.5345ZM6.53234 41.0328C5.28186 39.7783 4.4308 38.1815 4.08647 36.444C3.74215 34.7064 3.91996 32.9058 4.59749 31.2691C5.27502 29.6325 6.42195 28.2331 7.89366 27.2473C9.36538 26.2615 11.096 25.7336 12.8674 25.7299H21.8352V32.7523H12.8674C12.3504 32.7523 11.8546 32.9577 11.4891 33.3232C11.1235 33.6887 10.9182 34.1845 10.9182 34.7015C10.9182 35.2185 11.1235 35.7142 11.4891 36.0798C11.8546 36.4453 12.3504 36.6507 12.8674 36.6507H32.7544V43.673H12.8674C11.69 43.6723 10.5245 43.4389 9.43761 42.9864C8.35074 42.5339 7.36397 41.8711 6.53397 41.0361M36.6471 25.7299H56.5341C58.9131 25.7299 61.1946 26.675 62.8768 28.3572C64.559 30.0394 65.504 32.3209 65.504 34.6999C65.504 37.0788 64.559 39.3604 62.8768 41.0426C61.1946 42.7247 58.9131 43.6698 56.5341 43.6698H47.5646V36.6507H56.5349C57.0515 36.6507 57.547 36.4455 57.9123 36.0802C58.2776 35.7148 58.4829 35.2194 58.4829 34.7027C58.4829 34.1861 58.2776 33.6906 57.9123 33.3253C57.547 32.96 57.0515 32.7547 56.5349 32.7547H36.6471V25.7299ZM25.7345 23.7836V12.8653C25.7345 10.4864 26.6795 8.20498 28.3616 6.52287C30.0437 4.84076 32.3251 3.89576 34.704 3.89576C37.0828 3.89576 39.3643 4.84076 41.0464 6.52287C42.7285 8.20498 43.6735 10.4864 43.6735 12.8653V21.8356H36.6471V12.8653C36.6471 12.6096 36.5967 12.3564 36.4989 12.1201C36.401 11.8839 36.2576 11.6692 36.0768 11.4884C35.896 11.3076 35.6813 11.1642 35.4451 11.0663C35.2088 10.9685 34.9556 10.9181 34.6999 10.9181C34.4442 10.9181 34.191 10.9685 33.9548 11.0663C33.7185 11.1642 33.5039 11.3076 33.3231 11.4884C33.1422 11.6692 32.9988 11.8839 32.901 12.1201C32.8031 12.3564 32.7527 12.6096 32.7527 12.8653V32.7523H25.7345V23.7836ZM25.6131 3.77768C24.4162 4.96917 23.4663 6.38529 22.818 7.94477C22.1697 9.50426 21.8357 11.1764 21.8352 12.8653V21.8356H12.8674C9.49885 21.9013 6.29047 23.2855 3.93145 25.6909C1.57243 28.0964 0.250977 31.3311 0.250977 34.7003C0.250977 38.0694 1.57243 41.3042 3.93145 43.7096C6.29047 46.1151 9.49885 47.4993 12.8674 47.5649H21.8352V56.5345C21.9009 59.903 23.2851 63.1113 25.6906 65.4704C28.096 67.8294 31.3308 69.1508 34.6999 69.1508C38.0691 69.1508 41.3038 67.8294 43.7092 65.4704C46.1147 63.1113 47.4989 59.903 47.5646 56.5345V47.5633H56.5349C59.9034 47.4977 63.1118 46.1134 65.4708 43.708C67.8298 41.3025 69.1513 38.0678 69.1513 34.6986C69.1513 31.3295 67.8298 28.0948 65.4708 25.6893C63.1118 23.2839 59.9034 21.8996 56.5349 21.834H47.5646V12.8653C47.5674 10.3207 46.8148 7.83263 45.4021 5.71627C43.9895 3.5999 41.9803 1.95056 39.6293 0.977262C37.2782 0.00396566 34.6912 -0.24947 32.1959 0.249075C29.7007 0.747619 27.4097 1.9757 25.6131 3.77768Z" fill="white"/>
</mask>
<g mask="url(#mask0_15_2821)">
<path d="M34.7008 -34.6993L-34.6982 34.6997L34.7008 104.099L104.1 34.6997L34.7008 -34.6993Z" fill="url(#paint0_linear_15_2821)"/>
</g>
<mask id="mask1_15_2821" style="mask-type:luminance" maskUnits="userSpaceOnUse" x="0" y="0" width="179" height="70">
<path d="M178.001 0.000488281H0V69.399H178.001V0.000488281Z" fill="white"/>
</mask>
<g mask="url(#mask1_15_2821)">
<path d="M174.447 12.2446H178.001V32.3597H174.447V12.2446ZM161.11 28.2666C161.466 28.6259 161.891 28.9081 162.361 29.0953C162.83 29.2825 163.333 29.3708 163.838 29.3546C164.345 29.3699 164.85 29.2813 165.322 29.0941C165.793 28.907 166.221 28.6254 166.58 28.2666C167.28 27.5037 167.669 26.5057 167.669 25.4701C167.669 24.4344 167.28 23.4364 166.58 22.6735C166.221 22.3146 165.793 22.0329 165.322 21.8456C164.85 21.6584 164.345 21.5696 163.838 21.5847C163.333 21.5687 162.83 21.6571 162.361 21.8445C161.891 22.0318 161.466 22.3141 161.11 22.6735C160.419 23.4408 160.036 24.4371 160.036 25.4701C160.036 26.503 160.419 27.4993 161.11 28.2666ZM167.669 18.5813H171.223V32.358H167.669V30.7293C167.133 31.3959 166.446 31.9258 165.665 32.2755C164.884 32.6251 164.032 32.7846 163.177 32.7408C162.285 32.7474 161.402 32.5626 160.587 32.1989C159.772 31.8352 159.045 31.301 158.454 30.6324C157.184 29.2109 156.483 27.3718 156.483 25.466C156.483 23.5602 157.184 21.7211 158.454 20.2996C159.045 19.6312 159.772 19.0973 160.587 18.7339C161.402 18.3704 162.285 18.1859 163.177 18.1928C164.032 18.1488 164.884 18.3081 165.665 18.6577C166.446 19.0072 167.133 19.537 167.669 20.2035V18.5813ZM129.369 48.5861H136.396C136.258 47.7544 135.809 47.0059 135.141 46.4915C134.514 46.0346 133.755 45.7932 132.979 45.8033C132.129 45.771 131.293 46.0296 130.61 46.5363C129.967 47.0526 129.528 47.7799 129.37 48.5893M129.425 51.3443C129.903 53.0714 131.197 53.9346 133.31 53.9341C133.898 53.9715 134.485 53.8656 135.023 53.6256C135.561 53.3856 136.032 53.0186 136.396 52.5561L139.261 54.2093C138.597 55.1744 137.696 55.9525 136.644 56.4688C135.593 56.985 134.426 57.2222 133.256 57.1574C132.25 57.2038 131.244 57.0444 130.301 56.689C129.358 56.3337 128.498 55.7897 127.772 55.0905C126.726 54.0741 126.009 52.7664 125.716 51.3373C125.423 49.9083 125.566 48.4241 126.128 47.0777C126.69 45.7313 127.643 44.5852 128.865 43.7882C130.087 42.9913 131.521 42.5806 132.979 42.6094C133.914 42.5823 134.844 42.7551 135.706 43.1162C136.569 43.4773 137.344 44.0183 137.981 44.7031C139.296 46.1022 140.004 47.9643 139.951 49.8834C139.948 50.3731 139.903 50.8618 139.814 51.3435L129.425 51.3443ZM120.69 45.3652C120.983 44.5296 121.565 43.826 122.331 43.3814C123.106 42.9372 123.985 42.7089 124.879 42.7201V46.6878C123.862 46.5438 122.827 46.7792 121.972 47.349C121.532 47.6709 121.182 48.1014 120.957 48.5987C120.733 49.0959 120.641 49.6429 120.69 50.1863V56.7721H117.136V42.9938H120.69V45.3652ZM103.8 52.6807C104.155 53.0403 104.581 53.3226 105.05 53.5098C105.52 53.6971 106.023 53.7852 106.528 53.7687C107.035 53.7842 107.539 53.6957 108.011 53.5085C108.482 53.3214 108.91 53.0397 109.269 52.6807C109.969 51.9179 110.358 50.9199 110.358 49.8842C110.358 48.8485 109.969 47.8505 109.269 47.0876C108.91 46.7286 108.482 46.4468 108.011 46.2596C107.539 46.0723 107.035 45.9836 106.528 45.9988C106.023 45.9827 105.52 46.071 105.05 46.2584C104.581 46.4458 104.155 46.7281 103.8 47.0876C103.108 47.8546 102.725 48.8511 102.725 49.8842C102.725 50.9173 103.108 51.9137 103.8 52.6807ZM110.358 42.9962H113.912V56.773H110.358V55.1442C109.821 55.8108 109.135 56.3407 108.354 56.6904C107.573 57.0401 106.72 57.1995 105.866 57.1557C104.973 57.1623 104.09 56.9776 103.275 56.614C102.461 56.2504 101.733 55.7165 101.142 55.0481C99.8735 53.6262 99.1724 51.7873 99.1724 49.8817C99.1724 47.9762 99.8735 46.1372 101.142 44.7153C101.733 44.0471 102.461 43.5132 103.275 43.1498C104.09 42.7864 104.973 42.6018 105.866 42.6086C106.72 42.5646 107.573 42.7239 108.354 43.0734C109.134 43.4229 109.821 43.9527 110.358 44.6193V42.9962ZM89.3338 57.1582C88.0002 57.1993 86.6727 56.9634 85.435 56.4654C84.1972 55.9674 83.0762 55.218 82.1429 54.2647C80.3201 52.3329 79.3047 49.7774 79.3047 47.1214C79.3047 44.4654 80.3201 41.9099 82.1429 39.9781C83.0784 39.0286 84.2 38.2827 85.4374 37.7873C86.6749 37.2919 88.0015 37.0577 89.3338 37.0993C91.0239 37.0839 92.6894 37.5046 94.1695 38.3209C95.6018 39.0939 96.7973 40.2415 97.6282 41.6411L94.3486 43.5426C93.8786 42.6862 93.1718 41.9833 92.3127 41.5181C91.1068 40.8975 89.7389 40.6636 88.3953 40.8484C87.0517 41.0332 85.7978 41.6276 84.8042 42.5507C83.6938 43.8105 83.0812 45.432 83.0812 47.1112C83.0812 48.7905 83.6938 50.412 84.8042 51.6717C85.3965 52.2635 86.1052 52.7258 86.8855 53.0294C87.6657 53.3331 88.5005 53.4714 89.337 53.4357C90.3797 53.4494 91.4086 53.1972 92.3266 52.7027C93.1827 52.2498 93.8867 51.555 94.3511 50.7051L97.6306 52.6058C96.8027 54.0031 95.6125 55.1506 94.1858 55.9268C92.7024 56.7478 91.0316 57.1704 89.3362 57.1533M148.99 32.7416C148.026 32.756 147.068 32.5785 146.173 32.2195C145.278 31.8604 144.463 31.3269 143.776 30.65C143.089 29.9731 142.543 29.1664 142.17 28.2767C141.798 27.387 141.606 26.4321 141.606 25.4676C141.606 24.5031 141.798 23.5482 142.17 22.6585C142.543 21.7688 143.089 20.9621 143.776 20.2852C144.463 19.6083 145.278 19.0748 146.173 18.7158C147.068 18.3567 148.026 18.1792 148.99 18.1936C150.276 18.179 151.542 18.5118 152.655 19.157C153.721 19.7627 154.591 20.6618 155.162 21.7476L152.104 23.5392C151.832 22.973 151.395 22.5023 150.85 22.1889C150.278 21.8549 149.625 21.6834 148.963 21.693C148.473 21.678 147.985 21.7643 147.53 21.9464C147.075 22.1286 146.662 22.4027 146.318 22.7517C145.645 23.4897 145.271 24.4527 145.271 25.4517C145.271 26.4508 145.645 27.4138 146.318 28.1518C146.662 28.5008 147.075 28.775 147.53 28.9572C147.985 29.1393 148.473 29.2256 148.963 29.2105C149.633 29.2225 150.294 29.0558 150.878 28.7276C151.423 28.4221 151.861 27.9556 152.131 27.392L155.217 29.1551C154.613 30.2381 153.728 31.1383 152.655 31.7611C151.546 32.4145 150.278 32.7524 148.991 32.7383M135.627 18.5756H139.182V32.3523H135.627V18.5756ZM137.392 16.9224C136.817 16.9134 136.268 16.6812 135.862 16.2749C135.456 15.8686 135.223 15.3202 135.214 14.7456C135.213 14.4577 135.27 14.1727 135.382 13.9075C135.494 13.6423 135.659 13.4024 135.866 13.2023C136.061 12.9921 136.298 12.8247 136.561 12.7109C136.825 12.597 137.109 12.5392 137.396 12.5411C137.687 12.5373 137.975 12.5941 138.243 12.7079C138.511 12.8218 138.753 12.9902 138.952 13.2023C139.158 13.4028 139.322 13.6428 139.433 13.9079C139.544 14.1731 139.601 14.458 139.599 14.7456C139.602 15.0311 139.545 15.314 139.434 15.5769C139.323 15.8398 139.158 16.0771 138.952 16.2741C138.751 16.4836 138.509 16.6495 138.242 16.7616C137.974 16.8737 137.686 16.9295 137.396 16.9257M122.282 28.2634C122.641 28.6222 123.069 28.9039 123.541 29.091C124.012 29.2781 124.517 29.3667 125.024 29.3514C125.529 29.3676 126.032 29.2793 126.501 29.0921C126.97 28.9048 127.396 28.6227 127.751 28.2634C128.443 27.4963 128.826 26.4999 128.826 25.4668C128.826 24.4337 128.443 23.4373 127.751 22.6702C127.396 22.3108 126.97 22.0285 126.501 21.8412C126.032 21.6538 125.529 21.5654 125.024 21.5814C124.517 21.5662 124.012 21.655 123.54 21.8422C123.069 22.0295 122.641 22.3113 122.282 22.6702C121.582 23.4331 121.193 24.4311 121.193 25.4668C121.193 26.5025 121.582 27.5005 122.282 28.2634ZM128.826 13.068H132.38V32.3556H128.826V30.7268C128.297 31.3944 127.615 31.9253 126.839 32.2753C126.062 32.6253 125.213 32.7841 124.362 32.7383C123.466 32.7473 122.577 32.5637 121.757 32.1999C120.937 31.8362 120.205 31.3008 119.61 30.6299C118.341 29.2081 117.64 27.3692 117.64 25.4635C117.64 23.5579 118.341 21.719 119.61 20.2972C120.205 19.6266 120.938 19.0915 121.758 18.728C122.577 18.3646 123.466 18.1813 124.362 18.1904C125.213 18.1445 126.062 18.3031 126.839 18.6529C127.615 19.0028 128.297 19.5336 128.826 20.2011V13.068ZM105.432 24.1711H112.459C112.32 23.3398 111.872 22.5917 111.205 22.0774C110.577 21.62 109.818 21.3786 109.042 21.3892C108.191 21.3567 107.356 21.6153 106.673 22.1222C106.03 22.6387 105.591 23.366 105.432 24.1752M105.488 26.931C105.966 28.6581 107.261 29.5213 109.373 29.5208C109.961 29.5579 110.548 29.4519 111.086 29.2119C111.623 28.9719 112.094 28.6051 112.459 28.1428L115.325 29.796C114.66 30.7613 113.759 31.5396 112.707 32.056C111.655 32.5724 110.488 32.8096 109.318 32.7449C108.311 32.7913 107.306 32.6319 106.363 32.2765C105.42 31.9212 104.559 31.3772 103.834 30.678C102.787 29.6612 102.071 28.353 101.778 26.9237C101.485 25.4943 101.629 24.0098 102.191 22.6634C102.754 21.317 103.708 20.171 104.931 19.3744C106.153 18.5778 107.587 18.1675 109.046 18.1969C109.98 18.1697 110.91 18.3425 111.772 18.7036C112.635 19.0647 113.41 19.6057 114.047 20.2906C115.362 21.6895 116.07 23.5517 116.017 25.4709C116.014 25.9607 115.968 26.4493 115.88 26.931H105.488ZM99.0672 13.072V32.3597H95.2925V19.8509L89.8558 28.796L89.4103 28.8147L83.9955 19.8965V32.3564H80.1932V13.0712H84.1023L89.6318 22.1775L95.1378 13.0712L99.0672 13.072Z" fill="#012133"/>
</g>
<defs>
<linearGradient id="paint0_linear_15_2821" x1="34.7008" y1="83.8342" x2="34.7702" y2="83.7648" gradientUnits="userSpaceOnUse">
<stop stop-color="#22A7F0"/>
<stop offset="1" stop-color="#37DBD0"/>
</linearGradient>
</defs>
</svg>
