<svg width="197" height="75" viewBox="0 0 197 75" fill="none" xmlns="http://www.w3.org/2000/svg">
<path fill-rule="evenodd" clip-rule="evenodd" d="M33.7825 64.6105C35.5616 64.6105 37.0031 66.0599 37.0031 67.8489C37.0031 69.6379 35.5616 71.0892 33.7825 71.0892C32.0033 71.0892 30.5619 69.6379 30.5619 67.8489C30.5619 66.0599 32.0033 64.6105 33.7825 64.6105ZM35.4499 47.7229C36.696 47.4983 37.9439 46.8773 38.9974 46.2073C40.6819 45.1345 42.217 43.7257 43.5343 42.2301C43.9728 41.7294 44.5706 41.4135 45.2099 41.3202C46.0976 40.1668 46.8989 38.9409 47.5868 37.6589C48.5781 35.8111 49.4082 33.7125 49.6846 31.6202C49.8953 30.0295 49.7936 28.3238 48.9923 26.8997C48.0091 25.1551 46.175 24.209 44.3041 23.6911C43.6693 24.2941 42.8194 24.6436 41.9199 24.6436C39.9995 24.6436 38.4409 23.0764 38.4409 21.1444C38.4409 19.2123 39.9995 17.6461 41.9199 17.6461C43.2723 17.6461 44.4761 18.4292 45.0478 19.6134C48.1324 20.4038 50.9461 21.9872 52.5658 24.8617C53.8164 27.0826 54.0883 29.6619 53.7561 32.1616C53.4112 34.7591 52.438 37.3258 51.2045 39.6218C50.386 41.1418 49.4271 42.5949 48.3647 43.9548C48.3953 44.6646 48.154 45.368 47.6732 45.914C46.0094 47.8053 44.0709 49.5598 41.9469 50.9124C40.6081 51.7653 39.1405 52.4878 37.6027 52.9287C37.8908 54.7493 38.6606 56.4903 39.8005 57.9344C40.6018 58.9493 41.5886 59.8175 42.715 60.4504C43.844 61.0823 45.0838 61.458 46.3758 61.5449C49.329 61.7432 52.0913 60.4114 54.353 58.6053C58.3218 55.4356 61.4407 51.3072 63.4197 46.6202C65.4005 41.9286 66.1793 36.8278 65.6949 31.756C65.0988 25.5371 62.6291 19.6704 58.6081 14.9101C54.588 10.1497 49.2291 6.75101 43.2273 5.15305C37.2227 3.5551 30.8878 3.8421 25.0526 5.98055C19.2164 8.11719 14.1861 11.9903 10.6108 17.0956C7.03452 22.2027 5.10235 28.2704 5.06904 34.5146C5.03392 40.7625 6.89677 46.8492 10.4163 51.998L11.0636 52.9413L7.52162 61.1493L15.9589 58.1444L16.8476 58.8343C19.8818 61.1973 23.3365 62.9627 27.0235 64.0329C27.5592 64.1895 28.0994 64.3289 28.6441 64.4538C29.7425 62.7762 31.6324 61.6699 33.7816 61.6699C37.1768 61.6699 39.9301 64.4357 39.9301 67.8507C39.9301 68.2799 39.8851 68.6991 39.8032 69.1019C39.2278 71.9176 36.751 74.0334 33.7816 74.0334C30.5925 74.0334 27.9715 71.5926 27.6636 68.4673C27.0658 68.3288 26.4733 68.174 25.8836 68.0028C22.0652 66.8938 18.4619 65.1265 15.2413 62.7853L0 68.212L6.39887 53.3759C2.81273 47.741 0.925572 41.1925 0.963387 34.4938C1.0003 27.4031 3.18998 20.5124 7.25151 14.7145C11.3103 8.91662 17.0249 4.52111 23.6516 2.09476C30.272 -0.330686 37.4622 -0.65752 44.2771 1.1541C51.0946 2.97024 57.1793 6.82887 61.745 12.2357C66.3089 17.6388 69.1081 24.3022 69.7834 31.3604C70.3362 37.1175 69.4521 42.9118 67.203 48.2371C64.9557 53.557 61.4146 58.2413 56.9118 61.8401C53.82 64.3081 50.1132 65.9404 46.1021 65.6706C44.2032 65.5412 42.3773 64.9889 40.717 64.0573C39.1198 63.1619 37.7206 61.9442 36.5835 60.5047C34.8773 58.3463 33.7798 55.7126 33.4619 52.9757C31.8647 52.5412 30.3377 51.7961 28.9475 50.9124C26.8218 49.5598 24.8878 47.8053 23.223 45.914C22.7422 45.368 22.5018 44.6646 22.5306 43.9548C21.4682 42.5949 20.5093 41.1418 19.6927 39.6218C18.4574 37.3249 17.4832 34.7591 17.1402 32.1616C16.8079 29.6628 17.0781 27.0835 18.3314 24.8617C19.9484 21.9881 22.7638 20.4038 25.8467 19.6134C26.4202 18.4292 27.624 17.6461 28.9772 17.6461C30.8986 17.6461 32.4562 19.2123 32.4562 21.1444C32.4562 23.0764 30.8986 24.6436 28.9772 24.6436C28.0769 24.6436 27.2278 24.2941 26.5904 23.6911C24.723 24.209 22.8881 25.1551 21.9058 26.8997C21.1027 28.3238 21.0018 30.0295 21.2125 31.6202C21.4889 33.7125 22.3173 35.8111 23.3113 37.6589C23.9964 38.9409 24.8005 40.1668 25.6855 41.3202C26.3266 41.4135 26.9226 41.7294 27.3629 42.2301C28.6792 43.7257 30.217 45.1345 31.898 46.2073C32.9541 46.8773 34.2002 47.4983 35.4463 47.7229H35.4499Z" fill="#F17230"/>
<path d="M161.702 29.3767C161.702 26.6417 162.972 25.8223 165.083 25.8223H166.024V22.0651C164.066 22.0651 162.591 23.0112 161.702 24.4688V22.2697H158.143V36.4313H161.702V29.3758V29.3767ZM144.643 29.3505C144.643 26.5149 146.349 25.1596 148.23 25.1596C150.11 25.1596 151.864 26.5158 151.864 29.3505C151.864 32.1852 150.061 33.5441 148.179 33.5441C146.297 33.5441 144.644 32.1643 144.644 29.3505H144.643ZM155.524 29.3505C155.524 24.8789 152.347 22.0415 148.279 22.0415C144.211 22.0415 141.033 24.8789 141.033 29.3505C141.033 33.822 144.11 36.6621 148.177 36.6621C152.245 36.6621 155.523 33.8003 155.523 29.3505H155.524ZM132.62 32.0349C132.62 35.2815 134.424 36.4331 137.12 36.4331H139.357V33.4173H137.705C136.587 33.4173 136.204 33.0072 136.204 32.062V25.2112H139.357V22.2706H136.204V18.7669H132.621V22.2706H130.944V25.2112H132.621V32.0349H132.62ZM115.841 29.3505C115.841 33.8003 118.74 36.6621 122.806 36.6621C126.314 36.6621 128.68 34.6676 129.442 31.6519H125.604C125.172 32.9294 124.256 33.5948 122.781 33.5948C120.797 33.5948 119.477 32.1127 119.477 29.3505C119.477 26.5882 120.797 25.0817 122.781 25.0817C124.256 25.0817 125.197 25.8495 125.604 27.0518H129.442C128.68 23.8821 126.314 22.0415 122.806 22.0415C118.74 22.0415 115.841 24.9034 115.841 29.3505ZM103.258 29.3505C103.258 26.5149 104.963 25.1596 106.844 25.1596C108.726 25.1596 110.479 26.5158 110.479 29.3505C110.479 32.1852 108.672 33.5441 106.793 33.5441C104.914 33.5441 103.259 32.1643 103.259 29.3505H103.258ZM114.139 29.3505C114.139 24.8789 110.96 22.0415 106.894 22.0415C102.828 22.0415 99.6479 24.8789 99.6479 29.3505C99.6479 33.822 102.724 36.6621 106.791 36.6621C110.859 36.6621 114.138 33.8003 114.138 29.3505H114.139ZM85.8697 33.3902V21.6061H88.3862C92.1254 21.6061 94.234 23.8314 94.234 27.5371C94.234 31.2427 92.1254 33.3902 88.3862 33.3902H85.8697ZM88.5149 18.5903H82.3105V36.4331H88.5149C94.1836 36.4331 97.8688 32.9294 97.8688 27.5371C97.8688 22.1448 94.1827 18.5903 88.5149 18.5903Z" fill="#051B3B"/>
<path d="M195.356 55.2763H197V49.3408C197 46.4536 195.227 45.0204 192.906 45.0204C191.553 45.0204 190.347 45.5908 189.689 46.6383V45.2051H188.025V55.2763H189.689V49.7084C189.689 47.5382 190.858 46.4717 192.557 46.4717C194.256 46.4717 195.355 47.5201 195.355 49.5789V55.2772L195.356 55.2763ZM177.408 50.2217C177.408 47.6849 178.998 46.4925 180.752 46.4925C182.507 46.4925 184.132 47.6849 184.132 50.2217C184.132 52.7585 182.435 53.9699 180.698 53.9699C178.96 53.9699 177.409 52.7775 177.409 50.2217H177.408ZM185.831 50.2217C185.831 47.0421 183.62 45.0385 180.77 45.0385C177.919 45.0385 175.708 47.0412 175.708 50.2217C175.708 53.4022 177.864 55.4411 180.698 55.4411C183.531 55.4411 185.832 53.4203 185.832 50.2217H185.831ZM172.692 43.57C173.296 43.57 173.788 43.0739 173.788 42.4302C173.788 41.7865 173.296 41.2913 172.692 41.2913C172.052 41.2913 171.557 41.7874 171.557 42.4302C171.557 43.073 172.051 43.57 172.692 43.57ZM171.833 55.2763H173.496V45.2051H171.833V55.2763ZM165.544 52.5186C165.544 54.5393 166.55 55.2763 168.324 55.2763H169.822V53.8603H168.597C167.574 53.8603 167.208 53.5108 167.208 52.5186V46.5831H169.823V45.2051H167.208V42.6683H165.545V45.2051H164.248V46.5831H165.545V52.5186H165.544ZM160.683 50.2208C160.683 52.591 159.111 53.969 157.284 53.969C155.456 53.969 153.901 52.5738 153.901 50.2036C153.901 47.8334 155.456 46.4916 157.284 46.4916C159.111 46.4916 160.683 47.8868 160.683 50.2208ZM152.201 50.2036C152.201 53.3262 154.268 55.4402 156.936 55.4402C158.781 55.4402 160.078 54.4859 160.683 53.3986V55.2754H162.364V45.2042H160.683V47.0403C160.097 45.9937 158.819 45.0376 156.953 45.0376C154.268 45.0376 152.201 47.0602 152.201 50.2027V50.2036ZM146.538 52.5186C146.538 54.5393 147.544 55.2763 149.315 55.2763H150.814V53.8603H149.591C148.565 53.8603 148.2 53.5108 148.2 52.5186V46.5831H150.814V45.2051H148.2V42.6683H146.538V45.2051H145.239V46.5831H146.538V52.5186ZM141.675 55.2763H143.337V41.6751H141.675V55.2763ZM138.86 45.2051H137.197V50.7359C137.197 52.9034 136.047 53.9699 134.327 53.9699C132.607 53.9699 131.532 52.9242 131.532 50.8826V45.2051H129.887V51.1035C129.887 53.9898 131.694 55.4239 133.999 55.4239C135.335 55.4239 136.557 54.8363 137.197 53.7879V55.2763H138.86V45.2051ZM127.639 52.5358C127.565 48.9352 121.754 50.2398 121.754 47.8515C121.754 47.0412 122.484 46.4527 123.709 46.4527C125.043 46.4527 125.81 47.1878 125.884 48.2H127.547C127.437 46.2327 125.976 45.0376 123.762 45.0376C121.548 45.0376 120.09 46.306 120.09 47.8506C120.09 51.5978 126.01 50.2941 126.01 52.5349C126.01 53.3633 125.28 54.0242 123.964 54.0242C122.555 54.0242 121.697 53.289 121.606 52.3149H119.888C119.997 54.1527 121.644 55.4393 123.984 55.4393C126.194 55.4393 127.638 54.1881 127.638 52.534L127.639 52.5358ZM116.07 55.2763H117.714V49.3408C117.714 46.4536 115.94 45.0204 113.619 45.0204C112.266 45.0204 111.06 45.5908 110.403 46.6383V45.2051H108.741V55.2763H110.403V49.7084C110.403 47.5382 111.573 46.4717 113.274 46.4717C114.975 46.4717 116.07 47.5201 116.07 49.5789V55.2772V55.2763ZM98.1209 50.2217C98.1209 47.6849 99.7127 46.4925 101.466 46.4925C103.219 46.4925 104.847 47.6849 104.847 50.2217C104.847 52.7585 103.148 53.9699 101.411 53.9699C99.674 53.9699 98.1218 52.7775 98.1218 50.2217H98.1209ZM106.546 50.2217C106.546 47.0421 104.335 45.0385 101.484 45.0385C98.6323 45.0385 96.4219 47.0412 96.4219 50.2217C96.4219 53.4022 98.5792 55.4411 101.411 55.4411C104.242 55.4411 106.547 53.4203 106.547 50.2217H106.546ZM82.3105 48.8618C82.3105 52.7033 85.108 55.3858 88.6716 55.3858C91.4312 55.3858 93.6254 54.0079 94.5744 51.5435H92.5819C91.8868 53.0708 90.5344 53.9346 88.6707 53.9346C86.0011 53.9346 84.0095 51.9862 84.0095 48.8618C84.0095 45.7375 86.0002 43.7728 88.6707 43.7728C90.5344 43.7728 91.8868 44.6356 92.5819 46.1784H94.5744C93.6254 43.6968 91.4312 42.3016 88.6716 42.3016C85.108 42.3016 82.3105 45.0213 82.3105 48.8628V48.8618Z" fill="#051B3B"/>
</svg>
