<svg width="171" height="84" viewBox="0 0 171 84" fill="none" xmlns="http://www.w3.org/2000/svg">
<mask id="mask0_15_2811" style="mask-type:luminance" maskUnits="userSpaceOnUse" x="0" y="0" width="171" height="84">
<path d="M170.999 0H0V83.4641H170.999V0Z" fill="white"/>
</mask>
<g mask="url(#mask0_15_2811)">
<path d="M86.3789 4.78393C87.3054 3.96124 88.2748 3.18833 89.2832 2.46845C90.9624 1.26819 92.8937 0.467386 94.9295 0.127168C96.9879 -0.198455 99.0966 0.0974661 100.986 0.977067C102.854 1.87002 104.449 3.24727 105.605 4.96557C106.932 6.93813 107.791 9.18682 108.119 11.5411C108.401 13.5008 108.497 15.4829 108.406 17.4607C108.317 19.5444 108.054 21.6171 107.619 23.6567C106.521 28.0157 104.92 32.2321 102.847 36.2206C100.11 41.4787 96.3654 46.8038 89.616 43.7923C84.224 41.387 76.1504 31.2188 74.8646 25.4243C73.1246 17.585 81.7938 13.9263 85.8033 18.4282C89.3033 14.4952 96.0328 16.7542 96.6809 22.1366C97.332 27.5391 91.614 33.3622 87.8301 33.4979C90.1398 30.692 93.1379 27.3928 93.1408 23.5553C93.1408 20.4578 90.6303 18.0965 85.8033 20.9397C82.4114 18.7466 77.6925 18.9512 78.333 24.215C78.814 26.7323 79.8082 29.1235 81.2537 31.2398C83.8197 35.1738 87.572 38.7923 90.2221 39.9941C95.0538 42.1795 97.2727 38.4482 99.2354 34.779C101.242 31.0019 102.784 26.9962 103.829 22.8488C104.221 21.0237 104.458 19.1689 104.539 17.3039C104.618 15.5689 104.531 13.8303 104.279 12.1118C104.043 10.3411 103.407 8.64734 102.419 7.15868C101.652 6.00981 100.592 5.08717 99.3483 4.48661C98.1483 3.93094 96.8099 3.74587 95.5041 3.95506C94.0516 4.20477 92.6753 4.78288 91.4802 5.6453C90.5842 6.29038 89.7227 6.98189 88.8989 7.71699C85.4496 10.6806 82.1657 13.498 75.9602 11.0631C81.1226 10.5458 81.225 9.20169 86.3808 4.77246" fill="#2A9389"/>
<path d="M83.4698 3.85558C80.7815 0.28007 74.4488 -1.00099 69.8513 1.14335C68.0251 2.01784 66.4664 3.36532 65.337 5.04582C64.0406 6.97541 63.2 9.17459 62.879 11.4769C62.6 13.3937 62.504 15.3326 62.5923 17.2675C62.6772 19.3054 62.933 21.3326 63.357 23.3277C64.799 29.1091 67.1858 34.6127 70.4211 39.6164C73.7815 44.385 80.7231 47.6469 82.1017 40.5542C79.2843 43.3716 76.4554 41.6058 73.5185 37.4376C70.5608 32.8617 68.3791 27.8288 67.0616 22.5419C66.679 20.7566 66.4469 18.9425 66.3675 17.1184C66.2906 15.4211 66.3755 13.7203 66.6209 12.0391C66.8519 10.3077 67.473 8.65133 68.4374 7.19494C69.1873 6.0715 70.2241 5.16907 71.4402 4.58119C74.7155 2.69019 79.963 2.90243 83.4582 3.85462" fill="#353537"/>
<path d="M170.999 67.4584H162.991V63.7414H170.624V61.685H162.991V57.9278H170.936V55.7721H160.776V69.6343H170.999V67.4584ZM149.367 57.8083C149.712 57.7851 150.058 57.8345 150.382 57.9535C150.706 58.0724 151.002 58.2582 151.25 58.4987C151.498 58.7393 151.693 59.0293 151.822 59.35C151.95 59.6706 152.01 60.0147 151.997 60.36C152.012 60.704 151.952 61.0471 151.822 61.3658C151.691 61.6844 151.493 61.971 151.241 62.2058C150.989 62.4407 150.69 62.6182 150.363 62.7261C150.036 62.8341 149.689 62.87 149.347 62.8313H145.134V57.8083H149.367ZM154.625 69.2385L150.492 64.6315C151.558 64.5475 152.549 64.049 153.251 63.2431C153.953 62.4372 154.312 61.3881 154.25 60.3208C154.25 57.9872 152.569 55.7922 149.365 55.7922C147.209 55.7922 145.074 55.7721 142.919 55.7721V69.6343H145.133V64.8485H148.059L152.272 69.6343H154.862L154.625 69.2385ZM132.914 64.7108H127.06L129.987 58.1143L132.914 64.7108ZM135.049 69.6343H137.402L131.193 55.7721H128.78L122.566 69.6343H124.92L126.226 66.728H133.72L135.049 69.6343ZM116.759 66.3322C115.771 67.2847 114.454 67.8223 113.082 67.8342C112.405 67.881 111.725 67.7832 111.089 67.5472C110.453 67.3112 109.874 66.9424 109.392 66.4655C108.909 65.9885 108.533 65.4143 108.29 64.7809C108.046 64.1475 107.94 63.4695 107.979 62.7921C107.938 62.1094 108.041 61.4257 108.282 60.7857C108.523 60.1457 108.897 59.5639 109.379 59.0785C109.86 58.5931 110.439 58.2151 111.077 57.9692C111.716 57.7232 112.399 57.615 113.082 57.6516C114.415 57.6382 115.7 58.1494 116.66 59.0751L118.143 57.6516C117.481 56.9832 116.692 56.4535 115.823 56.0935C114.954 55.7335 114.022 55.5505 113.082 55.555C112.113 55.502 111.144 55.6532 110.237 55.9986C109.33 56.344 108.506 56.876 107.818 57.5602C107.13 58.2443 106.594 59.0654 106.244 59.9701C105.893 60.8749 105.737 61.8431 105.784 62.8121C105.804 66.4507 108.059 69.9116 113.082 69.9116C114.041 69.9299 114.995 69.7575 115.888 69.4045C116.78 69.0516 117.594 68.5249 118.281 67.8552L116.759 66.3322ZM87.0616 55.7721V69.6343H96.5721V67.5779H89.2758V55.7721H87.0616ZM77.055 64.7108H71.2032L74.1296 58.1143L77.055 64.7108ZM79.1898 69.6343H81.5483L75.3399 55.7721H72.9241L66.7099 69.6343H69.0627L70.3686 66.728H77.8628L79.1898 69.6343ZM57.0828 69.6343H59.3209V57.7692H63.8486V55.7721H52.537V57.7692H57.0848L57.0828 69.6343ZM36.7952 55.7721H35.0973V69.6343H37.3315V59.8523L45.1833 69.6343H46.864V55.7721H44.646V65.6334L36.7952 55.7721ZM28.6518 67.4584H20.6433V63.7414H28.2761V61.685H20.6433V57.9278H28.5926V55.7721H18.4291V69.6343H28.6518V67.4584ZM2.19884 57.8887H5.23993C6.51428 57.8887 7.73644 58.3949 8.63754 59.296C9.53864 60.1971 10.0449 61.4193 10.0449 62.6936C10.0449 63.968 9.53864 65.1901 8.63754 66.0912C7.73644 66.9923 6.51428 67.4986 5.23993 67.4986H2.19884V57.8887ZM0 55.7721V69.6343H5.23993C10.085 69.6343 12.26 66.0923 12.1806 62.5846C12.1223 59.1564 9.96648 55.7721 5.23993 55.7721H0Z" fill="#353537"/>
<path d="M122.665 76.3887V81.1823L119.128 76.3887H117.715V83.2902H119.101V78.4873L122.626 83.2902H124.041V76.3887H122.665ZM104.648 80.842L105.788 77.796L106.919 80.842H104.648ZM107.83 83.2902H109.33L106.558 76.3887H105.003L102.231 83.2902H103.731L104.219 81.9843H107.342L107.83 83.2902ZM91.8084 77.5762C92.1979 77.5753 92.583 77.6587 92.9373 77.8206C93.2916 77.9824 93.6067 78.2189 93.861 78.514V76.9328C93.2121 76.5043 92.4483 76.2829 91.6707 76.298C91.2 76.3052 90.7352 76.4051 90.303 76.592C89.8708 76.7789 89.4797 77.0492 89.152 77.3872C88.8242 77.7253 88.5662 78.1246 88.3928 78.5623C88.2193 79.0001 88.1338 79.4677 88.1411 79.9385C88.1484 80.4092 88.2484 80.874 88.4353 81.3062C88.6222 81.7384 88.8923 82.1295 89.2304 82.4572C89.5684 82.785 89.9677 83.043 90.4055 83.2165C90.8432 83.3899 91.3108 83.4754 91.7816 83.4681C92.5204 83.453 93.2406 83.2333 93.8619 82.8333V79.3735H91.295V80.5599H92.6096V82.0035C92.323 82.0895 92.0254 82.133 91.7262 82.1326C91.4234 82.1512 91.1202 82.106 90.836 81.9999C90.5519 81.8937 90.2933 81.7289 90.0769 81.5164C89.8605 81.3038 89.6913 81.0482 89.5802 80.766C89.469 80.4838 89.4185 80.1813 89.4318 79.8782C89.4163 79.5657 89.4678 79.2536 89.5826 78.9626C89.6975 78.6716 89.8731 78.4083 90.0978 78.1906C90.3225 77.9729 90.591 77.8056 90.8855 77.7C91.18 77.5944 91.4937 77.5528 91.8055 77.5781M76.1068 82.0407C75.6626 82.0789 75.2172 81.982 74.8291 81.7626C74.4409 81.5433 74.1281 81.2117 73.9317 80.8115C73.7352 80.4113 73.6642 79.9611 73.7281 79.5198C73.7919 79.0786 73.9876 78.6669 74.2894 78.3388C74.5913 78.0107 74.9853 77.7815 75.4197 77.6812C75.8541 77.5809 76.3086 77.6141 76.7238 77.7766C77.139 77.9391 77.4954 78.2233 77.7462 78.5918C77.9971 78.9604 78.1308 79.3961 78.1297 79.8419C78.1555 80.1223 78.1223 80.4049 78.0321 80.6716C77.9419 80.9383 77.7969 81.1831 77.6063 81.3903C77.4156 81.5975 77.1838 81.7624 76.9255 81.8744C76.6672 81.9864 76.3883 82.0431 76.1068 82.0407ZM76.1068 83.3792C76.8152 83.4149 77.5181 83.2374 78.1246 82.8696C78.7311 82.5018 79.2134 81.9607 79.5092 81.316C79.805 80.6713 79.9008 79.9527 79.784 79.2531C79.6673 78.5534 79.3433 77.9048 78.8542 77.3911C78.3651 76.8774 77.7332 76.5221 77.0401 76.3712C76.347 76.2203 75.6245 76.2807 74.9661 76.5445C74.3077 76.8084 73.7435 77.2637 73.3465 77.8515C72.9494 78.4393 72.7377 79.1326 72.7388 79.8419C72.7161 80.2982 72.7864 80.7542 72.9454 81.1825C73.1045 81.6107 73.349 82.0022 73.664 82.333C73.979 82.6639 74.3579 82.9273 74.7779 83.1071C75.1978 83.287 75.6499 83.3795 76.1068 83.3792ZM60.9405 83.2836H64.6565V82.0733H62.3325V76.3869H60.9434L60.9405 83.2836ZM49.6758 83.3792C51.083 83.3792 52.2331 82.7272 52.2331 81.3275C52.2331 79.9891 51.0371 79.5246 50.0429 79.1288C49.344 78.8515 48.7455 78.6125 48.7455 78.1431C48.7455 77.7196 49.128 77.4528 49.6853 77.4528C49.988 77.4425 50.2891 77.5019 50.5651 77.6266C50.8411 77.7513 51.0847 77.9377 51.2771 78.1717L52.1786 77.297C51.8478 76.9658 51.4525 76.7059 51.0173 76.5336C50.582 76.3612 50.116 76.2801 49.6481 76.2952C48.323 76.2952 47.3202 77.0398 47.3202 78.1995C47.3202 79.3123 48.3144 79.7358 49.2532 80.1038C50.062 80.4155 50.8259 80.7014 50.8259 81.3467C50.8173 81.8801 50.3478 82.0915 49.7216 82.0915C49.3637 82.1045 49.0084 82.025 48.6902 81.8605C48.372 81.6961 48.1016 81.4522 47.9052 81.1526L46.9492 82.101C47.2773 82.5059 47.6927 82.8311 48.1644 83.0525C48.6361 83.2739 49.1519 83.3855 49.6729 83.3792" fill="#2A9389"/>
<path fill-rule="evenodd" clip-rule="evenodd" d="M134.621 80.5311H156.729V79.228H134.621V80.5311ZM14.2695 80.5311H36.3774V79.228H14.2695V80.5311Z" fill="#2A9389"/>
</g>
</svg>
